<mxfile host="app.diagrams.net" modified="2022-11-30T09:35:38.287Z" agent="5.0 (Windows NT 10.0; WOW64) AppleWebKit/537.36 (KHTML, like Gecko) Chrome/107.0.0.0 Safari/537.36" etag="gC2XvSvpJePY6lYXX_h5" version="20.6.0" type="github">
  <diagram id="Gx5JAgFAaHTAftw7QpYB" name="Page-1">
    <mxGraphModel dx="1278" dy="547" grid="1" gridSize="10" guides="1" tooltips="1" connect="1" arrows="1" fold="1" page="1" pageScale="1" pageWidth="850" pageHeight="1100" math="0" shadow="0">
      <root>
        <mxCell id="0" />
        <mxCell id="1" parent="0" />
        <mxCell id="8ruMCxL2oFIT7Z4K_4vt-63" value="" style="rounded=0;whiteSpace=wrap;html=1;labelBackgroundColor=#3369FF;fontSize=20;strokeWidth=1;fillColor=#f5f5f5;dashed=1;strokeColor=#666666;fontColor=#333333;" parent="1" vertex="1">
          <mxGeometry x="480" y="640" width="610" height="360" as="geometry" />
        </mxCell>
        <mxCell id="8ruMCxL2oFIT7Z4K_4vt-21" value="" style="swimlane;startSize=0;rounded=1;dashed=1;strokeWidth=2;fillColor=none;labelBackgroundColor=default;strokeColor=#000000;" parent="1" vertex="1">
          <mxGeometry x="1190" y="630" width="1430" height="360" as="geometry">
            <mxRectangle x="650" y="260" width="50" height="40" as="alternateBounds" />
          </mxGeometry>
        </mxCell>
        <mxCell id="8ruMCxL2oFIT7Z4K_4vt-26" value="Data Source - file loader" style="text;html=1;strokeColor=none;fillColor=none;align=center;verticalAlign=middle;whiteSpace=wrap;rounded=1;dashed=1;" parent="8ruMCxL2oFIT7Z4K_4vt-21" vertex="1">
          <mxGeometry x="30" y="20" width="170" height="30" as="geometry" />
        </mxCell>
        <mxCell id="8ruMCxL2oFIT7Z4K_4vt-7" value="" style="edgeStyle=orthogonalEdgeStyle;rounded=1;orthogonalLoop=1;jettySize=auto;html=1;entryX=0;entryY=1;entryDx=0;entryDy=0;" parent="8ruMCxL2oFIT7Z4K_4vt-21" source="8ruMCxL2oFIT7Z4K_4vt-4" edge="1">
          <mxGeometry relative="1" as="geometry">
            <mxPoint x="300" y="150" as="targetPoint" />
            <Array as="points">
              <mxPoint x="250" y="290" />
              <mxPoint x="250" y="150" />
            </Array>
          </mxGeometry>
        </mxCell>
        <mxCell id="8ruMCxL2oFIT7Z4K_4vt-16" value="" style="edgeStyle=orthogonalEdgeStyle;rounded=1;orthogonalLoop=1;jettySize=auto;html=1;entryX=0;entryY=0.5;entryDx=0;entryDy=0;entryPerimeter=0;" parent="8ruMCxL2oFIT7Z4K_4vt-21" target="9700RHBB0rG6s58wv9qI-22" edge="1">
          <mxGeometry relative="1" as="geometry">
            <mxPoint x="800" y="110" as="sourcePoint" />
            <mxPoint x="880" y="90" as="targetPoint" />
          </mxGeometry>
        </mxCell>
        <mxCell id="8ruMCxL2oFIT7Z4K_4vt-71" style="edgeStyle=orthogonalEdgeStyle;rounded=1;orthogonalLoop=1;jettySize=auto;html=1;exitX=1;exitY=0.5;exitDx=0;exitDy=0;exitPerimeter=0;entryX=0;entryY=0.25;entryDx=0;entryDy=0;fontSize=20;" parent="8ruMCxL2oFIT7Z4K_4vt-21" source="8ruMCxL2oFIT7Z4K_4vt-1" edge="1">
          <mxGeometry relative="1" as="geometry">
            <mxPoint x="300" y="90" as="targetPoint" />
            <Array as="points">
              <mxPoint x="225" y="80" />
              <mxPoint x="225" y="90" />
            </Array>
          </mxGeometry>
        </mxCell>
        <mxCell id="8ruMCxL2oFIT7Z4K_4vt-1" value="&lt;span style=&quot;&quot;&gt;Source files - 4 (input)&lt;/span&gt;" style="strokeWidth=2;html=1;shape=mxgraph.flowchart.document2;whiteSpace=wrap;size=0.25;rounded=1;fillColor=#dae8fc;strokeColor=#6c8ebf;" parent="8ruMCxL2oFIT7Z4K_4vt-21" vertex="1">
          <mxGeometry x="50" y="50" width="100" height="60" as="geometry" />
        </mxCell>
        <mxCell id="8ruMCxL2oFIT7Z4K_4vt-70" style="edgeStyle=orthogonalEdgeStyle;rounded=1;orthogonalLoop=1;jettySize=auto;html=1;fontSize=20;" parent="8ruMCxL2oFIT7Z4K_4vt-21" source="8ruMCxL2oFIT7Z4K_4vt-2" edge="1">
          <mxGeometry relative="1" as="geometry">
            <mxPoint x="300" y="110" as="targetPoint" />
            <Array as="points">
              <mxPoint x="200" y="150" />
              <mxPoint x="200" y="110" />
            </Array>
          </mxGeometry>
        </mxCell>
        <mxCell id="8ruMCxL2oFIT7Z4K_4vt-2" value="&lt;span style=&quot;&quot;&gt;Source files - 3 (input)&lt;/span&gt;" style="strokeWidth=2;html=1;shape=mxgraph.flowchart.document2;whiteSpace=wrap;size=0.25;rounded=1;fillColor=#dae8fc;strokeColor=#6c8ebf;" parent="8ruMCxL2oFIT7Z4K_4vt-21" vertex="1">
          <mxGeometry x="50" y="120" width="100" height="60" as="geometry" />
        </mxCell>
        <mxCell id="8ruMCxL2oFIT7Z4K_4vt-69" style="edgeStyle=orthogonalEdgeStyle;rounded=1;orthogonalLoop=1;jettySize=auto;html=1;entryX=0;entryY=0.75;entryDx=0;entryDy=0;fontSize=20;" parent="8ruMCxL2oFIT7Z4K_4vt-21" source="8ruMCxL2oFIT7Z4K_4vt-3" edge="1">
          <mxGeometry relative="1" as="geometry">
            <mxPoint x="300" y="130" as="targetPoint" />
            <Array as="points">
              <mxPoint x="220" y="220" />
              <mxPoint x="220" y="130" />
            </Array>
          </mxGeometry>
        </mxCell>
        <mxCell id="8ruMCxL2oFIT7Z4K_4vt-3" value="&lt;span style=&quot;&quot;&gt;Source files - 2 (input)&lt;/span&gt;" style="strokeWidth=2;html=1;shape=mxgraph.flowchart.document2;whiteSpace=wrap;size=0.25;rounded=1;fillColor=#dae8fc;strokeColor=#6c8ebf;" parent="8ruMCxL2oFIT7Z4K_4vt-21" vertex="1">
          <mxGeometry x="50" y="190" width="100" height="60" as="geometry" />
        </mxCell>
        <mxCell id="8ruMCxL2oFIT7Z4K_4vt-4" value="Source files - 1 (input)" style="strokeWidth=2;html=1;shape=mxgraph.flowchart.document2;whiteSpace=wrap;size=0.25;rounded=1;fillColor=#dae8fc;strokeColor=#6c8ebf;" parent="8ruMCxL2oFIT7Z4K_4vt-21" vertex="1">
          <mxGeometry x="50" y="260" width="100" height="60" as="geometry" />
        </mxCell>
        <mxCell id="8ruMCxL2oFIT7Z4K_4vt-68" value="&lt;span style=&quot;color: rgb(0, 0, 0); font-family: Helvetica; font-size: 12px; font-style: normal; font-variant-ligatures: normal; font-variant-caps: normal; font-weight: 400; letter-spacing: normal; orphans: 2; text-align: center; text-indent: 0px; text-transform: none; widows: 2; word-spacing: 0px; -webkit-text-stroke-width: 0px; background-color: rgb(248, 249, 250); text-decoration-thickness: initial; text-decoration-style: initial; text-decoration-color: initial; float: none; display: inline !important;&quot;&gt;Load data in the Import Table&lt;/span&gt;" style="text;whiteSpace=wrap;html=1;fontSize=20;" parent="8ruMCxL2oFIT7Z4K_4vt-21" vertex="1">
          <mxGeometry x="260" y="20" width="160" height="40" as="geometry" />
        </mxCell>
        <mxCell id="9700RHBB0rG6s58wv9qI-7" value="" style="sketch=0;pointerEvents=1;shadow=0;dashed=0;html=1;strokeColor=none;fillColor=#505050;labelPosition=center;verticalLabelPosition=bottom;verticalAlign=top;outlineConnect=0;align=center;shape=mxgraph.office.services.central_management_service;rounded=1;labelBackgroundColor=#FFFFFF;fontSize=20;" parent="8ruMCxL2oFIT7Z4K_4vt-21" vertex="1">
          <mxGeometry x="300" y="50" width="110" height="112" as="geometry" />
        </mxCell>
        <mxCell id="9700RHBB0rG6s58wv9qI-8" value="" style="edgeStyle=orthogonalEdgeStyle;rounded=1;orthogonalLoop=1;jettySize=auto;html=1;fontSize=20;" parent="8ruMCxL2oFIT7Z4K_4vt-21" source="9700RHBB0rG6s58wv9qI-7" target="9700RHBB0rG6s58wv9qI-12" edge="1">
          <mxGeometry relative="1" as="geometry">
            <mxPoint x="475" y="106" as="targetPoint" />
          </mxGeometry>
        </mxCell>
        <mxCell id="9700RHBB0rG6s58wv9qI-20" value="" style="edgeStyle=orthogonalEdgeStyle;rounded=1;orthogonalLoop=1;jettySize=auto;html=1;fontSize=20;fontColor=#FF3399;" parent="8ruMCxL2oFIT7Z4K_4vt-21" source="9700RHBB0rG6s58wv9qI-12" target="9700RHBB0rG6s58wv9qI-16" edge="1">
          <mxGeometry relative="1" as="geometry" />
        </mxCell>
        <mxCell id="9700RHBB0rG6s58wv9qI-12" value="&lt;font color=&quot;#000000&quot;&gt;CMDB Reconciliation&amp;nbsp;&lt;/font&gt;" style="sketch=0;outlineConnect=0;fontColor=#232F3E;gradientColor=none;strokeColor=#ffffff;fillColor=#232F3E;dashed=0;verticalLabelPosition=middle;verticalAlign=bottom;align=center;html=1;whiteSpace=wrap;fontSize=10;fontStyle=1;spacing=3;shape=mxgraph.aws4.productIcon;prIcon=mxgraph.aws4.kinesis_video_streams;rounded=1;shadow=0;labelBackgroundColor=#FFFFFF;" parent="8ruMCxL2oFIT7Z4K_4vt-21" vertex="1">
          <mxGeometry x="477.5" y="46" width="115" height="120" as="geometry" />
        </mxCell>
        <mxCell id="9700RHBB0rG6s58wv9qI-13" value="" style="sketch=0;html=1;aspect=fixed;strokeColor=none;shadow=0;align=center;verticalAlign=top;fillColor=#3B8DF1;shape=mxgraph.gcp2.gear_load;rounded=1;dashed=1;labelBackgroundColor=#FFFFFF;fontSize=20;fontColor=#FF3399;" parent="8ruMCxL2oFIT7Z4K_4vt-21" vertex="1">
          <mxGeometry x="540" y="50" width="40" height="36.8" as="geometry" />
        </mxCell>
        <mxCell id="9700RHBB0rG6s58wv9qI-14" value="" style="aspect=fixed;perimeter=ellipsePerimeter;html=1;align=center;shadow=0;dashed=0;fontColor=#4277BB;labelBackgroundColor=#ffffff;fontSize=12;spacingTop=3;image;image=img/lib/ibm/infrastructure/load_balancing_routing.svg;rounded=1;strokeColor=#000000;strokeWidth=1;fillColor=none;gradientColor=none;rotation=-90;" parent="8ruMCxL2oFIT7Z4K_4vt-21" vertex="1">
          <mxGeometry x="300" y="90" width="40" height="40" as="geometry" />
        </mxCell>
        <mxCell id="9700RHBB0rG6s58wv9qI-26" value="" style="edgeStyle=orthogonalEdgeStyle;rounded=1;orthogonalLoop=1;jettySize=auto;html=1;fontSize=20;fontColor=#000000;entryX=0;entryY=0.5;entryDx=0;entryDy=0;entryPerimeter=0;" parent="8ruMCxL2oFIT7Z4K_4vt-21" source="9700RHBB0rG6s58wv9qI-15" target="9700RHBB0rG6s58wv9qI-24" edge="1">
          <mxGeometry relative="1" as="geometry" />
        </mxCell>
        <mxCell id="9700RHBB0rG6s58wv9qI-15" value="" style="sketch=0;pointerEvents=1;shadow=0;dashed=0;html=1;strokeColor=none;fillColor=#505050;labelPosition=center;verticalLabelPosition=bottom;verticalAlign=top;outlineConnect=0;align=center;shape=mxgraph.office.services.central_management_service;rounded=1;labelBackgroundColor=#FFFFFF;fontSize=20;" parent="8ruMCxL2oFIT7Z4K_4vt-21" vertex="1">
          <mxGeometry x="700" y="54" width="110" height="112" as="geometry" />
        </mxCell>
        <mxCell id="9700RHBB0rG6s58wv9qI-16" value="" style="aspect=fixed;perimeter=ellipsePerimeter;html=1;align=center;shadow=0;dashed=0;fontColor=#4277BB;labelBackgroundColor=#ffffff;fontSize=12;spacingTop=3;image;image=img/lib/ibm/infrastructure/load_balancing_routing.svg;rounded=1;strokeColor=#000000;strokeWidth=1;fillColor=none;gradientColor=none;rotation=90;" parent="8ruMCxL2oFIT7Z4K_4vt-21" vertex="1">
          <mxGeometry x="710" y="90" width="40" height="40" as="geometry" />
        </mxCell>
        <mxCell id="9700RHBB0rG6s58wv9qI-17" value="&lt;span style=&quot;color: rgb(0, 0, 0); font-family: Helvetica; font-size: 12px; font-style: normal; font-variant-ligatures: normal; font-variant-caps: normal; font-weight: 400; letter-spacing: normal; orphans: 2; text-indent: 0px; text-transform: none; widows: 2; word-spacing: 0px; -webkit-text-stroke-width: 0px; background-color: rgb(248, 249, 250); text-decoration-thickness: initial; text-decoration-style: initial; text-decoration-color: initial; float: none; display: inline !important;&quot;&gt;Load the results in to Import table (output)&lt;/span&gt;" style="text;whiteSpace=wrap;html=1;fontSize=20;fontColor=#FF3399;align=left;" parent="8ruMCxL2oFIT7Z4K_4vt-21" vertex="1">
          <mxGeometry x="630" y="160" width="230" height="60" as="geometry" />
        </mxCell>
        <mxCell id="9700RHBB0rG6s58wv9qI-21" style="edgeStyle=orthogonalEdgeStyle;rounded=1;orthogonalLoop=1;jettySize=auto;html=1;exitX=0.5;exitY=1;exitDx=0;exitDy=0;fontSize=20;fontColor=#000000;" parent="8ruMCxL2oFIT7Z4K_4vt-21" source="9700RHBB0rG6s58wv9qI-17" target="9700RHBB0rG6s58wv9qI-17" edge="1">
          <mxGeometry relative="1" as="geometry" />
        </mxCell>
        <mxCell id="9700RHBB0rG6s58wv9qI-31" value="" style="edgeStyle=orthogonalEdgeStyle;rounded=1;orthogonalLoop=1;jettySize=auto;html=1;fontSize=20;fontColor=#000000;entryX=0;entryY=0.25;entryDx=0;entryDy=0;" parent="8ruMCxL2oFIT7Z4K_4vt-21" source="9700RHBB0rG6s58wv9qI-22" target="9700RHBB0rG6s58wv9qI-38" edge="1">
          <mxGeometry relative="1" as="geometry">
            <mxPoint x="1110" y="80" as="targetPoint" />
          </mxGeometry>
        </mxCell>
        <mxCell id="9700RHBB0rG6s58wv9qI-22" value="&lt;span style=&quot;&quot;&gt;Output files - 4&amp;nbsp;&lt;/span&gt;" style="strokeWidth=2;html=1;shape=mxgraph.flowchart.document2;whiteSpace=wrap;size=0.25;rounded=1;fillColor=#dae8fc;strokeColor=#6c8ebf;" parent="8ruMCxL2oFIT7Z4K_4vt-21" vertex="1">
          <mxGeometry x="880" y="50" width="100" height="60" as="geometry" />
        </mxCell>
        <mxCell id="9700RHBB0rG6s58wv9qI-33" value="" style="edgeStyle=orthogonalEdgeStyle;rounded=1;orthogonalLoop=1;jettySize=auto;html=1;fontSize=20;fontColor=#000000;entryX=0;entryY=0.25;entryDx=0;entryDy=0;" parent="8ruMCxL2oFIT7Z4K_4vt-21" source="9700RHBB0rG6s58wv9qI-23" target="9700RHBB0rG6s58wv9qI-38" edge="1">
          <mxGeometry relative="1" as="geometry" />
        </mxCell>
        <mxCell id="9700RHBB0rG6s58wv9qI-23" value="Output files - 3" style="strokeWidth=2;html=1;shape=mxgraph.flowchart.document2;whiteSpace=wrap;size=0.25;rounded=1;fillColor=#dae8fc;strokeColor=#6c8ebf;" parent="8ruMCxL2oFIT7Z4K_4vt-21" vertex="1">
          <mxGeometry x="880" y="120" width="100" height="60" as="geometry" />
        </mxCell>
        <mxCell id="9700RHBB0rG6s58wv9qI-35" value="" style="edgeStyle=orthogonalEdgeStyle;rounded=1;orthogonalLoop=1;jettySize=auto;html=1;fontSize=20;fontColor=#000000;entryX=0;entryY=0.5;entryDx=0;entryDy=0;" parent="8ruMCxL2oFIT7Z4K_4vt-21" source="9700RHBB0rG6s58wv9qI-24" target="9700RHBB0rG6s58wv9qI-38" edge="1">
          <mxGeometry relative="1" as="geometry" />
        </mxCell>
        <mxCell id="9700RHBB0rG6s58wv9qI-24" value="Output files - 2" style="strokeWidth=2;html=1;shape=mxgraph.flowchart.document2;whiteSpace=wrap;size=0.25;rounded=1;fillColor=#dae8fc;strokeColor=#6c8ebf;" parent="8ruMCxL2oFIT7Z4K_4vt-21" vertex="1">
          <mxGeometry x="880" y="190" width="100" height="60" as="geometry" />
        </mxCell>
        <mxCell id="9700RHBB0rG6s58wv9qI-37" value="" style="edgeStyle=orthogonalEdgeStyle;rounded=1;orthogonalLoop=1;jettySize=auto;html=1;fontSize=20;fontColor=#000000;entryX=0;entryY=0.75;entryDx=0;entryDy=0;" parent="8ruMCxL2oFIT7Z4K_4vt-21" source="9700RHBB0rG6s58wv9qI-25" target="9700RHBB0rG6s58wv9qI-38" edge="1">
          <mxGeometry relative="1" as="geometry" />
        </mxCell>
        <mxCell id="9700RHBB0rG6s58wv9qI-25" value="Output files - 1" style="strokeWidth=2;html=1;shape=mxgraph.flowchart.document2;whiteSpace=wrap;size=0.25;rounded=1;fillColor=#dae8fc;strokeColor=#6c8ebf;" parent="8ruMCxL2oFIT7Z4K_4vt-21" vertex="1">
          <mxGeometry x="880" y="260" width="100" height="60" as="geometry" />
        </mxCell>
        <mxCell id="9700RHBB0rG6s58wv9qI-28" value="" style="edgeStyle=orthogonalEdgeStyle;rounded=1;orthogonalLoop=1;jettySize=auto;html=1;fontSize=20;fontColor=#000000;entryX=0;entryY=0.5;entryDx=0;entryDy=0;entryPerimeter=0;" parent="8ruMCxL2oFIT7Z4K_4vt-21" source="9700RHBB0rG6s58wv9qI-15" target="9700RHBB0rG6s58wv9qI-23" edge="1">
          <mxGeometry relative="1" as="geometry">
            <mxPoint x="820" y="120" as="sourcePoint" />
            <mxPoint x="890" y="230" as="targetPoint" />
          </mxGeometry>
        </mxCell>
        <mxCell id="9700RHBB0rG6s58wv9qI-29" value="" style="edgeStyle=orthogonalEdgeStyle;rounded=1;orthogonalLoop=1;jettySize=auto;html=1;fontSize=20;fontColor=#000000;entryX=0;entryY=0.5;entryDx=0;entryDy=0;entryPerimeter=0;" parent="8ruMCxL2oFIT7Z4K_4vt-21" source="9700RHBB0rG6s58wv9qI-15" target="9700RHBB0rG6s58wv9qI-25" edge="1">
          <mxGeometry relative="1" as="geometry">
            <mxPoint x="820" y="120" as="sourcePoint" />
            <mxPoint x="890" y="160" as="targetPoint" />
          </mxGeometry>
        </mxCell>
        <mxCell id="8ruMCxL2oFIT7Z4K_4vt-55" value="" style="html=1;verticalLabelPosition=bottom;align=center;labelBackgroundColor=#ffffff;verticalAlign=top;strokeWidth=2;strokeColor=#0080F0;shadow=0;dashed=0;shape=mxgraph.ios7.icons.mail;rounded=1;fillColor=#CAEBFC;" parent="8ruMCxL2oFIT7Z4K_4vt-21" vertex="1">
          <mxGeometry x="1175" y="90" width="100" height="60" as="geometry" />
        </mxCell>
        <mxCell id="9700RHBB0rG6s58wv9qI-38" value="" style="whiteSpace=wrap;html=1;aspect=fixed;rounded=1;shadow=0;dashed=1;labelBackgroundColor=#FFFFFF;fontSize=20;fontColor=#000000;strokeColor=#000000;strokeWidth=1;fillColor=none;gradientColor=none;" parent="8ruMCxL2oFIT7Z4K_4vt-21" vertex="1">
          <mxGeometry x="1100" y="60" width="257" height="257" as="geometry" />
        </mxCell>
        <mxCell id="9700RHBB0rG6s58wv9qI-9" value="&lt;font style=&quot;font-size: 13px;&quot;&gt;Request Item&lt;/font&gt;" style="shape=image;html=1;verticalAlign=top;verticalLabelPosition=bottom;labelBackgroundColor=#ffffff;imageAspect=0;aspect=fixed;image=https://cdn1.iconfinder.com/data/icons/files-94/32/Attachment-128.png;rounded=1;shadow=0;dashed=1;fontSize=20;strokeColor=#000000;strokeWidth=1;fillColor=none;gradientColor=none;" parent="8ruMCxL2oFIT7Z4K_4vt-21" vertex="1">
          <mxGeometry x="1161" y="156" width="128" height="128" as="geometry" />
        </mxCell>
        <mxCell id="8ruMCxL2oFIT7Z4K_4vt-31" value="Attach the output via Email&amp;nbsp; &amp;amp; RITM" style="text;html=1;strokeColor=none;fillColor=none;align=center;verticalAlign=middle;whiteSpace=wrap;rounded=1;dashed=1;" parent="8ruMCxL2oFIT7Z4K_4vt-21" vertex="1">
          <mxGeometry x="1115" y="56.8" width="230" height="30" as="geometry" />
        </mxCell>
        <mxCell id="8ruMCxL2oFIT7Z4K_4vt-30" style="edgeStyle=orthogonalEdgeStyle;rounded=1;orthogonalLoop=1;jettySize=auto;html=1;entryX=0;entryY=0.5;entryDx=0;entryDy=0;entryPerimeter=0;" parent="1" source="8ruMCxL2oFIT7Z4K_4vt-29" target="8ruMCxL2oFIT7Z4K_4vt-1" edge="1">
          <mxGeometry relative="1" as="geometry">
            <Array as="points">
              <mxPoint x="580" y="650" />
              <mxPoint x="1170" y="650" />
              <mxPoint x="1170" y="710" />
            </Array>
          </mxGeometry>
        </mxCell>
        <mxCell id="8ruMCxL2oFIT7Z4K_4vt-29" value="Catalog&amp;nbsp;" style="rounded=1;whiteSpace=wrap;html=1;dashed=1;strokeWidth=2;fillColor=#f0a30a;strokeColor=#BD7000;fontColor=#000000;" parent="1" vertex="1">
          <mxGeometry x="520" y="680" width="120" height="60" as="geometry" />
        </mxCell>
        <mxCell id="8ruMCxL2oFIT7Z4K_4vt-33" style="edgeStyle=orthogonalEdgeStyle;rounded=1;orthogonalLoop=1;jettySize=auto;html=1;entryX=0;entryY=0.5;entryDx=0;entryDy=0;entryPerimeter=0;" parent="1" source="8ruMCxL2oFIT7Z4K_4vt-32" edge="1" target="8ruMCxL2oFIT7Z4K_4vt-2">
          <mxGeometry relative="1" as="geometry">
            <mxPoint x="990" y="410" as="targetPoint" />
          </mxGeometry>
        </mxCell>
        <mxCell id="8ruMCxL2oFIT7Z4K_4vt-32" value="Files from Mid Server" style="rounded=1;whiteSpace=wrap;html=1;dashed=1;strokeWidth=2;fillColor=#e1d5e7;strokeColor=#9673a6;" parent="1" vertex="1">
          <mxGeometry x="930" y="680" width="120" height="60" as="geometry" />
        </mxCell>
        <mxCell id="8ruMCxL2oFIT7Z4K_4vt-35" style="edgeStyle=orthogonalEdgeStyle;rounded=1;orthogonalLoop=1;jettySize=auto;html=1;exitX=0.5;exitY=0;exitDx=0;exitDy=0;entryX=0;entryY=0.5;entryDx=0;entryDy=0;entryPerimeter=0;" parent="1" source="8ruMCxL2oFIT7Z4K_4vt-34" edge="1" target="8ruMCxL2oFIT7Z4K_4vt-3">
          <mxGeometry relative="1" as="geometry">
            <mxPoint x="960" y="410" as="targetPoint" />
            <Array as="points">
              <mxPoint x="770" y="660" />
              <mxPoint x="1120" y="660" />
              <mxPoint x="1120" y="850" />
            </Array>
          </mxGeometry>
        </mxCell>
        <mxCell id="8ruMCxL2oFIT7Z4K_4vt-34" value="&lt;b&gt;API - &lt;/b&gt;Write scripts to fetch the files from source systems using API" style="rounded=1;whiteSpace=wrap;html=1;dashed=1;strokeWidth=2;fillColor=#dae8fc;strokeColor=#6c8ebf;" parent="1" vertex="1">
          <mxGeometry x="710" y="680" width="120" height="60" as="geometry" />
        </mxCell>
        <mxCell id="8ruMCxL2oFIT7Z4K_4vt-57" value="&lt;h1&gt;&lt;u&gt;Input Channel&lt;/u&gt;&lt;/h1&gt;&lt;p&gt;Inputs from the various channel in a standard file format contains the Operational configuration items managed by ICS or by other teams&lt;/p&gt;&lt;p&gt;&lt;b&gt;Catalog &lt;/b&gt;- Sources files are loaded manually using Catalog in a standard field format, which contains the operational configuration items managed by ICS or by other teams&lt;/p&gt;&lt;p&gt;&lt;b&gt;API&lt;/b&gt;- Sources files are loaded&amp;nbsp; through API call in a standard file format, and contain the operational configuration items managed by ICS or by other teams&amp;nbsp;&lt;br&gt;&lt;/p&gt;&lt;p&gt;&lt;/p&gt;&lt;b&gt;Mid Server&lt;/b&gt; - Sources files are loaded&amp;nbsp; through Mid server path in a standard file format, and contain the operational configuration items managed by ICS or by other teams&amp;nbsp;&lt;p&gt;&amp;nbsp;&lt;/p&gt;" style="text;html=1;strokeColor=none;fillColor=none;spacing=5;spacingTop=-20;whiteSpace=wrap;overflow=hidden;rounded=0;" parent="1" vertex="1">
          <mxGeometry x="490" y="760" width="600" height="220" as="geometry" />
        </mxCell>
        <mxCell id="8ruMCxL2oFIT7Z4K_4vt-58" value="" style="verticalLabelPosition=bottom;html=1;verticalAlign=top;align=center;strokeColor=none;fillColor=#B266FF;shape=mxgraph.azure.user;rounded=1;labelBackgroundColor=#3369FF;fontSize=20;" parent="1" vertex="1">
          <mxGeometry x="510" y="660" width="27.5" height="30" as="geometry" />
        </mxCell>
        <mxCell id="8ruMCxL2oFIT7Z4K_4vt-61" value="" style="verticalLabelPosition=bottom;html=1;fillColor=#9933FF;strokeColor=#ffffff;verticalAlign=top;align=center;points=[[0,0.5,0],[0.125,0.25,0],[0.25,0,0],[0.5,0,0],[0.75,0,0],[0.875,0.25,0],[1,0.5,0],[0.875,0.75,0],[0.75,1,0],[0.5,1,0],[0.125,0.75,0]];pointerEvents=1;shape=mxgraph.cisco_safe.compositeIcon;bgIcon=mxgraph.cisco_safe.design.blank_device;resIcon=mxgraph.cisco_safe.design.automated_system;rounded=1;labelBackgroundColor=#3369FF;fontSize=20;" parent="1" vertex="1">
          <mxGeometry x="690" y="664" width="30" height="30" as="geometry" />
        </mxCell>
        <mxCell id="rPt5hNIXEh5W6GZC_jST-2" value="" style="shape=image;verticalLabelPosition=bottom;labelBackgroundColor=default;verticalAlign=top;aspect=fixed;imageAspect=0;image=data:image/png,iVBORw0KGgoAAAANSUhEUgAABa0AAAD6CAYAAACic2tOAAAAAXNSR0IArs4c6QAAAARnQU1BAACxjwv8YQUAAAAJcEhZcwAAFxEAABcRAcom8z8AALtHSURBVHhe7J0HXFRX9scvYEnvyszQ7EZNN32T2GKlajRuejZ1ky3ZbLLRVDbJ/hMbAjMDiBpNTEwE7DHIFBiwRRNTBaeAGgsgyhQQS4xy/+fceQPDMANDU9Tz/XzO571377nllRmG35w5lxEEQRAEQRAEQRAEQRAEQRAEQRAEQRAEQRAEQRAEQRAEQRAEQRAEQRAEQRAEQRAEQRAEQRAEQRAEQRAEQRAEQRAEQRAEQRAEQRAEQRAEQRAEQRAEQRAEQRAEQRAEQRAEQRAEQRAEQRAEQRAEQRAEQRAEQRAEQRAEQRAEQRAEQRAEQRAEQRAEQRAEQRAEQRAEQRAEQRAEQRAEQRAEQRAEQRAEQRAEQRAEQRAEQRAEQRAEQRAEQRAEQRAEQRAEQRAEQRAEQRAEQRAEQRAEQRAEQRAEQRAEQRAEQRAEQRAEQRAEQRAEQRAEQRAEQRAEQRAEQRAEQRAEQRAEQRAEQRAEQRAEQRAEQRAEQRAEQRAEQRAEQRAEQRAEQRAEQRAEQRAEQRAEQRAEQRAEQRAEQRAEQRAEQRAEQRAEQRAEQRAEQRAEQRAEQRAEQRAEQRAEQRAEQRAEQRAEQRAEQRAEQRAEQRAEQRAEQRAEQRAEQRAEQRAEQRAEQRAEQRAEQRAEQRAEQRAEQRAEQRAEQRAEQRAEQRAEQRAEQRAEQRAEQRAEQRAEQRAEQRAEQRAEQRAEQRAEQRAEQRAEQRAEQRAEQRAEQRAEQRAEQRAEQRAEQRAEQRAEQRAEQRAEQRAEQRAEQRAEQRAEQRAEQRAEQRAEQRAEQRAEQRAEQRAEQRAEQRAEQRAEQRAEQRAEQRAEQRAEQRAEQRAEQRAEQRAEQRAEQRAEQRAEQRAEQRAEQRAEQRAEQRAEQRAEQRAEQRAEQRAEQRAEQRAEQRAEQRAEQRAEQRAEQRAEQRAEQRAEQRAEQRAEQRAEQRAEQRAEQRAEQRAEQRAEQRAEQRAEQRAEQRAEQRAEQRAEQRAEQRAEQRAEQRAEQRAEQRAEQRAEQRAEQRAEQRAEQRAEQRAEQRAEQRAEQRAEQRAEQRAEQRAEQRAEQRAEQRAEQRAEQRAEQRAEQRAEQRAEQRAEQRAEQRAEQRAEQRAEQRAEQRAEQRAEQRAEQRAEQRAEQRAEQRAEQRAEQRAEQRAEQRAEQRAEQRAEQRAEQRAEQRAEQRAEQRAEQRAEQRAEQRAEQRAEQRAEQRAEQRAEQRAEQRAEQRAEQRAEQRAEQRAEQRAEQRAEQRAEQRAEQRAEQRAEQRAEQRAEQRAEQRAEQRAEQRAEQRAEQRAEQRAEQRAEQRAEQRAEQRAEQRAEQRAEQRAEQRAEQRAEQRAEQRAEQRAEQRAEQRAEQRAEQRAEQRAEQRAEQRAEQRAEQRAEQRAEQRAEQRAEQRAEQRAEQRAEQRAEQRAEQRAEQRAEQRAEQRAEQRAEQRAEQRAEQRAEQRAEQRAEQRAEQRAEQRAEQRAEQRAEQRAEQRAEQRAEQRAEQRAEQRAEQRAEQRAEQRAEQRAEQRAEQRAEQRAEQRAEQRAEQRAEQRAEQRAEQRAEQRAEQRAEQRAEQRAEQRAEQRAEQRAEQRAEQRAEQRAEQRAEQRAEQRAEQRAEQRAEQRAEQRAEQRAEQRAEQRAEQRAEQRAEQRAEQRAEQRAEQRAEQRAEQRAEQRAEQRAEQRAEQRAEQRAEQRAEQRAEQRAEQRAEQRAEQRAEQRAEQRAEQRAEQRAEQRAEQRAEQfjD1q1XMINxONtQ+G+WX/QKy9/hYd7K2tcu31j0yrVbjP+5ZuPOJwcXFnaTZuaTabm9bp6eF/HvN/QR/3ozv88rH22+458zNv/pfTTcx7Jpeb3a3/S9XnkDxp2mj3g63jDgOmk6BEEQBEEQBEEQBEEQBEEQRJvI3noFy/t1GCsoeoflF21kBYV2trWEs80WyUycbTGDWXhAB5lznGKxHwhjX/prOb9q085F/bIt3aVZemW6bsAd0/LCze9u7c3f3ojWi7+7sR//8PuBwnAfy5x17WdvufX5Zn4vPi2317dv6MPfeFPf7/EPC24Pk6ZHEARBEARBEARBEARBEARB+I1u+5VdCopeD9q4c1NAfqGDbd3F2bY9nG02c7ZxJ5iRsw1gBbjF4w407L8AbJOJd/9hL++5yfgV21J4jTRTr7yff88db+X1try3tTefnh8B1ksIyLg/Lc9puO8saz9zjTHdAH0b8DiCv70ZBWzYz+3N/5s/yPzf/BtV8dujLpGmShDnFTwzMyh9+64rDXv2XCQVEQRBEARBEARBEARBEETb6KL/5f6AgsKvA7aW8MDvnEJ1wCaTiHZ2ite7ecC2XbwL1HX5Hgy3wna3uwWBdYUxuv14gF/1aym/7fuSpfGWyiukqXojIHnrhNgPt9xc9n8/9+fxW/vy+G9h+22/M2TOsd77ti9/d0sv/s7m3vytDfVi9ntb+vD4Lf35uwXXZ7yrG3CHNGeCOOd5dcu+a54wlN0+QVP+z/u+Ll89Ofu3xzhnAVI1QRAEQRAEQRAEQRAEQbSS3F8f7rLJVBnw3W/OKOeCQpH6Q+wbig4xQ+EKlr9jcVBe4ZJu+YVLLt7065IuGwuXdCnYuSRIWGG72sXQZ79tls9u2b5bP/rn35Z+XlnblGDN0rcP7ar6Lm5O8vfj1v234ObP3szrs+St/P5L3srrtwT3O9pwnHek8d7IDV88TR+x5g19hO2t/F78rQ0Y4R3O38zrxTEC/M383qXTNL2jpakTxDmFxWLp/s/8/f3H5BwcPU576O0b1xw0yLIOV3TPcJy69uvj/M/rir/gFZmXSe4EQRAEQRAEQRAEQRAE0Qpyix5mG412tm0XZ/mFIh1HwHd7eFBBURUrKHyTGQpvYZk8SPLutHDOO010Z3zm4G7/0YbdPl3f+8O3C/rVvPstitURfFpub/7O5l78LUPvqrfz+qniDRFXSU0IotOSud125atb9t0Ypy195O7VpXOGrDqYr1heWXFlZuXpLiuOcrb8BNhxfsXqGj71a+Mq/uu6q6WmBEEQBEEQBEEQBEEQBNFC8nZMZRuNztzVKFh/W8IDC4pOBBUUfdaloOgByYtoA+/m9xs9Pa93xvS8iFNvb4jg0/UR/J2Nvfj73/Xj07S9Z0puBNGpWHmg6toPNh+4daqm/Omha8oW9Vte/oNieWX55Vl23nX5Ec6WH+Msq4azzGowOM6s4VetOsKnrtlJojVBEARBEARBEARBEATROroV7HgoaLPRwbaV8ID8HZx9u4sHbdx5IrDg1xclF6KdmJLJgqbn9nr9nYK+p97Z2Ie/kRvO38JFGvN6Hf6PrneU5EYQZw2+fXvXt74/JI9cf/DBB3MO/eu2tQdXhGQd2ndlpq2mW1Y1D1zhjKYWQnXWEbBq51aI1rhfw69afYRPXU2iNUEQBEEQBEEQBEEQBNEadDuv7V5Q9HPg9r2Ys5qzTWYesNFYwwyFz0seRAfwZl7/197K733q7Y0RfJq+F3/321787bw+B+INA66XXAjijLG9tPSS6d8d7BOZvW/i7V9XfNhvVcXqnisq916RaeVdV9RwtvJ3zlagUO0mTqNlSMdCuJbKXKI1RVoTBEEQBEEQBEEQBEEQrSEwv+ifgZvMnG3YCWbkXbf/xi/K/zVeqiY6kGn6iNfeyu916u0Nvfl0QwR/K783fy+v/1NSNUF0KJzzbq9v2H/TVG3pow9kl6kGryzfLMs8XHZZlv10lxXHnNHUmUfrBerMKqdlwD6aEK1dde5G6UEIgiAIgiAIgiAIgiCI1lJQeGdQQeFh9q2Zs/wiHrB1F+9WUJh36be7giUPooN5Q9vr9en5vf7AxRlxYcZp+t75r6yiRRmJjiG71tJ96vrS+6PW7//nfd8cXNh/5cGi6zKtVZdl2njXlShUY35qFKo9IqpbZCRaEwRBEARBEARBEARBEK3kooKi1wNx4cUNRSKPdUBBkfGizUURUjVxBkjfPrTrdH3vde9s7o15rfnbm3rz6bkRM6RqgmgTtbW13f/93YEwdWHFZXgctf7gPRErK3++Lsv6xyUrjvDAlcc5wxzVWcd424RqdyPRmiAIgiAIgiAIgiAIgmgN2dnduxXs0Ad+t1ukBQnYbOYXFRT9R6r1n492Xsvmmv7EkovvZcnGc8vmgM0tup8lWwZLZ3NWeCO31/NvbezD3zT04u9tgW1en+9ezRl8jVRNEC3mwwJT76nr98beu+7gRzeuPpjzZ/3BiVh+44rKyV0yHLVs5UkpotolNKNg7Uu0bmk5idYEQRAEQRAEQRAEQRBEazAU3sfyd1jZZgtnG428+xYz77nJFCvVNs/cX28PSrbMCkgybQ5ILq4OSDJXnWvGkorBSo6wRPNeNtfyZVelafYlqp23SWd4xnhDGzFoem6vPW9t6MXfLOjFp+f1+n26LmKcVE0QTcI5D1y7vfSSJ3QHbh3/Tfnf7/q6PK3PikNbr8my2i9eXsWvWXOUP7rOnIi+N2QcnNglw/E7w5zVnvmp28toIUaCIAiCIAiCIAiCIAiiVRQUPs02mTjbuJOzLWZ++UZj/tXbd4VLtU2TaHwmULWrInBeKWdp+zhT7+EBKb+B7T2LBuO3cB4s9TeYO2yhDUsr5V3SD/DuKSUHA5NMj0tnekZ4NSP04mn68C3vbunDp+f35m/oI06/kdc7UqomiEZwXtgtYcu+kBcKyh548Juy1+5YU7ao78pD3wdnHfr9ilXHeCBGUi//XSymePnqGv78mp+/wHaDsg7HOkVrXGSxuv0Fa2EUaU0QBEEQBEEQBEEQBEG0hk2Fj7GCIiFYs/wdp7sZfo2Tapom0fw0U+2qCZh3gLPkYs6UJZLwu0ey386CSeMuOMQZCulqf+axR4jcdfPGc0m2cDyvQFVJddczKFxPyWRBb+b1nvXOZhSte/G3NvTm0/S9EuINw7pILgQhWLHzN/kz2pLI0d+UvXvj6opVvVceLL46s7Lm4sxqHli3iGINZxlS6o6sGn7FqiP8pTW/ZnGe3nXgisMx9ZHWksic5TJog1tXeZ35SgMC1sC/fkyKtCYIgiAIgiAIgiAIgiBazoYdf3aK1hbOCgr/YPlFE6QanwQlGmMCVbtrWOo+zpJMPCBlNw9KL+UBiRYdSzL/nSWa/8mSLK+ccVPCuErLq7D/EUs2vw32j0Y+jcz4Cs43EHy7qcx5gekHOFMWi/PCCPKL1ZZ9l6t2DZBOvcP5T26vgW/ow/e8vakXf+fbPvwNfe+C1zTBl0rVxAVKtsXS/cOCA2Hjc8qn3rrm4Oz+Kw/mhGZVHLp8WSUPQpEZI6ZdQrVLOHaJ0JKAjKL1y6t/WVFbm9x94CpbdCPR2tXO676H4Zh1x778MNK6hkRrgiAIgiAIgiAIgiAIogWkb+/K8gtT2dZiLlKE5KNovSNaqvVO+q4rA5MtuQHpZZwlmUU0c6DKYg9Smf/LZv/cU/I6J7lu3m/ybmqLrsv8Mh6QXCIirgPT9vAuStOrkkuH849s1v2NvF65727pzd/d0otPy43Qvaa5iUTrC5Bki6X7U4bS60dkl71w4+qDC3uvOLy5Z1ZlzcVrT/KA1ackobpGEpBdVs0DMqok0djN/Bat29Eo0pogCIIgCOKcIsLAL+qRU9FPoau6VioiCIIgCII4C2RvvYIZCr9j23aLRRhZ/o7mReu55j6ByeZSkQtaVYIpNP5gc40vSLXnPnN3yi9JLdYGudKeYK7uJNM6NtN4ueTRoWBU9bTciPx36kTrMB1FWl+YvKQtG3Tj6oNrr8myHblk+REetOo4Z5j6wz3tR525ida4sGKDOrCzIVpTTmuCIAiCIIjOA+cBwqR9uc4WLtNYxwdrrZEynXWcTF81Xq6x/k+uqyoI0dnelG/nlwhfgiAIgiCIMw6K1vmFm9m2XZxtMnJWgKL1z02K1oHJpoeDVMVHmWo3D0jdxwMTTVqWsO9iqfq8oMfiPbJuquJNLGWfWKQxING4n6Wa+0jVHQqJ1oSLqfmH7u+xwrqXYVR1Jqb+kMRgFKw9Reu6NCAoWEuitSs9iLBmRGtXe09r0IdU5s281WGkNYrWq0m0JgiCIAiCOFOE5jiukWWX9ZAbSq9T6A5cG5Jju1mmsb8q09nekWttb8l1jum4lensa2RaxwGZ1lYG9QfQ5Br7ScWmU1ymsS6NWGW/SuqSIAiCIAjiDNNAtDb5JVoHJVlmB83bL6KQAzAKOdk4U6o6rwiYa0lgaXCeqb9hGpTdTGnqLVV1KCRaEy5QtL52la2ErTwhCcGe0dUtsI6MtPYpZlOkNUEQBEEQREcRuqX2YkX2oVuD9Y47ZQbH7XLN4aFyrfURuca+RK6xrZDrbJlyrX2ZTGP/VqZzHJdrbaeg/I86y63mivxjXJF3lCsMYLCV59aAHeHQ7tM+OtuV0lAEQRAEQRBnmEaR1s3ntA5ILv44KA1TZ5RwlrqXs7nGBKnq/CLRpBSpQcRikxYSrYkzTvOiNR57M3cfySg9CEEQBEEQxDnB4MzCbvK1pZeEbtl3ccTiPRfJDdXXyXMOx8lzrM8rdPZnFFr7XxQ621OyHNssmdbxo1xn3ynX2gvBdsi09nK5JEAr8mqEydFQiM6tlgz3wXQOFKcbmq7KWUeiNUEQBEEQZxVnTuvNbKsz0jrAX9Ea8z0ri52C7lzz+SlaJ6FojZHWeynSmjgrNBatPcw9wrmp1B1oKFqvJtGaIAiCIAiiMxGSvT80RFvVPzSnol+4xt47OMdxp1xj/69cZ0uTa+1qhdaeLNPav4L9MrnOXgPbasmqZBr7H4r8484oacMxp6FAjWK0p3mK076MRGuCIAiCIDoFbpHWAZvMPKCgyA/R2vyxSA+iLHEuUni+itYi0loSrefu3EOiNXGmaVa0bolRpDVBEARBEMSZIz4+UNoTBGvKL5VpbA/0XH84Rix8mGMdh1HTMo19tUxn3yTX2gvkWptBprX/LNJ4YES0vkqyaiFMi9QdrshpNChvIDi3h5FoTRAEQRBEp6CRaL2zWdG6u8pDtE46T9ODJJnS2aJKzhYe5izRdJAlW/pKNR0KidaEiwaitdeFDr1YXZ1HupDlR/2MtAZ/b/15mujfS1nduHhcw6+CMUm0JgiCIAjifAXF6ODNR3rKNlSLhQ9DsitDZdrDT8h1jjdD84/cKLmxcL39NjkK07nVB2U6e6lY+FBrs4koacwrXRcpfdQpRtcJ1mAoJHsTmDvCSLQmCIIgCKJTQKK1b1TFU5iyeBFLKv6EzbX8jyUUXiPVdCgkWhMu6kTrVShaexGJhTDspUyYm78QoFsQad1ItJaEaF9jucobtTnKr1pVQ6I1QRAEQRDnBT1yHX17GqruDtZU3oULHwbn2EfINbbZMp1jlVj4UGvLCtbYvpFpbHa51n5Enmt/XmrKFDrrPTKtvThk4x/OfNMictpHXumzaSRaEwRBEATRKSDRutNBojXh4pxPD3IWI605jw8cu/43eb9sS3epiCAIgiAIwiu46KFY+DBj38UYOR2qd9wp11qfk2vtz8n19mcV+qqne+ptr8g0Nq1M5zBCeRFYoUxjt8i1ttOuXNJ1ix4WnOAynf2YTG99URqChWgr75Zr7DuFWO1NLO4sRqI1QRAEQRCdAhKtOx0kWhMuGorWUrSzN3EYzVcktsuaFa2bae+XefaBOa2bjrSO384vecVgv4pxHoDHi/fsuehlQ8VlLNlyBYs3dBFOrWDA4j3X9/9i9/N3ZO6RSUUEQRAEQVzgoAir0FUNUHxzaAAufCjPOXw95pWWa2xpwrR2NW5lWtuPcl3VETg+IteAae3VMq39KArSzlQeroUPMZUHpu/wWPTQKfoekeusL0hDk2hNEARBEATRIki07nSQaE24aBxp3ZRo7aXM3TpppHWPT3bffNfyvS/MNNZejseKz8wP3pKx59Hu84wjWOJPVwmnVtAlxTLs2oXFIyLX7b2aGXirxW+CIM59ajNCr+HrwvvwpT39t+XhfWo/v04udUEQxLkG5wGy7MrBCq0tRrH+cEzIemukPMcep9BYVTK9Y5NMa0fbINPaNoNZ6xY1lHJJ10VMo3iL5trX+pnKo5OI1j01TnMd94B9OG+xH+xRV2ckWhMEQRAE0SnojKJ1PA9k6du7slk7+rJky2Q21ziZJRgfqrMkS+cznBfOM3HnJKYyKuAcurD4wm7SGbUIEq0JF61PD+Iubkv7/kRaNyd8t9gw0rpp0fqS+YW3dE01zhiyqDgMj6+eb/lrr093vzB4QeE14r1g8Z6L2MLDl4tIbHxNxcNxsqU7S93r7A+jsdEXyYT69F1XCt8U44hL5xcNuWdF2R2D1+zrx6VIboIgLjz4l4oZPDuU82UK/21tKK9dKi+QuiAI4hwDU30oNI4Zcp2jXJjWVgaG29OKguNSpLRbXmn3RQ/R/BWnfVkHidYoNLtEZ9exe7279dTY+JD8KmG4j2W3b6jmYTpn3YA8B7+loL6uzki0JgiCIAiiU9CZRGulqTdLNj3BEs0ZLMmcw5ItO8FqWZIJzHIayk6zZDTY73QG88J5Orc/sbnG7IAksyYwyfLGxWk/hUhn6BckWhMumhWtWyIyd0iktZfIb/c5YaQ1pgdZ7Vu0vnSe8cYr5pniH/x6f//UXx1XD12298VBn5VM6PnJ3j5spvFypjI+xFIsf2Up5kGw/1ew4SzFFMfU5tdYWkl/lrxzGFOZX2Bp5hCmLpoA9a+wZONQpjS/1f/LXe8PXro78f41e/9Vyvkl0pAEQVxgkGhNEBcemJdapqlcoMg/wRX5x50LH2K0NAqy7gJtR1k7idYYGe3aR7G6T65DiM64HwLbvnBcVw++4XoH/9OmalGPgnY/qEdziduDDVWiHR73Bt+BefV1dUaiNUEQBEEQnYLOIlonGG8MUhX/GJDyG2ep0HfaAdju5UwFYyh3OcdSwbYzm7IYtjBP1/zBAlL28O4pu3Z0T7Y8I51ps5BoTbg4LxZibCbSmqWZb741c++LTxkqbon4bM+g2zP3/eWhnAP3BqWWjGRK881MZXmUpRrHMlXxWDhOYGrTfUwNryelaSpLMUYztfFpllJ8L1MZb2fKnY+IcrUpFnyfvyVz95P3LN/7QuTXB2K2c95VGpEgiAuM2i8VH/N1oZx/qfDfVgvR2iB1QRDEOQaK1iJHtZTuo4EoeyaslaK1exR1CBhGQiukYxSw79hYxfvnOcR+hN7B70aB2k10Rt9wXf0xCtLuorR7OhAcq9OmB+E8EO+hywZn8lb9gtVv4j3Ha90vZokLh37Ztd1dzwv+skMqPnNk8iD3Z5YZWr8WEEEQROelM4jWSbtuYsriXwLmlUsCtcXZrxB+cSsZjimJwZ3TXHOGeabAflIxZ8kWHjCvlHdV7ToZqDTXrR7eFCRaEy46jWjd6rQhfqQHmbfztpDFJZE3f7V/ePSa/XdPzSmf+px2/91dMIJabX6ApZjuEI5JO29g6pIJLN10PUsquUGkAVEXj4P6l0WqkFSoTy26VewrzfdD2wlXLdwd8Vh25eB7Vx9WiD4IgrggaSRaLwXLCOF8hZtlgZFoTRDnDUJIOsdEa4yAxijqumMwd9EaDQVod2Hbm+jsXt8qO9uiNecBcr1jNIyfItPb02UaxwKFzvHyNdmVV0ge7QuOl1czFu5NqnM82wKF3vHXHgZ+meRBEA1QbKu6VqGx/0emsy2A11u6PMeaosixRbHMzCDJpWOBcUK0jikyTeV8HB+e2flyrfXRwYX0ZQtBEOcbZ1u0Trb0CEiybGPzD3KWbJZEa+g32bKVJZk1LNGsZ4lGyWA/Gc3S+UzMDbdoJg2mCAnESHH1Hg51QswOSjaXsuTCwdKZ+4REa8JFnWi96nfuTMXhae4CsVt5ltu+MKjPOsqvWFXjRbQ+3tCvNeZT1PZDtE41Du2iNj8wYMmecX9eXx45c7vt/oe/Kf1TF3XRA/CaGsbmGW8XjnPNfZhq5z0M/Fnanl5MXXgZU5r+xNSmh1mK+UlnmpCdA1hmxWUsseguqIvrMc/S9+Ec283351hFvmyCIC5MGonWyxQoSFvBTGDm2i/F9gD/ikRrgjhfONdEaxSfBxoc/M6N1byHW45p9/QgZ8w6gWgt09jegftXKzcc44qCE1ymtWkUBR30eQ6junPt/xXnjuPln4BrYP8mTEtBD4R3FLlVA2U6+7eKjSfh/aVaPKNyrW2LTF/Z7P/67UFPnaOPTGvXKvKPwTN7FMY/jq+RhT0M8H8QQRDEecVZF61Nf2Mpe3hAcgkPUBXzoHl7eUCSMVVES+JiawlbLj7nDBeLUxkV3dSm9CBVcZVIHZIE1zZtPw9UmteKPL1NQKI14aJFkdbNRUN3VHoQHNc1tth3F7/9EK0XlAy9ONVyt3zxnrjL0izPvrahbPCjmrIHhGidaBzOVCX1ojWK1HN/vZ0lFfVnavhQBu3gfaIHU+2MYvhLhsQdg+D1dxlTFt6JKUKuSyvpj6L1sOzKUNEHQRAXJI1Ea9iv/VL+P85ZAI9ngbit/TIkkq8K4XXCNYnWBHFO05GiNUYyu0czN8oJjdaKSOu2ml/z8sc6g2ittb2Ni2bWCXIaW06IoYM+z3EeKNPb4mG8WjFe/nEOz8434esPySUPgmjAtZsOXy7Psc2F95dT8twa8czAa2+/XOsYK7l0KHKd4zF4fVa58vXD68WqWG9/GlOGSC4EQRDnCWdTtFYXylhS8Y8ipQb2JcRr0zwhVp8ndFEaXwxUFp8S55e6jwckmUrY3J1NfgAi0Zpw0elzWqNALcxLuYjcPtqsaH3xgl13XrmgZGjEp3smBqrN/3x9U0XfJ3P2jwhKNY1kycZ74f1gDEso7AfbW1mq+X6GC7aqMMd1yY1snmkcmwevpxTTTSJNiBLaqIxQXjKKqU3jLl9U0v/6z/fc3XtRyY0c/gGShiQI4gLDh2j9vlQtqF0aOpZEa4I4f2iNaI3Rzu5CLwrAnuk3sKyX3iHySbsEYlwM0T2FhzA/RWvso7loam/z8mzT1Lyw/SCDg9++oT6K21XmGdktrDOkB9Ha3oL79wfOQ7pe2R0sWr8HY54S4+WJ8b4m0ZpoCkWO9V54RgvF84nvMfrqk3KtY26Hp5UxGLoEa+0fynSO3+W51ZJgbtsmzzl8veRBEARxHnE2RevEwltYksXK1Hs5S/0No5F/ZbMKZVLteUH3ZEvfbirj3gA8R9Uu3l1VfPQyleUhqdorJFoTLs6OaO0eKe1Z3lSdt/LmI61DPt1107Xpputv/Lz4tjuW7RubZj4a8qy+/M4uyZa72eyiCJZieZmpTP8Wua2TjUOdv2Qwv8CU5rdYmnE4S7U8Cvt/Zym77nAuymh5jyXvvPva9F13XL1oR1jEp8UjBi/d/cJM4+Emf+FAEMT5C4nWBHHh4Y9o7S5I4/7gfOcihygQB0NZn1wHvxHK3AVjFHgxz/QNUI77KArfs6mah+qcwrHLzx/RGv0j9HZ+M/SH49W1lepwK+ZlcPAB0rywvLePeWE/WO4+L8yRjW0wXzbO0eWP5plDu85ItMbxSLQmmqRftqW7TGNNEq8ZFI8Nx3BRVAu8LkdKLh2CPO/oUBj3RxxPeq2ehGd3XvhGh9f/tQiCIM5tzqZonWC8kSVaDrKU3zjD/M+Jxo+lmvOKIKV5CaYGwQUmg2DbTW1+R6ryConWhIv6nNYn3KKXvYnDYK40HZ5Rz3X17RFp7T5+E3OpMxSta5oUre/O2Hfx3Qn7Lk62WLrPhn8wcRtvqLgseHb5pWIxEyUuvGi6iS2B49k/O18HGG0t8lmLvNbXCzF7Cg+C95BebF7xPSx++yWjl/x86QvbeddbPrH0wEjrKYUdvOo8QRCdFq+i9Rey/+MG1sVltUsV0SRaE8T5Q3OiNQq5KOqKyGSNSxxuKFqjOIzitLs4jCbq3crcxe8681O0Dtfb+U0eojUKzi4xGfvGiGjXvHyJ1mjNzQvbuh/7KiPRmkRrwj9kWsdL8Bo6qsiD14vzNcMVObZ4qbrdkW/nl8AYH8r0Vb/j+5oirwZew7bKYK31YcmFIAjiPONsitb4M/5k00EhWKdCP4nm/0o15xdJ5gXiOokUKCjOm6ZJNV7xFK3f0JNofaHS+khrL4JyR+W0bspgzKtWNx1pTRAE0dH4WIjRXrtUsdvNyusE63rRWi91QRDEOYY/kdYYSY3Rxq5jFHndRV8UdL0K0v6YH6I1Go7hnuoDBXQUpe/dVF03l3adlz9GojWOR6I10SyydZWD4DW7EcVjKUUIl+nsGT31B4Mll3alh6FCBq//dSLvus4hvTZs2+Xr7bdJLgRBEOcZnUK0/g36EZHWH0g15xdJ5k+YiLQu9l+01ofnv7OlF39nc28SrS9g2le0PtqC9CC+oqj9ia52t+bTgxAEQXQ0jUTrpWAZYMtD6i0TzFWPtkqI1t9JXRAEcY7hj2jtLgS3u/kpWrfV/D2HFp0ridY4HonWRLNEGOxX4etEiNZCRMYUIbYymcY6XnJpV0L0NePlWsduuRDJ4b1N68BFQ+ew9O1dJReCIIjzjLMuWpudkdbYT/L5LFofgPND0XoPidaE35z5nNYtFaWbs+bTgxAEQXQ0jURrf21lCArXs6VuCII4h2hKtG5u4UNPw6hmTBMydIMzX7Rnvdf+zoBojVHiuNiiZzkK1O6R2JhuxN0PI7XDdA7+p80oejmPXXXCSLTG8Ui0JponMzNIrrU+Aq/rgwp8zeQKIfkIPD//Ypk8SPJqN+Q6+3+FUK3H57QGxrJVyddbn5OqCYIgzkM6lWhtPr9Fa5EexB/R+iaRHuTdzX04pgh5Qx9BovUFSrOita/81d6sI9KDNJVDG60t6UHieSBbvOcise1o5piug/ehsyeqYz5uXGASoyRwazB0kWp8Ew/XZqFRwdI5RVYQRDPULlXM5NmhIi1Is+aeIgSPvxER1yRcE8Q5hi/RGoVeXEjRdYyGIq9LuPWVesPbQoYuw/7c04wIa4FojeM3FwmNc3IXlzGNSLjewe/eVC32XeWYG7tfroMPya+qa4MCNebvdvm4zOsijGgkWuN4JFoTfqHQHboVnpdfRMoOeP0o8o9xhcaqDTbYe0ku7YIixxomy7GuFa9NeI06Xxc2Q0/d8T6SC0EQxHkIidYdT51oXexccHKuabpU4xUhWuvD89/d7Iq0JtH6QuXMRlq3NC2IW5kQrr35tCE9SKr5QXiPyGBK2HYkyZYrWLIxhcH7Wt1Cj2eShMJr4Bz/CeN/wlSm+XDOC1mKeS4c/xn2FZJXY9TmCUxtzIb53y2VEAThgxZFWmOaEEwXgilE8BhFbBSuvyThmiDOJZoSrW92E61R2L1zYxXvl+cQEdO99CjwNl7kEM0lGnuKzNhfa0VrHBMXVcQ+XFHcngI1joWiM87NXaD2JrC7RGtcVNK9ztMPzTVGo35ItMbxSLQm/OLa1Ycvh9eQEt5rTuJ7DT4/Mo3VJNfZ7pNc2oVgbVUkvCYOYgoSTEWCKUJkWtvCPtv5mX+NEgRBnDFItO54ULSeXw7nCNdsQQVnieZ3pBqviPQgeeFb4r/rTelBLnB8itYtibB2icmtibTO8iViezGvc2qDaK02xbO03fA+Y35fKukYkgrDmcq0k6nNW1jqzz2l0jOH0nwz2K9sURln8+F9EA3PW2W2gS1hqp0DJM+GqEzTYM5/MKXlcamEIAgf1K4I7lm7JmxI7eeywU3aV7JBtV/J76/9SrGbrwkl4ZogzmH8TQ+Cgi0ufIhR1LiP4jMu0OgSdD0NBeT+eQ6RbsMlXLclPQiOE6F3Gu6joeDsmo/LRywaKR03ZzgvbyK1N8O+w2GsQQa3cybRGscj0ZrwG4Xe/jQ8PzVyfFbxPUdnPwWv9f9FGPZcJLm0icGFvFuwzjEd3stqsH8pd/YBuc4Wi68XyY0gCOI8hETrjifJ8mVAyu7TAUnGVSzJ9BFL2tXkt66vbgm9eFpeRMZbBb2PffBDH45R1yRaX5j4HWndXJoOtLakB2mJSN7At3Wi9TD4gBeUWryQzYf3BpVpcZsjoJOzu7NUy90spThMKqkHy1SmQqY25bPkH3tIpWcOpflOpjKXwDwqYB4/MZUFzLSHpZhPs3l74PyNX3pNXYKitcp8UkRkn01mGi9nStOfWLrpOqmEIM55+NKefWqzfAjXy+SzJDeCIDox/izE6DIUeesEW+nYvd7dempsIr/1II9I5kbmp2iNhmO7xsdI6ts3VPNwFLHd+vecE+apdj/2VdacYb+9YCzM1103BonWOB6J1oTfhOTYbobn5ztnFDS8fkS+aUeWfG1pu3w+Di443hv6zxMpSMTrs/qUTGdbFL7RcfbSGxIEQZwRSLTueBJNU1li0VSRq9Y/Al43RMj+kxMe9VZeH+P03F4rX1grv0SqIy4gGovWXiKf3UViERntMqlOGBxnHW1CtPbSr3s/Xstddd78XMetW4hx5Nf7Qi6bV7yOpZacYCpTHku2tO2fFHVRBPTzDVjjhUqWlF/K1KaPhAicsOViqfTMoTbfBWMXw/vh20xd2I+pi/ux5KJbmXLndKa27GPp8P6oNL4oedeTZBrFUsxfsETzLVLJ2UFVfBvMX8dUliiphCDOC/gnXoRrzHG9VkRcp9Z+qXi4dqnizz5tdShsZcOk7giCOMO0RLT2ZZiu47YNVSJ9h2eqjaaEbWEtEK09DSO33UV0d8NxMdIbc1m75oRlmBLEvQwN+/CMAsdzwlQk7ulIGvmRaI3jkWhN+M0wg6GLXOeYLtM6juNijLhIokxj26/Q2JrUVfyDB/TUHh4Fr4disfgiph/R2o7JNNbG/x8QBEGcd5Bo3an5d07fsGmGiF6MM/rZzwXImc1p3QHWyoUY71i99/arFxZr4T1iG1Obi0QKjbaQVtSfqU0/QF+vSSUNwWjh+MLLpKMzi1O0LmFqy2NSiZP4+ECmNj7DUoodMPctbN5vDf9xwgUYE/dcJRZxPJuod93HVOYdLPUsR3wTRAcghOtMxR4UquuEa7TVcIxidlOWG85rv1RslLoiCOIM449o7Sk8u0c8uwzThTTKV+1mvsTllojWPvsAwzrPeWJEteeikJ5l2A4jqG8qqBJ5rt19mzsnEq19i9b4XGEOY7RgTfuuhSL63uTqu9xr34MzeTfhA8a2+16MeyjU9TBUXNZjXYVMobU+HKyz/TNYW/l3+Xrb/ddkV16BdfLtpR0eFCVfW3qJGCvn8PVyrfW5YK3t7zCXfyg0jj+HaQ8rgn+uvXRwpt+BXT7BMcQ1Yd7/Z57CeRD6KHRV1yq0tphgTeU/cR5hGseYftmW7pJbm1BoKm6RaW0/iucVniNZjvUPucb6hlTdajDFCDybs0Qea0wN4nw+f1XkWO+VXAiCIM5jSLQmiE7LOS9atzI9SMTiPXHd0kw6pjTOgPeJEpZibFuUgohgNn3LVKZ/SSWdB5donWL5i1RSD6ZFURk/g/qj4PeIVNq5SCm+F+b3I0s1TZFKCOK8ok64XuW2OKM/tiaU1y5VrJe6IQjiDNOcaI2iLi5uGCEtbojHYTqn8OsuIrvvexrWYT5orwKwn6I1is2YCqSunZu5oqpxoUjPiGlv8/KcN4rWGCXuKVpjnbf2dUaiNY7XSLQO11cOluscc4K11k+D9Y5PZVrrx8EF9t5SdVsICFlvHw5jqmU6xyK51vGZQmebEa5z9JHqBfA89JbnWD8Av89wDjJd1VP9smsbCq6ZPEi+/tBtCq3tPehroUxrWwnP3CGMAJbpq47BNS3CMaD8E4XenizTWMd3xD0euKn2crmmcoxMZ0vEecC1NcBzVS3T2I7Ds4d2GGy1qNNY35dpD9/O0rf7FOF9As9KiNYaKdM45sNz/im8nv6CQrlUK4gw8KsUGvu/4Rp8AtduGbzeD8C4x+X6I8fh2pSgiC25tonwgho5Xm/xvOJ7Tu6RWnxu8b5JLq2ih6FCBv2ukufBazIX3s9yMfWI7RNfX2wQxBlh8Z6L2OrDCvaJpQdbWnpdnWFKnIyyDk+5GZ+QcM3//d//9ZgzZ851LosHmzlzpgIMv8AiGAucPHnyNePGjesRFRV1nbtBeY/Ro0efI+8hJFoTRKeladHaIyVHk3mnwbdZ0VpK89FcP7h1pSGpSz3i2pf86tKUtC49SMgnJf8KVJtz4D0ihqnNv7IU07+lqtaRvKMv9LOFpRhfkUo6D02J1oiyZCRLMVeC3wIWb2iXxVzaFcwVrjb/wFSWh6QSgjjvcArXIft4Voh3gdqbkWhNEGcVX6K1e+oN98UNMVXG0A3VfIhHKhB380wLgm3u3FjNrzc4GrfxQ7RGsRwXgUTx3NuYOE8U0XujsO5R549hG/d+Pefv00i0xvEaidYyrXUCzOmgYsNJ7swt7HDI9I4XWWZmm371FqqvDEEBV1FwQqR+wL5lGpsu1ODoJ7kwjEaW6RzvwBxPCz8cX2NfcrXb/ZHr7bcpcmzxcp39exmeC1431/XD+5lX4zw33HeZzrEb2iwI0VjHt8eigRi1LM91jIG5pcm1VSVOkdVjbNx3mxNc09MyXdUPKMiHaR23S135hSL38EB4HW1QbPido8H12a3Q2keJyngeKNdY/wTXNlmudRxR5B8TY4qxcQ4Fv8PrwXYoRGttn8ALMZ79WZnOblPkQv8wHsxtL7zmRkoerSJEZ38I+j0oUoPgNYNzgWv2z2EG3kVyIZpj6d4+LOvgqyzz4HKWUbaGZZavahdbcTibZZX/TRqlMVkHR7Gsim9YZtlq4bus9E2ppu1klg1lWaX/hDEWwjl97XV+zdtqaLsS+oqH8xgufunrL18dCIP237GVhw9BH3vrLKt8L1tecQDmlcWWlPeUvNuVWXPm/iMhMem3mbPn7ps5O2Gvy+YkJpVi2Zw5yX79CmHs2NheMTFxz0dFxXwUHR2zCrarcdsKWwu2NDo69h+RkZE3SN23mOjo6NEwn8Uwj689+vdisWvAVkZFRV0vNW/EuHHjQsH3Z+jzAPju9bD9YD+DrWzcd2OTrs1a2M6YMCH2DKcnJdGaIDotzee09jx2N5dwLPn4FK2P1/vUtfPcepq7b1N2tMWidTz843DFPMvsAJU5i6lKbmRqs4GpzHOhovkPZr7+0CpNvaGPzWD/kEo6DvjAKu35R3OiNf5kUm3+Fuw7llQYLpW2BN+phVoy1yk+/iFT7rpTpF5R7pwklfgG709LPgwRRCeidql8jUgT4k2g9mYkWhPEWcWbaI2i7e0bqoRYjeKtp4DrKQy71+MCjJjfGiOf3ct9islCXGpdehCMvnavc693r/NV5nleaDj/W2H+Az3m762/Tilaa+zfXKs9rJA82hcYT6azvducaC3X2cLlGus6sdge+qG4rLNreq472CAiuqWg2Az3+BchhMO5yjT2k3D8ulQtCN2y7+JgHTzPKFzi/Jxz/KyHgYv0dhgxDcffwbP+O4raOEfsTxjuQ7/C8qVy7AdTTeC5wFamdeyV51ineUYptwQUvWU51tfg+dmDz5AQiVEcds1FzME1l/qy+mvpOCnT2H7oud7/yOdgTdVdcK1MrnOG87CDCRFalm17HF9vcq3jtBzHg2tWdz1wu/Ek3r81PfUHg0Vn7YBMe2iYTGsrURjgXuJ11VcdVWhs77QlBQm8Dt6E63Ky7rWgtW0P1VpvlKqJ5sisuI9lVexn3xzjbN1RsJr2szwO/2OXfSWN1JjMspeZHny+gXHRN7NMJ9W0nq8q+rLlFV/BOR33OqdWGcwvq6IWTMu+KhskjdQ8GaWj2fJDdqY9zdlqe0PLOQnne7CAtWPUdXx8fJcZcxLSEpNVPFmVwufCFvfnJil5Slo6T1Kq+czZc/8Krs2m1o2MjHksJiZu/8SJk3nb7aG6LfR5JDIyusVpgaKiYt6JjZ34x0MPTZH6c/Xp3SZNQr/JPCoqzuf6OdHR0b2jo2OOTpo0mcfFTWpgMJbYOvtzjdec4biTxTlC32fwF+wkWhNEp6Wj04MEZVSdkfQgf16zc22tZYNff7Duzth38ZXzLF8FqM0pImezyryMqU3L2Yxdvv9pSi3pydTG18B3NVObZ7Ckov6iPN7Qhal23sOU5neYyrQL+vmKqXc9w5SmZ1mS6SanDw9kyqKpTFU8Vhz/365gIW5j2gtvpOwIg7H+yVLM9X/Q4Z8dpiy8k6VY5jOVZTWM9Tem9jNHdnOiNaKyzAOf3+A87pRKGFuwZxC0+as4dxdpe3qJPNif7byWpZr7QL0K2s0Xizu6oy4eAuMmgK0JxAUo3fvwJPmXULhu8eD7NbxnfwDnJRPl+BPOFOMIuL5zoHwfjANzhHNQWp5lqcaBwsdFcnZ3uJ5xTG3Be7kiUG1+XiyA6Ym4j1CXaOzFUn/G/QToE65p8W1wz0ZC25dYeuPngHPe5cp0y0OXzi95JB72pWKCaFdqv1Rki1zV3gRqb0aiNUGcVbyJ1hjZjKItpvRwF4K9GYq5KFC7RF0UegfAsUgnIpU1abn+i9buhnP8k1vaEvc6jBK/a2O1mIcrghqjvbFsoBTtjalKcFFG93ZoOH88n15u88e2t0PbwZ6R4p1MtEaBNkxvXxe/p8b5GaQDkOlsGMXcbE5rmfbwEzKN1eoe9SrTWv/a2i/lMfc0jDUN7slxISLj2Br7/mBdVYMFrlG0lunsKinthBCD8fnGumDdkeFwz34R0cYYhQ3PFzw7x+B8toHlyXX2/DqDYxSGoe1Jl2AsBGaMUtZV2VG4DoXP4mLQFtAv2dId5vcq9GHFSHQxT0kYl2ltxWIemgbzMMB5F0DZQSHA4zzw2mNbHbxG/FzAMFjvuNP5mnKK0nBulddpq/or1tlvkekc+1CYdl0T8HPAdd4E5w5jO3JhnEM4r/B1e/3+NWhzvPKT/aoBefY0eG2dludKwr3Wtl2hs98qubQIhe7QAJhvHpxbLV5TeO5Owzl81Vt/pN2E9vOa9NJLWEbZj2w9/C+ddRD+Ny132mqHU6htqxmEaL1MGq0xmQefY2vhf2IcG8VhjPJuC5nwfpxRtkGIxCsqUWjmbE1V43n5bTAnvBY4v+WHONOcgjmWfsda8h6wbP/NLLNiq/hSwHV90bDPbAyOax/hGgXrWXPmLlSlzONz5iZx2K8zFLDnJCZbZ86e+4Tk3iSRkTGTY2LiTqEQGx0dKwRclyDbGsN+oD/Rl0sUjoqK9WsuSHR09N3Q9jS2wz5c/WC/3sZDQ3Ebt02J1pGRkX2io2OOo59rXq011/m5nyPM+2FpqA7mAhGtY55ZePlNsYljb4ic+9iQKOXUgbD90yPp9yVkbGnxH+W2YjDwLtM/Xnf1kOikqMGxqkdvBLs+MmniPY8v6ZCfTxDnLg8XHHrg6pX2XWzF7/AH5EjbLPMov2RlDf/r6l9X1Nb+o/vAFbaYgIzq39ly+GPizb89DMa8bOUR/sjX5q/5nm1+/aMR+fW+kG6pZgNTmpzfUKoss1iKaStT744Qx56kb78E3ksWshQzZ/PhfSR9D2cqs54lmgexhcbLmdq8jKUUYxlnatNppjLVQhlszR+L9gnwHqAyr4I6pThONA6EMX9iamOiOPZEufMR8DexVKNT5EZSdo6BORaK8ReA4Xgppg9FlHRz+CNaqy3PgM8+luqWgkNl/jPM8xch6LpQwZxU5o1wLveBpbNPSmE+8F6tNr4jeaAwPBTqtrD035zXKw3ex1XmJSzxp6skj3pUB64V10+cF/STtgt9M9jc3+RsQeE1UJfL5onrDWashS0YXGO18T9SD/AJA64B5hJXmazi2syH93u1BfxNs8S1dwcX3FSZtsN2EksxfsDm7XaOqzRjbvO3YbwdLNnS6EP/5GxLj8vmWXTd55m/wPdXqZgg2hUSrQni3MJXehAUb5sTnbEexV9M24Fbl78/betMCJotF63RMCWI1whoMG91rjIUucP1Dn73RhQKG/qgeZs/np8rRUqddTLROhjmM7jgyK4nfj4685Gfjr74py1H/t7X4Ph7sNbxd3mbzPaKQmP9c2hO5Z3BGtsKeE4kYVDcH6+iNabyCNba1gtBFq8R+murlK1dTPBazP2stX9e1x+YTGtbhgsGSi4CT9FaiOZaa0pPeKZkGtu3QpxFgVRfVQPPwUbw/XewxnpDsMHeq6fO0cdlwevtvRQa+y0yreNtuL7fy3RVx8X56hwi+hheL7ZgnW26K4LbH1Dklmmtr8n01ZXOPpwiOJxHOZwbzNE+Cp693j11B+vnUWDv3SPX0Vehc0yF+5AF8zlaN48NJ7CtUZZjHScN4ROMUofXlIhSF9dEYzsoz3U8AtdEF7LplDMiXVflgGuSI9dYX8AFIfGaBBuO9xLXTl81vr1zQz/43dEPIgqOnoJr67qfp+BeTRNBLi0AF93ELwKgnyMK8WzUYF9WML/FsAuejMMDWUb5Ubaysl5MxSjgjPIillk232nlrbeVhz5jmRVPSqM1pt1F6/KnRdQ2itVoq2x4Tj9AvwtafC5Z5fPgOiwFM4vr4xKusc+vSmOlEf0js0LGsg5tYt8Ikbr+WuO+ELMPbmYZ+1r964D4+PiLZs1O+ESVksbnzE1sIFgr1al89tzEfR99NPsuyb1Jhg2bcllUVGwhCrkowMbGosAcY4f9rOjomHmwnd8yi5nnTOcRexzFb9gKMRm2373wwgt+5emH9krXfNCc/cSUwP4aX3OKiopbiNu4uLi+UjeNmDhxohx8CmJiYnfAFlOBtMJifsLrBduTTqHaOUenYB77LX6ZIA3XgZznovWA6Nm9b5us/t+tk9SbB06Ye3TghETeb9xcjtvB0Ym2B578RB/3j6X/fjUh5xqpSYcRn5nZ7Yn/LH9iwl8/W3vrZPW2fuMSfh8wIQnmksQHjE84dWOc8qd7HklNu2tK6lCpCXGB8/iGyrv6LS8vlq2CD+xZ1jZZz+V23n+Nnf9rzY9fcR4feNvqQ5GhX5XVBq+s8urfHoZjDoAxn/u6cDn/ydBYFPXClLyyoZfPt3zP1JbHREGK5WWmNpsbiLPuqC2Tmdp0nKGQrDLOB98fWCq8N6nNM1nqr1cL0VttLgU7DnaIoUCsMhVDm1dFe7HYoXk1UxrV4jj5xx7Qpw58vxbHnmDUscpcyJILB4vjBb9iZHY2lKNwux62n7IUHAcMo4Obw79I69Hgg9HM9TnTcGHGFJiHqqQ+95/aNA7K80XubhSJ1SYLzKMY5vGRqMcUKyrLEkl83gg+n4D/bnG9Us1/Fj71BIhrrzL9Dv38zNTGBeD7KxzXMqXlVREJrTQvgmtVAX2hz0EwuLZmGHPnU1IfmJrlT1C+F9o5YLsU6r+ANlbpuOEHIiFam7+DOX4I48GY5r3gA/fe/LHzywLTAahrEHmEyBebru+eZt4R4PoigiA6ABKtCeLcwpdo7Wko5KJ5q2sQfexhKP42VS8EyFaK1u7Csuc43sTopvybM2/9dS7Rulrcnz4Fx/iggiMYLX5UobUfD8YF/dpqWvsJ2FbCee7AffGcoGjahGjdw1BxmRCPMVczirN5Qkj8QdbCXMwuMEoaxjYLwRWfVa29Vp5j/dBTBG8gWqMfzBPmfgDG3ieijDFSGp4tmcb+qiK3amBzebYxwjtEb7tJlmN7W651/CaikeHeKwqO47YqROOoe26bAl9ncH/+A33YXYI1zBOv5fdyTeWzeL0kV58Ea470hHl/jAtF4rmI6wp9yTTWpREGe5P/PwT/DK9zrW0utPldCMQa++9wvEumcxwTfeTYt8L5PCfXHWtNir1WkXfA/tmfizm/Yj28lsT9gmuitX3SL9tyheTiF3Bte8KzsVrcE9eXChqbGfN0Sy5Ec2Cqi4yymjrRGqOKM8p/Yp//1ui13SG0t2idUZ4lIqSxv5XWWpZRmsLW8lan9BEs3Xs1yyrPFPN0iczLymZItf6DwjWK09kY1V4hidaSYZ8rDh1gy/bfLXn7TUJCQsjshER9sjq1UYS1U7BO2jdnzhy/9bPY2Nh7o6NjT2HkMIrDUVGxpRjpLFW3mgkTomOhzyrs09lvTCWm55CqmyQ6OibHFfWNwjDM6StcQFGqbhPjxo3rPmzYUxcNGzasVYbto6KiLgEbBvMyuYRrKfL6ZExMjF9fFrSN81i0Hjg+4cb+4xN+7B+p5r3GJvPQkbN5yMiZPHTELB4G+6GjZvM+49V86NQF/O4/p2U/FZ/ZYT852w4fDEY8uVB959QFp/tHqnjYgwli/NCRs8R8cG7hY+bygVEpfFCU8sDNE5WRUlPiAuajnVXXvpOzY94HX2+r+GDtloMfrPm2vLX2/ppvD338zbYD83Tb/ol9P5a9P/T9b34w/G/d1sPe/NvF1m6t+Oibb8sX5X77Pufcr28aeyy0PNQtxbyDJZmci6igsKkyWViKKU4cu6OGD8LOlCC7WbJpnBCgk3FhQNMGaJPHkn4NZnNM1zFcJFBl/oWpLQnQzx0M02zM3en8sIJpPNSWFeCfDP8kBYq0FyrLYvDf4XUVc7VlAdQX1KWpQPFYZToKfS4RaS0wultpfBraozCrEpHGTeGPaI1irtq0iylN8VIJvH/u/LMQkTFy2oVq52iY3zYYOw/6/ImlmkaK64EpUhD0VZltLMW8Hq7NTWwmzrU4Ds5nH1MbV4rr5yLhpxDoA/OA/yL6wHQeSvP9MIefoByu185r4X07hCUbXwAfE5zzW+KLBXURnA/UuVCa06D+CLzfvy7KMeULpvlQm2ugfBn0Xf8BPrXkBqj7AQzOwfQjbGOd1wf/VhTdCvsHwV6UvOu4bL75/ovSzCVXfrLrWamIINodEq2JNnB1ly5dNEFBQRs97FOpnugAhGittaqFaIQCo6cwCxYM1i+vig8wVIl9bz7eDIXeUJ1DLNqI+958MCpSrrXVeBetMWWAlzYehn1jOo9BLZxfm00H10vMv3OI1jinYI2N99TCdRARp+1nKBa7CcbNitYwOZibdSzMb7czJYUQratkmsOPSw4tAvr5O7Q/gddbiJJa+w6Fzur83OZGQ9EaDOcKc8a5OqOa7caW5IKuIz4+EMZ/QqZx7BVfpmCqEDEPa24Pt4UgfaHQ26JlGls5LmroElbhOAejmFsSWRy+znE1zGMmnMcxcU/w/uirrfIc23T59qZFOYWu6il4VqpFtDrMAZ8Z6TW2Ta6z3Se5nTFqT574z1+MJ+2Xa53PlDSXkpAWLsgI53UPXJMddc8nnBtcn+S25B2/4Fheej3LKDtSJ1qj4JtZ9n9SbcfTnqI1/po0o/w70Z84n7IqtupAmFTbNjJL72PLD/0hIq2/xnmWt26eK+A9M+tgrugD+3IXrkVZRSnLKvdb5Jw5c6Zi1pzEbeq0dD47oWGEtSp1Hpbt/+ij2XdI7n4REzPxzyi8oujqjG6OmS1VtRnoazn26UqlERkZe79U5ZPIyMirwdeCc4qNFe1+j4090wsd+kdMTMytcG5WV0S5U2iP+7tU3YGcp6L1qKcX3dh/wtxfeo1RClE4ZHi9OOy0OUIwVoyYwWXDZ/J+kWr+p8fTc16fta7dhetXE7ZcPObZherBsSlcPnw2Dxn2Mcxlphg/DEXrOpvJFcNn8IgHk/mACUkVd05OIeGaYLXGTZcXb8sdsutb/U0lW7Q3ttawfdHG9UN+/rn+J3A1O7+Xmzfm3OzNvz1MzHmz5oZ9hYX+f1OoNr8mhFFXHuZU41CGaTCUpuni2J1U8/1MbdrDlJb/SSVOUixjGIrQLmEaFzBUmzZD343fVFG4dYnWBoPz5y0plveY0vxbo1zQKLoqTTlMZV5YtzChypwJ/RpZmsUZee0ixbwA+ixkyRafP9kR+CNaL4B5qEw7wbf+vdabaJ1agnmfMar5KNSJLycaoDZ+JOoxF7U7mKtahe2M9VFCycZoOLfDUN5wkYUU8yTw+5h9JAnT80puB7/tXr9USDOHwDz2wJhfNRDEEZXpC7AD4ksEFyl7Bkn+J8DiG/yzMw/uJaYHURnnskzeIHqo35Jdj12abrHcv3LvGKmIINqd2i9DvibRmmglwV26dOGeFhQUtFuqJzoAkbJAY1ul2FLLxeJzBlz8raEF5x3lgzYd5zdsPi72vfl4M0w5EA59Dv3WmSvXm48zR7D9d5nW+pI0JabIsd4r19hKQjb94b2Nh8lgnH4bjvFbt7Rsfm22/OMuIfSLiFVNR7p2CF5Ea6dIKwm27W5OQVCM0axojSk9DmNKjxR57hGxOJ7Yam3zWirwRxhqZHCNv4JzPI39yPTVx2U51o9QoJZc6vAqWuOc4X4Fa+xFCm0rBGsX8TxQnmN/HqPOFXlHuAKvB5wTHC/qozniM31l+EbH1XKN/TPwrRVitwEFfPs+hcbh+es9v8BnDdor4fxO4jmK1xCKtrpDTeaDVmjtf4Hr4RStUSSG+wdzP6bQ2Op/oXgGqa21dB+oPfxasM5R5UzrAYbzc/sCq3nwNeDA14B4NsSXIxqbSZZre0ByIPzBm2idVf6hVNvxtKdonVkazjJKD7FVVmeKk8zSPdBf+yxymHFgIPTljEhHcTmz/BuppuVg+t2M8nRxrRsI12XQ9xEUrg+wr/aPl7x9MnfuXPmshLlbMYe1u1g9KyHRFWH948ctiLB2ER0d/Xd30ToqKuY9qarNREfHLnITrWujoyc1+6uICRMmyMC33BWhDfs1UVFR10vVnY6oqOh1rqhw3ML1a6w5tDvnoWj99w++vnnolLRfwsckO4XqETO4fNhMHv5gAu8/LuH0gPFzT/cZO6c2bFQCDxmOkdczeQgYRjnf/9j89TF/+7JdV6Ye8fTCd25+aB5XCNF8JmzR5vBeo2fzgTAXmNOpXmMSuHw4iuszhE/Yg4n8+khlxR2T5zWby4sgzieuTC9RsmSTgSXscwrdSbvCmTPid6E4dgcX7VOZyxoInwhGBaOIHL/dGYkwb0dfpjZ920iARdxFa1dkdar5Kad4ap4gjl1gnxgBrLQ4821jlDBGBmNObc+obEyRgX1gvuum8Cun9e4IIQxj1LILb6I1piPBtCAqGDe9sOHPIBPgHyCVMRvafN1IQFYXjYK+ixku4ugCvyRQG43g3/CbXowkT909kMXvuUgcz9tzj7gmqSaxUnsDUnZOgrp9TLmzca43JUaow71TmuvrlHuuh+t5CGxfo4UwMSJeZVoHdZkNorOBmzL3Tr9knmX7zVl7h0hFBNHu1H6p2MBXkWhNtIqeXbp0qfYiWv8q1RMdAIp8wVr7enneEYtca8uV4+Jrnqa1GXrAFg33vfp4M/CVwfa6HKv3ejCZ1r5BrrNnh2itdUEomE9XrrV/KtNVbfDWppHBOD1hK8ZpyfzaalqHQa5zFMBcpzUX5doheBOtXcIypi5pd4N+UQgW/TcvWiMyne1JeAaOiKhgEUnr2AP3ekJLoosVudZ7ZVpbsfNLFehDYzsk1x32mkvWm2iNXzDAc2ZF0VZyazU9v60NlmscK7BP0XeByCtdHKKt8v6zebxHOfY4mcZ+QLRBYVbnOAY23TO4oCXgFzvBGltRfRS7vSwk1zGlqYUuFTr7MzDnukhr5/2w5YavO9hHcjnjdMfc4VqbBp6lWumZOg3bFZgTXXJpktAcxzVyrfVz8XxiRD08I3A/Viq2Ncx1TjTD+RRpvaa8N8zdxlZaneJvRplBqmk7WeVDmCv3t4i0Llsn1bSOeB4I/c0T+bc9hWtcOHJl5UmWUfq85N2Ij2bPvmtOQtIPmMO6gWANhhHWs+Yk5s6ZM+c6yb1FREXFpDojrOtyT78vVbUZ6OuzlorW0dHRwZiixE20PgplnfZ/2ujomKWu6yeJ1/+QqjqQ80y0/kilu/ahV5Z+2z8yVQjAKEaHjJjN737kEz7+hU8/HTpJGdd3zJy4gZFzJw+YkKTpNyFFCNth4Iei8e1T5/PH3sioz8faRu55dGHELRPVuyJGJwrxHCOp+0em8DseTi268+GUJwdMmBt7Y4wqBub2vweeXHiq95hE8PkY5jyD9xmn4vdMTd+WsGBLh+fbJojOgGEPv0i+qGR59xTTlxGLDU5RFFOApJhWMkx54Q7+U6A0/Y+pTEXwHtL0qt/qwn5+idauVB4q43DwxzzaDSM0UizDGOZZTil2RhWj4IzCrmpn40iOpML7oJ8iqH9aKvGOP6I1puHA+StNi6QS76K12jQKyjCXdpZUUk9SSX+o/x7GavxBbUYhfjGwHebrfA+ON3SB43ngr2OL9zQdYYXisi/RGqOl1XB/knbeIJXUk1RyA7SD6+OW8sQZaV0BtoYleETn4z8rKXCP1MZNTF3UYFHOqxaUfHL5/GLNXWsO0krqRIdQ+6Xi49qVIbVexWlfRqI1UQ+J1meBftm13YNz7SMx1YJYeK3A3vtMmlhsDsaNMHDn5xkE/pEP1R8N6ZFd0ddbm85iuGBej9yKviicSTM/s3iK1mAyjb1UprUtlOsdCbCf1F4m1zrmiq3G9r1c1/xCjC7kGsdQmcb2oyIffFFExmhYnV3l76J+gwt5N/l62ysyncMhoptFOhZHnshH7YVGojUK7Hk1p2U51jWhX/snhDaHPMf2GJzTYfHrATgfma7KDvfh794WmeyznV8p0zoWOlNXYJQ1iqr2rTJ9dcNfHrYUeN3C/VCJ80MhHPvX2j8NzZGCWbzQQLTGeWtsVTC3l9oinrcHMKd/wTN7TDwbeH109h1h2sN+5T6H52sMtBX5yp1f2FTVwDWZHmGQgkYI/zifROtV5b2gvbVOtM482HlFawSFa1zsMfu4M51JRlm9cI2R4isrT4nr48GMGXPGzk5IPOQpWGN6ELUkWH/00Uet/vKGROu2ER0ds4xE6zby+LSMkXc+nFaD6UBCRjojrO97YiH/+/tfL+Dc7UMj8PxbK+RjX/xUPzBaLcRkFLj7T1Dz+x5LX/ZU/OJ2+YPwpyfmTeo9JuGPsBFzRP8oSt8zdV7Rc9MzG/2U4fVZ69948NlPTyswdQlGYz8wg982OZ2Pe+4z1Qvp6X7lAybOL6ZvdFw9dv3BmFE5lc+MXF/5dFtsRHblM6OzDz/+xEabiMB9QmcLH5VT8eSI7ENt7tuX4Zhjsg8+NjXX0XSKDInwT8x9uqeZv+3zWcm7UpFTnFabExkuBog5ql2kl17ClKYvoC6bLW7mA1xLReuU4jA43g59N3xvSzU+CmWlDHNMIymmqXBshveyseLYHdXOAVAOYxpfl0q8449onWwJBb9vYdymRWuM6sb83xiB7klK8QioM7Fko3OBS3de2N6VKXcaoH/nYpSYr1tENVs+Zc2thu9TtIb7lmL+RHzZkAx/ZzxJL70O6vJhrgvE+Ii6eAjcp/3Q3zRx7InK+A/wNzaIrIcPRAFq0+aQxZZPt+xr/HNagmgrKFjzdaGcL3MTpHG/OYM2tUsVWqkb4sLmWh+i9S9SPUEQ7jQQrVHwEyLy+nCdow8KqPiFRHuZEI/Xll4SrLO/D2OeEuP5IVoPM/AuCp3jXZnWdhJFZxRMZRpbjnyt83N2c8g2VPeAtqsUhuNOcVZrwzE/FJ97vdBItHaKsydlWutrkkub6ak/GCzPsWUKkVRE92Jua9tyuD6NIhpFJLDOkSUizfHctfYTwXr7G77m3xJQKEex19m3iCZfLcv2nQbBJVoLf2eU9faeWuuNUvVZA39lAXOXItGrUbQ+KtdY38BnTnLxDlzD4By4BhrbEfE8iihruxmj0CUPwl/Oa9G6PF+qaTsdIVojKFxnln/Alh86zVbZ6oVr3KJwvQLKl5W9KHmz9BfSu86cPXfj/IWLvQjW6XxWwlz9Rx+p2vRrg+jomBQSrVsPidbtIFqPeHL+zBsnpQqxOnT4LN5vggojp9dmwB96yaUBbyfn3jvsqQW2kBGY43oGDx+dyAdHJf740vR1TUdu+kF8+tpLxj63eG3EGIyyniUivm97KKXiiWmZPheEeOrN5W/cNEl9XDEcI8Rn8YixyTifDfFqQ7MrLxPnH0/qy+8cuOZwUeiaIzx0ha02dKXtdKtttYP3XW39fdI3+0Re52FrD8aFr7QeD11dxb36t4fhmKsqj0XnlE7j3PfP+lzI55vvD0wxl/T6fPfDUpETlfkfYCbmWlAQwfzSKss6KF8iIoOboqWidbKlO0sxfcPU5uUsXUoxgqhN7wrxPMHsjGhRG/8p5uUtb/XnmDrEnCuiwZv4SSP4+Cdap5i3wFifSCXeRWsUz1XGn6ButFRSj8o0Bfx3Q733CA+VcT3Mdan4cJFs6QG+m+C6JMAH56bvmy/RWqTzMK6Cui9ZupdFOBcevhzqVwsfVxoX/JugNltE6hBvqIpjnOewc6JUAmUHrg1QmQrDFpnb7QMHQbhoJFgvBVsewnmGAgXpU03a6tDT0N7fnID4T76n4Wuvweuve/fufYOCgkaCjenatettUORvrlnsByPOPA3H8QXWeWuD5q0djuGaO1p7zh9x9emzf+C6Ll263AP9j4Mt/qPgl3jkByHQ393Q71iwEd26dcNIwuZSJuAc8VrhHGXQ3lektee19Twngrjw8CZaa+zfRBgqOmzRfFmu7R0Y02/RGlHo7LfKtLYfcX5CuNXYbGB+LcjoXGTP8YtLmIVzPRicY50qVTdCSneTKiLPMbIZ2sk11j2hOke7ppKE64zifa0Q0vGctPafgzWVjRZOk6+33wZ125xCMQrLjk0h+VX9peo20SPX0Reuf4HzumLfth9kusM+F1vzFK1lGusPwQZr41/5nWFQ7IdrhDnLhWiNEexwLl/12d507nO5zhaOzzucv0gtIiLqtY7Vihxr+yy6dyFBorV/dJRo7SKz7AURWe0uXGPENebnxvPJKE9y/b/8cULCzbPmzC0QeasTEvmcuUk8WZXCZ86eOy8+Pr7NayyQaN02SLRuB9F6+JMLEgdFq0TktGzYDD7imSX8XaVmhlTdCM55l/4TErIxhzQKy+GjEnnEqFnbYl9Z3OYXxPNvZ9076i+fHAkbNUfMp/fYRD7uhcWFmMJEcmlEevr2SwZFJW4Lh/mE4EKNYl4zdMGjZ/v1UzPi/OLhgkMPXLPCtoetOgl/7OCPrDD4Q1Jnnsee5moDtvw4v2z1Uf7E6qJ52PcNKw5ODFxmP8VWnpB83Nv46KNRmaef+xYMxrxidQ1/aN2uz3hhZrNfvCgWl/w5UG0qkX9R0vANXrkzUgi77lHCKqMCynRMbU4SUb1N0VLRGqNE1GY1jLFJ5NRGMOJYZZoP5V+LvM6IyvwmU5pLmRrmhYsbivQcYBjVLBYsNP8CbWY1Kar7I1qLvN7m78A3RSqBsb2I1qnFTtF6HszBE5X5KRinHOpfaDBXtLTi4VD3E/S3TMwVF7DE8VLM/5Va+8aXaD37555QroPxUr2K9pgTW236FMbQCoEbUZWgaG0WEezeSMZFOTEdi7H+j6Oq+LYgtWnndQt31efjJoh2wKtgjSk/vlLsrf1C/qfajNB+tUtD+vu0rxQDar8M82eNjB5BQUE/gZm9mFjRPDAw8HnY/75Lly5/eAifh8CWQ12TufO7du2aDD7FniYJx16BuqHe2qDBmA0WXYHjYVDeaP5Q/qZU/zc43g5bb/NfAXXNLaLaFfzy3PuWbCNWQt2fwJaD2cDc+z8BPnjd/g1uLf3y/0po9y9ovwW2R6X+3G0/2OdgwyT/BsD1exja4vWygO0Gv9NSO3fD+WE9muva6qUuiHbgmuzKK1DoUeQcCAsxVIaeScNxMX9tg6hK+HzRU38kWL62NNxbm85kigJr2NUtXFiw3fAmWmvt2TgvyaN94TxQpre911LRugcupKixrxYRySjyam2nod0H4nNkM8C5vQnmXGTPeX7rm8p33C/b0l2mtX8s12J+ZCkNhta+NHydo82BVnXE80CF1v46zMu1wCSe0ylMS8Hcg0/g/GDs14QfzgXFWI1DL9fbbwsvqJF7PkstMWyv0FTcItPZc0TfaDCHYK11mq/r2kC0xnuRYy+4TndogFTdLJjSZQg878/vrJUn7fr9pkMn/lhkO1m7bN3BPx6csK1GdufWytBr3OaIr198HTd3n4cZDF3ElwAa55cAOD+Z1mYE8/p3w0VwXtVd0KbIKdrjlyH2Y3ANGi8mTzQPidb+0dGiNfJV2QtsxeGGEdcoXK+AMb85hsI1/M/oDJaaOXPm5bPmJKxNSZvPleo0PmNWwlzRRzvgLlqj6BoTE1efqrKNQJ8kWncI55lofXOsOqH/eKXIZ93j/o/5w69l8VkLC+ZI1V6ID1QM+2h1+OgkHo6iNYrFw2duixiW2GbR+tm3s4bf/3j6sdCRs4VoPSBSxSe/+mXRY2+t8P0BaHD8Zb1Hz97YeywuIomLR6J4TaL1hcrU/EP3X7vKViKE5Uz4g9ek4R8vNG91YFk1/IpVR/hLa35Zznl614GrbNFdMhy/sxXwR6KBbxN9tNhq+FWrj/Cpa4yr+K/N/3phSMbe/16cZtly4+f7G/5TkmbsJXJHqy31f1SUpt4iv7HK0vwK0C0VrZEUy8sMo6hdqSg+KesBY+aAJdV9SFUZ/8tSimvB9wi0d8AYVcLEvqUGyjnY/zWZU8+/SOu+MNYvLNk0SyqBsZsQrVPND0ol9ajML0DdcfCpaTBXYWYHS9vFoX4Jy8wMEtcLhWi1ufmfnPoSrZMKw6H9JpZi/lgqaQimBFGZU6B+o0hHgrhEa5XZ+6rzGHGuNBXAeMl190BpmnpJmuWXB1btvV8cE0Q74FOwzgrZW7sktJ/k1l4oungXNNHywJZ5lPmyz6Evr8Is1K328HWZz19+Qd0DHr51FhQU1OAfPjiO9uYHtlYyb3WethS6apxKyEk3qD/o4Y9WAWPP8VLeyMAPheGRUn9NAn6TwPZ468eHfQbNnF9mSkDZXz18/DIY94DUBdFGMPUDCj0yrV0r09q0KIKdUdPadDD2arnWUZdCTKGrGiDTOeaD6b226SymtWvAdDKN/d/y7aVneSHGzita4+c7ucb6Atxju1NgRPHW9m1zqSkUugPXyjX2Ja40H7A9LdPZEnsYeBNfrvEA6PsBuCY7MV2EJCh/cu3qww3ee9qKQmO/BfoVEdTSGLVyvf0D8fnQBdyf+sh0Z+Q3PCtVwRp7vlzn+MbrM+Wn4X2G8zRAfw5xfTBVicZWG5xr/y/eJ2kGDagTrQuOY67vI5iCw+uv/LwwhfMgRU7lX6CPHIXevn7kluqtLxdz/uo+ziO3HdnZS2//BusazhNev1rHwl4+8o+7I9fZ7hP3DK9n3hEuy7H9AX28KlU3wvnlhO09eP39LlK0iC8E7HvluY7mvtwlvOFNtM4qbf5/x/aiQ0XrsobrPbUFcZ06WLRGXBHXeC0wPYjL8BppT+N1WsyWONcFQOF6TsLc7Jmz56aKtu2Eu2j90ENT+LPPPu8zwLWlxMTELT7/RevYr0i0biN3T01LHhiVgsIzlz0wg4967nMen6KvF3q8EDpixurwB5N42MiZIrIZRethT7U90vpvH64aPu6FRcdDR84R8+kzNomPf2FxUXxTCysOntItfMTHG53zcUZ+h4yYoSfR+sKkQ0TrVb+srK1N7u5btG5Pq+FXwZhT1+xsVrQ27NlzkXxxyec9FpbkR64qGSqE2kTzIJZU1J8pC+8Uoi3mSN4ufQhNNfdhavNmlmr5nzhuitaI1uqiUVBWAePGiGOcCy5kqDbVf9BUmT5kKZZapjI7YC6VDUxltkH9XqYqbrTARAP8Ea3VRUPAxwT2nlTSctE62fQSzP0EtKmpm6P7XNXmMqY0OXOJzzFdD/sYed160VrcH9M2KPd+f1DIV5lUMN+NcK+dQlVzovVs+BCjNi2FdmuhTXdRBnPunmr+ftK6sgaLMxKEO7XL5LfVfq14qvZLP+wLeSpf60OwXhTSLj999kDepUuXI57iZWssKChoK/TXSPiFugxPX8l85seEuvs8fOsMxmnwKww4nuDNr6UG/XwP3Xn7W4GitTcRudZLWVN2CsaYJPXpFfCZ5tHGL4N+v4PmdVGpXbt2fc6bX3MG/RRLXRBtBKMnZRrbAkXBCY5ilhAVz6Rt+J3LdfbfZVrrS9KUGOaklWtsJSGb/vDeprNYPlwvmL9Ma/8iYpW9zf8TtZhzRbQGpFQO6xS5R2qFMKmvOibT2t5usACnB3K9YzQKkZjKQuQr1tjMwTr7cKnaJxEGey+Yo0FEE2Meba1tMf6aQKpuF2QbynrAfFaJa+4UrU/Dc/xfT9Farnfdn2q8Vs6UJeJ84Nlpq2FeahzbtRijxlYL9ye+WdEaX3Na+yF4bpt8n3dnKPxfEayxzRHnu+GkeNauyrGDObgsFyO3YS7SfRLnBxay+RSM49iNgrTUjU9w4VW4huvxvCQR/jTMb2mw5khPyaUBVxrsV8E5LJPjM4jnLr4QsM3v1873+YLBq2hd9pFU2/F0lGiNfWaUfdtui40uK7/hjIjWCArXq6wW2O4CKxGWUVrCsip2seWHKmAe/8Ev6dA13bmuW5O/aGgpXkTr1mmZXoC+l5zvonVUVEwGidZt5E+Pz3/nhriUWhSJQ0bM4P0mKPmz76zYkGmQfn7uwW1x8/oOikzcHfZgAg8RonUSvzlO+cP0j9ue0/rNJH1w1Eufbsc82WJhxeGz+NCH06qfeW/5E5JLI4ZOUk/oPWb2YUwpgulK+o5T8QHjEjaQaH1h0jLRWrIsH8eSaP3y6l9WtJto7TlWI4MPfn6K1i+sNV3XPdW0ruu8kiMXpZqLApSmQqYyo+0AM7KU4uNMafqGYb5lxCVaYyRzc7RGtMaFFNWmA0xpeVkcp+wcJoRztXGyOEZUxo+hXTnM61mWbBrHVJaoejPGwHY0m1XYdP5Ff0TrFOO90N8u8K3/aWBLRWtsKyKsMQ835r72mKvSNJ6pdzuF32TL4HYTrdU+RGv8x0NpUopIa39Fa0wzoir+WJz359KHd5VpftdUkyZ+K32YJ3xTu1SRzAvCuRCjm7M1YChWnxnBGmk30Vqyr6V+64Cyc0K0lixH6tYdX6J1a+z3rl27OhfT9QDKn/fi3xKru/at7Quu5S6pC6KNoGgt19jShPCDwhoKYGfSUMDU2mvkOusL0pRYiLbybpnGbhRCmLc2ncUwutU5/0/7nI0UIeeQaI3ANZsuc7UtOI5ivyYk28dc4dwUOtvL4FMtxFl91UmZxpYYuqW22cWkw1y5nlEA7SDRuoehAlOerGm5aO18ZvDaoXjfVqtLDSLE3mqOC2WKz45ecBet4boelmkdDT+TNoFTtK6c4xTcTzjHdJ073h+cD9bheeEW6kI2ncLXyW55dvOi9eBM3g3m9JpcV1WtwOcDz0dr2y3LrX5AcmmAPLdyjDzHttt5HfA5tO2Sayopyrq1eIrWKw5xllG+j2WW6cDyWmTLKzZA20zWki/yOkq0zqrA8zgBx5vhvPRe5+u/6aGv72F7Wsyzo0VrF5gKBP+3a2CGLiyzoqXp3FqEu2jtFJfj9oDpoqJi86CsDRajj4qKqcA+O4toHRcX1xf6ex/OTw/bfOc8W29wfrmwPSSdH4nWreXh/3x+29DJKVaMbkahWD58Jr/vsQWn//V/X7+VrtM1+NAV87eFimFPzE/vP96ZiiNk2Ezef0IKH/XUJ9opLzeff9cfhkQmzO09JpmHjJzNQ4bP4rgo4+hnP3W8+OGaBguNbee867/+L3vybZNSyjElSOhImM/w2fz6yORj9z42799sypT2+RaNOKdolWjty7KO8itW1XgRrY9DnXuEdlvTg0B7N6HcmR6kedH6ls9/G9w9zfwjS4X3FZXpNFObamFbK7Zq82mp/CemLna+iQtR1LiJpRR7Tz/hTmtE69SSnkxlxjbO9ELq4oehjx9YmvlOcYyoLf9jKeZipi5qfZSvX+lBjJPBbzdTFtfnem6paK00vQzzrxBR282Bgr3S9CNTWqZLJb7xJVpjShelaStcn7n4z41UWo9zscv5MKfGOa19idaI2vwitNkP7fuyhH0Xw31Z2y3VpMp0/2eKIDyodaX7cInR/hgK1qs6XLBGWiJan/RS1sgCAwOflPoWQFlnEa39mj8KvlLXLvwVrTHNimfe7EYG88WI7gbvS926dbse6rzOD/wxf/YHeF3heDrs7/D0cRn4iPdpEq3PPnWiNYppGOGIwtqZNCH42Y94itZyjX2nJMJ2XtNJaStItPZLtA7W2KJlWscBnCeKjTKNzRKisY9kvHGEIOY6F5HZhmO14rxybDUKne0pqbpJzoRoHby5vGeLI63hNSbToFhsWyXXOZZgJHH7mW2ZTG//Qq63x3n9PAm0RbTGex+cU/kMtDPLtY6v8TmD890J42rh/HbCtcA0P4WwjylLfob9TdD/j3KN9etwzfHeUi9NotDaR0E/+0UUOV5TncOh0Nj+5i1KVqaz/htTiIjnEEV0nSNXlku/Jmw1nqI15lIW0cTw/2pLLeck9FFWxda1YEHYjhKtMRc0CtfYt7e5ttTWVDmvD1pHi9YG3gXmfi/LOnQ/yyy9r4GtODiaZZXfBS/Mdo2udsddtEZDoRjF1/Ywl5jbGUTr6OiJ42AeZXiu3ubaWnOdIxoew5ZE65YyeIr6sjseVmv6TcAUIbPAZoiI5bv/PK928mtf5Y34yyf/B/v/u32KeuZ9j6X/OChKycNGzAabKYTrgeOT+f2PLWr65/wtoM+DM+4bGDm3Jmz0HB46chZXDJvB+41T8lHPLrKPfGZR8p1TUz6M+9sXHzz11vIVMLfjKHBj/utQsD7j1DDv9AJcLFLqjrjAaCRaNxvZ3IQ1JVrXpRYBQwFbGLaRzFt/Pg37ce37nx4kbNGu0ZfOM5dcOs/0WVdMqaHc+fc6U5ng2LxIiK4YvYyojAqWYtYzXDARv5ltitaI1glbLmYq8zIozxILL6os0+A4j6XsqF+5W22ZDuPvYcodXqP2/MIf0Vq1803wKWbKovq8zS3Paf0UXIMyaOM1sqMBmI9aZdrOlJb/+foHoQ5fovW8nXIYKw/qPmnwj46LJT87U32oTStZ+nZnvky/RGuMaIdrkbxzDM4zQG3a1ufLvX+VagnCK60SrTNDeG2moqwDclh74o9ovSYoKGh09+7de3fr1m1w165dn4XjQi9+LtsN/da9n8Hx2Rats8BnFM4f5j4E7Dk4LvLiJwzq9kO37lGHzYnWFrwmcG0Gwhh9oP0YsKVe/OoM6hv8fBzK1nj6SIa5tj1z+l4E5V79od+foR7fN6+GOd0IdgOUDwOrcfdDA1+cN/rUGZyD34uHEU1DonUbjERrHM9v0ToCUzroHIuEgIuRuiJaverDKV4+/wTrK++Uax07hPCcC74a25bmcmC7aCRaa2yLrt3Uvjmtg9fbe6FQ6yFav+9btHbeH2wTnGsdgs9L+EbH1e1loTmOa9Dq0gN6oU2iNYALjmKqD1wIE9O9KHRV9wRr7L1DtFV34zZYU3VXjxxHP3meY6hMWz0IF4r0954hYdrDCpnWtlKB91tKowLPiD7U4Gjw+eLa1YcVcE1XwHNUi+K2LLf6KLxfvO9PFD7hg6ZEaxR8W2LrT8L/xWWOTiFa43ksP+R9nm01Pcf+c6VR2xcUrDPKFok81jh/FN7x2ogIb7gnyw+dYBnldYvrT5gQPS4qKipcOmwXOlK0dplLKI6JmdTs/90dIVrHxsb2gn4OuEeUx8VNajTP1hiJ1u0gWiN3TFSPuyFGaY94MEnkklaMmCFSc/Qbn8yHxKXx26ak837jknnvMUlQPlNENaMpwPpOSOJDopM+iRgW7zMPWUt44PH5066PVp4MGTVbiOKYpxpF6bCRc2A+Sn7zQ+n81inzOS4eGTrCuWCjiPoeORfmOe90zN+WviJ1RVyAtCjSujlxuSPSgzRnrkjr1c2L1tfNNz9/1fxiY9Tafc4VtcVPhiRD5pkfYJh/WWl2RuAlFF7DUszrmcqcwdK3N73YSmtEa0RpngHl+Sx5R18YWw1+y4SA7UJteQnG/80vIdgXfonWQjz/kc0195FKWiFaGx+Ca7AX+poolfhGXSgDv2/FOTeXK82XaI0pPzD3tMq0gmVL+afdSdxzFYyRzZSmRSxTuu7+iNYpppvEeKriv7GUXXcEqEzFA7/YM0KqJQivNBKtMYp6eUjDtCAr4RjLXT6YFuRzmU7qoiNpUrQOCgrytS7HpVCv9/R3GbSbIPmdbdH6bcnNE5y/1sO3zqDPhyQ/xKdoDX5boN7r3xeof9HT3820khtGWQ+C40b5saHvHVDt60vRK8Cn3LMNWteuXevfl53guVZ5+kH/KHATHQSJ1m0wEq1xPL9Fa0Shs0XJtPZ9TrEXnjmtI0uWXe1MaSfhXGTP8bZM5zghIrLhOl+XY0/BRUMllybxJloHa2rbL4UkXHeFrgqjjm3i/uNrR4fPQ2PRun4hxrr78zW85rzmae5o2ipanwnkWusjcL8OidQncM1gnkcVetvf4l0pT+D6KjS2p2Duh/H5Q2EbfMpkeut4UU+0Dk/RGoXSjLJSsA1wvKlFtvzQVmi3mq1zNPk/bQM6SrR2nkc1y8T0IGXe59taW1H5PfTd5JpwrUJEWJctYt8c4zCG8xyEVXCWjb/8rjjAlpXV/U8dFRX7RGzsxFMxMbHfTpw4sd3eWxqnB4k9AGUbYLxN7WXQ5xawjbGxsc1+udURonVUVEwi5ut2nSMajPFLW88T2m8Eq3QJ151atA5I7tyiNfLAY2kP3zopxRYxOkmkCEEhGE2BJh2HCJvFw8Cc9TN46MjZfHCsmg+OTkxjEW0Trsc/t+jfd/05/UTYqARpnPp5hAz/mIcORwHbOR8053xmcvTvNz758P1PLZjO4UOB1B1xAeJTtBbpPFwRza59sAbCtZuPiJxuQrT2jKoW+9hGau/ep2vsujmgueqwnbvvUX7V6ppmI63hOQ+M+GzXjIvmWbZHrS31/m2qurgfU5lNLNXkXDwD00uozRipu4XN/rnpD+ytFa1Vxr/CGNtZimUYbNeyFPPHDT60q00PQ7u9LMVUn7ajpTQnWmMObxSnUTB3P8+WitYpxhFw/YqZytL8F2GLUVA2rmdq40qRgqMpfInW+GWD0vgp1G1l6abrpNJ6nOlDvofz/hD/+RFl/ojW+GWF2qSD80hm6p2PwByNl6WbrpdqCcIrjUTrrBBeu1Sxs3apPIN/Kc/ELfhs5BluovXqUPCRG6QuOhKfonVQUNA2yccXPcDP6tkODdrOk3zOpmitkVx8cS34HPJo47Ilkg/iS7Sugbomf54Nc1vopR3aUagORh/Yf8ejThi0HYf1vsDr4K0dmOd6AD2hrNrDB/v/VaonOgB/RWuZH2X++DQyFP1ItG4d56BojRG4Mq1tm1j4E+ersR4K1lgbfJ7BRfZkOvuXYpE9sBCd7cSDm6v+4i0i2xv1orUz13Kwxva9XOPw/JKs9eB119jfF88Avm5EqhP7XoXWFtMg1Qn4KbTW1+F6nXTmfHZGWss32to1ItJfzgXR+rr1NXKY2zrnAov4noRfbNhTIgx7hN4g21DdA65npri3GI2de6QWnpWcsGxHX9EB0Tq8L8ToTC2J/3+0xJr7Za83Okq0xqjkzPICmJdzTt7m21przXk2hyvC+hu4/ihSu1KRoKGIvfzQXras9DbJm0VGxjwfHR37O0YHOwXmuA2RkZEhUnWbcBetpa1r/SV8j2tva5b2Fq2nTJnSDfr40RkVLUTrP6KiYt6Jiopy/WrQ2zz9NQZ9ZrquXycXrU2zgtIOOEXr1H2cJRpnSlUtowNFayTyhcVT7nw4zX59TCoPGTmHhwybLdJzyIfP4DLYKkbM4r1GJ/FeY5N5rzGJIiWHEJRHzuYDo9X8tsnqtNZGXI96ZuG/b56U8kc4LvAo+p3Bwx6cAzZXjIXlimEzxXycNouHolg9IQXH/W744/PukroiLmBaH2ntEpLdrC2R1g369nLsbTw0PyOto7aXXnLVguIvu6aaNde6RzK7g2KlyqRjavMyliEJqWrLR1BWzlKK61N2COAPbuJPV7H4TKcIjfmvUTxVmaaJY3eaFq3HMpX5F2dENQqz5rp/PAXKwjvBZxfUvSeVtJzmRGu18WnwqYR5NPyD0FLROtE4EMb5iSlN6VKJbzDyWeSbNmIO74YfEFCMTt91JWydaYtw/mrzj0xtarzArMryIZSXMKVbHnAXql2jxXmrjXU/AfNLtEbU5kVMafwG7KOL0iz63l/uEsITQfiikWj9DQrSsgYRwLVfhD7AV4Vw/lXnEa3Blkk+PgkKCkry0g4F0e2Sy1kTraFcLbn4BHxm+GhbCNXiAzLgS7Qug7omIxS7devWH/y85rmGMcagD+x7i/iuhfoE2L7rw1DoXgnm2Q77/VQMXg+J1mcBf0TrEJ2d99I3LFN4KcNjLPcsw/buZQ2sFaJ1T039fjDsux/jvksox62/ddgPmrtvXZ3HcZ2RaI3jtUi0xhQOcO0/luscJzHthyKvpjZYY1seXlDfh1zvGA0+JWKRvfwT/Po8R82/io74LU7UidZ4PYSgbD2h0FpfkqrbjHxt6SXQfwpYLQqrCsNxjOb+BhdnlFzqkGUfvkOmtf2Ac8HzgWfscL9cx6NS9RnlXBCt8f1IprMlwmurVojS8IzBXH8OyasU//OHGqw3wPE2cW/xtaex1sq0la3//4Jw4lW0Lv1Qqu14OlK0zig7E59R206dYC3Eaed9QHNdk+WHdrgE6ylTpgRFRcUoUQyVBFxJHJ0Mx3GmCRNifX5u9RdP0RrGi5eqzgrtLVqjOB0TE1uIgj8anO/e0aNHt9svcmJiYr48J0TrwGTTe0FCZC7mAal7eWCScb2IemwpCR0rWiNPvvHV+Ef/k6EZ+fTC8lsmqU/cOmUBv3VKOh86dT6/4+GUo3dNTfvu+qjEOTfFqYr6R6pFOhEUrjGNx5C4FD4kNjkt9O6EFuWRGvPsJ6/d+cj8P8JQsIa+sL9eY5P4gPFzD4WPmp04JDpZNyRWdfCmiao/bn14Ab/t4fn85onK2geeXFgx+ZUvN/z7/9ZS1CAhaFK0biQcN2NtFa1bOh6aS7RuLqd1uum6AJU5v9u84oVDfaX6QJFUbVrEVKbNLEESUtXGF+HYAdvJ4tiFeneEiChOtjj/uVHtVTCVcRO0d0Zpu9OUaJ1kuomlWLYJkVRl+hm2dT+3F6T+ejWM8xP0vZotKW/dHwOXaJ1qbrwIT6KxF9Tlwbz3spRdN0mlTloqWuNih2pzDvS3Gdo0/xMrlflNGLeSqYsannPi7oFCxHf1gek61CLS+m/i2B218TGm9CK4I3gvcEFFpdktT7efojXOTaQIMenki0s+SdjXTDQ4ccHTSLSG/dql8gb/tNQuDZnQCUXrFZKPT4KCgsZ7aYdWAdVikVPYP1ui9XzJxSfgM9xbWzA7VF/j9PIpWh+EumbzucIYv3hpiyby4UP9Li91bTHPCHMSrc8CvkRrl8Arg23vXAe/Z1N1naiLZb2g7F63MtziMZZjvasM22F7Vxn2ids6a6ForQC7Ib9KbLH/fnkOPhAM97FvrAvTOet66R18cL6zDm2wwSHmgvuh4IO+2CceD4A+0HAfy7AOffC4D7QZBG1ddXVGojWO1yLRGpHpHHfINNafsT2m8AjW2otkBsftUjXU21+VaWwnZVAfknvk9Lvm45sn/nzE75+9NxCtnc/1KZjzvGtXt09ea3gORsL8i0XOZehfpq8+Ac/3/+FrSXKpA/N4w3P5lTMyuJr30FbxezbX5G+t5i8UVnDnAttniHNBtEbkmsoxMq1tt/jSQnzpYK+W6aseF3V62ytQd8L5/InFPA+Af/Mp/Yim8SZaZ5b9n1Tb8XRspHW+VNN5QY3QlRKkTrDGfNwVnK0/AdelQgv/Q9e9B0qidTqmtnAXrdFQKI2JiStrq3DtJdL6fanqrNDeovXkyZMvhnP81U203gNlrs/TbQb6W3ZOiNZdlIV3BqFQlLKHM1UJD1SV/B6YaHxaqvYfFK0TTR0qWiPxasNlH6RoB8X+bclDkS99njzpn18o4/72+ZxJrywd+5c3M0SusZtjE28ZEq0q6j1WzUMwTYiw2fz6GDW/8+HUtNsemyd/8X8ZIU9Py3gm5qXP/91v7JxXeo38+JVRzy549fFpGX97JzF34HSV7to//2fZazfEqf8IezBRSvcxg0eMSeYDIpOtA8Ymx+JYQ6ekXznyxU8GT/7Xssei/va5KgZs/F8/fe7NJM0N8XPWNv4ZPXHBUidar8I3dfyD58UaCcWSuR+LbQtF6wZ9+IikbmCSj/v4forW96wtvf6iVMuv4YtN70pF3lFa3mUqk4Upzc6FD1PN9zO1cT9TW1axxT9dJcoW77mIqU3/YyrzZpGLGsG0GiqxaOMyZjA4I4RduZqbEq3n7pQzlfEbqNsHtpXNL278B0Rt+gz6PQxb8fquQ7XzWmgbw9L29JJKvFMnWpueEz/HwnnhH/ikkhtE32m7OPgkNPpisKWiNaKyvAfXwcFSjQ0jxrHvFGM0U7udn8oSBfM6AnNYVJciJL30EihTwRjr6yKwMcpdbfoB+p0rjpF46RpjChC1uRSu7waYU30+bvXeIVBuhL7y2IJf66Ok/RWt0+Baq42HwLfqknSzr3y5BFGH10jrz2UNIphqvwwZeS6K1rgwI/g1yscMhukvFOgD+51WtMaFE8HXWyT0Sah2pf5ok2gNfl4josHekuq9plhprcF5bxAD10Oi9VnAm2iNgvUdG6t4X0ngxbJGgq2XsuZ8UGhuFHXdQtE6BOy2DU7RGud5vcHBh+Q76kR2rAuHMfAYxeZbCqrEHPD4ZtjvB2W4j8I2+mKfeIyCNgrTuI9lWIeiNR73hzY3QVtXXZ2RaI3jtVi07gefp6CdWjxvMGeZzlEt09hfZfDZLnx9jVyuc6yA/k+LnNQa656YH494/7zmgwiDvRdcE4Pr+RGCsda2B8VQyaXV9DDwy+A5U8tzq0/h/XeOYdsdojk8UnJpwNDtvKss2/ayXOuowkUDe8AzNGDrKZ5fWl1bWGG/RXJrFZgyI3h9ea8ehgq/xO9zRbRWrD88UJZj2yTuPy7WmVvzh7jma0svCc6xpojnRkS4Yz5r69qe+oP0S8K2QqL12eOrA2EwR71zgUVXSpAyzlYcluZ/cK23/OAoXEdHx07DtBaewrUz5UVcWVRU3D2Se4u5AEXr3+Li4q6VqtvMOSNa40JkgcnGdQEoNCdZOIrXgcriSqY2PXwlLq6VUHjNFQvQ9gm7XLXzWtwOc4lFLs6QaO0v/SOVN98yKbWw/wQ1x4UbRVqPUbP54OhkfutEZeG9j8wruvfRdD4oSs3DRiaIxRT7RybxOx9J5w8+u2h33N+X/gj1f4Q+OKcuJUjvMcl84IRka98xc+KkYQjCb1qWHgTf/CXhuM7cytoSae2v1QnWrnnU8KtgzOZE67uW7ZlwyTxz8YCFRY1TTLijLn6CqUz7WarJuSgJRjeLXNPFJ6E8maXsHMZSzP9lqcXHmGrnWoaLAbpIMS8RAmqKKY4pob0rahoFbV+itVMAT2fz4f1JbdaIxQM9URbHQd1xpjLvYCmWaIb5lTHPsxKjwo1GmINzYUlfJKJojbmmTd8wtfEd2L4n5qIyFbEF+zlsd7Kkkv6Sdz2tEa0xclxtskOfvzGV5S8szTIY+rkH2syE8pIGubnnW0LBpwDO6Rhcuw9YMlxbtXkGnNspcW5LpPzambwbzB8XVNwBfYxzit2W0aIOURs/ZfP2wPUzLWfqklGiXm3RwRxOwdgNo7P9Fa1TjQOhvyroB/7+7HxSKiUInzQSrdeG8tov5Km1nysGuowvDXlBLMZ4jonW3bt37wd+pz3aoZ2AapE6CfY7rWgNhIHvcc+2YKcxtYfk01bR+kuPdi4TX1zA1uFR3iaD8/ZcYJFE67OAN9Eao6L75zmEsItCMJa11VA4RsH47k3VDcXfForWaCj8ufZdgrR7nWvOeB7uvrjvEtHRx70O+/DVj+cYdUaiNY7XYtEaU6gpNLa/wfU9itGy8nyxmN5X+Cwqcq33ogiMwqpcZ6+VaWzzWaZ/oqwTuCbrbffDvIpE3+I+ofBZfRqehzUybeUgybFVKHSOB2FOJU4h3C4Jp7a80BxHP8mlEcEGey9ooxWR2VoHv1Z/hE/e5vh9ZvHRGMmlxVyztfIKuIbvyPOqcxXaypneUpN4cq6I1kLo1znekemqjon3JfxiQ2srDtY5ZsN1tChwcU18r9JXnYLymTd5iXAnWgiJ1meHFfBevfzg985oajh3T8E6o3ROXZCTDyIjY56JiYk75RRe20+4JtG6bZw7ojUye+cNIrXHvAOcJZo5U//GWZKpOijZ8t2lqZbvL0u1bL8ytWT7VWhpu364HLaXpu5qKKR0MtEaGTJRefPgGFVh73GuiOuZPHTkTFwYUeS/lmMeapE+ZLZYtBEXWJQPmyEWTxwQpYKyWc4I6+EzePjoRD4wKtl6Y7QzwpogWkqLROvmrKNFa/cI6zrzT7Tupja/1jXVUnbtPNMoqcg7StNIhikl1Mb6Ra6UpqlMbT7tFEbNVpZawlmK2d5I+EwxvcxSLOhTwVTGw1DvjAzGKGK1ZR30k9ZItMbFKJSmdyXR+nOptCEL9l0DdctYOryPpVgqYf8X2Jay+Sg4G39hc4ua/qOD+Z5xMcdP4A956i6nzYe+FpZif4Us1ej9g7/a8hhcCzNL2XWHVMJYmnkCXBsjtPMecYP5qDFSOh3er4XQbtoBtk+MpzaXNUjVgeeO10xtqhXXFK9t2m6cUylTFzdcnExlmSbVlYMfpgN5U6qB645fJFj2sgXwt0JttkHdEbYIPrygcO2ZLxtToKjMv8E1Fz+V9MmM7VfCvH8Ds8KcWxSlRFyYNBKtwaCsFux07VLYSuZef66I1l27dh3qpR1aFVSLX5PBfqcVrWH+Q8DXW6T4cah2CVRtFa01Hu1c9rpUX+FRjnYU7BuwdS20bDhvz1X3SbQ+C/hKD4JCrUu09WZN1aF5q29LpHVz450VI9Eax2u5aA2E5lT0g3nrhfiL/WhshbiYniLH/gw8i9WiXGP9A/pvvDh4E/TLtnSHZ+UjaCdyIsPW+VzjtXGmmlgjz6luVYpJzE8N8zQI0VTnEBHcMNbx4BxHs2KETGN9EXyPiuhhrYMH64/w0d8e2TCr+FiLBaVrsiuvkOdYP4TrdESx+RScX/VJOC+V3FDd5C+RzxXRGoH5TZJpbIcbfHGlsZ2UXm9S9Lx9hyK3qk0pEAgJEq3PPBhhjYI1pgQRYjVYBvyfuwrmjdd/WelsybNZIiNjnoyJiTssiaN15hSuY1slXJNo3TbOLdEaUZpfDFAVH3cKzhbOVCi47ONB8/Y3sC7zy3i39P38irRdj0ktnXRC0RqRIq5/6Ts+ySlcCyF6Bg8bPpuHDseUHzN5+Kg5PAwsdIQUkY1C9TBn/moUssMfnMtvnphycOhDahKsiVZzTonWXs0/0RreS96/bJ5l89DlpqY/bGPEscqcJyJ/XSRsuZhh+oyUYhvYaSHCoqiNOZzdmW/qzdSmdSxt9+8iShfev0T5q/suZirj5wwXdXQtLuiO2vQw1O9mKaZ/SyWNSTPfDO1Xwvg1MJfTLLXkKMxzM1PunNQorYcnSpyXeRVL27MfxsJUJwfgGKONU+H4PiE0eyMZU2SYDUy5w5kqBUkpHgHt8kXaFF/MFYtSLoZx7GKuGEmtNhXB/vMi/Yc7S/deLeaRtruapcK1VZv3wHyfZZ55x9Pwvhi3gd9J8LcxVXG90I6+KuNfoS0uNnmKpe06wVSWrdDPnySPelJFvuzNcH8nSSXeEX2a1op5p5bcIJUShE+8idYionqZh7nXdw7Rernk45PAwMBnvLRD+w2qxWsV9n2J1j4/7EPdvR6+ddYC0brZhV9h/n/21hasHKpdUWa+RGv0aS5SEduWerQTBmOLL8hgnju91FdClWshyLZCovVZwJdo7WkoYruilNEwXzSK0LgvA/OMRO7tVu9u6NugzE/R2n28TmMkWuN4rRKtWSYPUmgdL8E1tDuFXPtJmc6ugudDh4KkUxC2/RCucdT/Us4PQrfsuzhYa0/F9BHiedY58Jk7KtPYjisKTjjzIOdY18qyKwdLTfxCCNZah0FES4v7XsMV8JqBvpfKdbZwyc0nofrKELnG+pkCU4rAHIJhXmEFx/kN+Y5NY3/wX7gWObI19v+TaR3HnMKtg4dsruXwetkm0zd9TueSaI3XFJ8t8frCSHm0ui8h8N5Wn1BobDPwSwqpCdEWzmfRujMuxChSgngRrFfbMaf1CZZx4D+Sp99MmBBzV0xM3AHvwnVc+bhxUU3/qtkDzJlNonXrOfdEaySx6CWmLLEJ0Vm92ylcK2Er9iVLwSi+3byrsuQRqZWTTipaIzfGqkcNiU6u7vVgghRtPYOHDp/Fe49J5H3HzuVhI2YcCR0xo7rvmITavuOSuQJFbfBDw0jsWyen8MgXP/271B1BtIoGOa1dQrB7NHOjyGY0/OYVrC5diLS//Ci/YrUP0VpESUt+nubeR515jOXNRxwf5Vetrmk+0jqtpH/fz3+7bTvn3hdhdIGrDycbh7LUXwZKJU4wTQim5lCaXmXqXfc1ElVdoLiqNr/IVJaHwMf5TxjmkVYXDWmQc9kdTAmCEcipPze9UA4uTIjpNVTG14XQnV7Y7Ad9AeawTt8VzhILb4H2N8FYN7NE40C2mF8keXjnE0sPGOt2kd7ERfquK1ly0a1i2xSL4ZzweqnNrzFcLDHR7PsnpYk/wfnjeZn/wZItd0uljVHB+7lyJ0Zmx9blwHaBXwakmO6Asf4J22eZutD7T01RNMf7m25qOrc/RoGrzWkwlhbO3+8FjIgLF6+idXN2jojW4JPn0cZlOsnFp2gdFBTk8yfcUN8ekdZpkotPwG+9Zzs0aLtZckF8ida42GSTfzegnzgv7YRhlDr6wP4KzzrJfL/ntQxfovUvUj3RAfgjWqNYjelCBkqLEWLaDVx0MULvzAGNArVrwUMUpRU6O//T5mqRExqPvfVZZ36I1tgHjhcO4+DYrrY4tnv/vvbdDcvdBXZPP1/t0DzHI9G6DaI1INdjGg/bblfuYpnGdgyu70kUnGW6quMyre29loqSKFqj+C2eZbw32JfGliHT2d6BrTVk40lRHqy1ZSu01odl2dU9BmcWdoNzc67h4mJKZlBtbe01/7XUPHsdpqrQ2DdipLarX4W+ulaWY/uq57qD3j8Xe0G2zhYB1+szeK2dFuI5PD/BhmOYp32LQmv/S0h2ZaiYi8fncyzD1ynM/wERUa1z1DjFcwdHIR7KLEKA9jwHD84l0XoKnItCZ5shCdT1rzkw8Zxr7A651tpQMyFaz9kWrbMOPu8hWq+WalrOmvLecA42IVqvhf+zM8o3wJtXe3253nZEhHVFQ8EaDc9/xeETLKO01c91ZGTcndHRcftcYqnLUJSNiYk7EhMT87zk2ixRUTFvuwRw7A+OG6xxc6bpaNEars3u2NjYxilOW8m5KVojiTvv6aqy6Lqn7DkRkGw+hsbcTVl83LlvmSy1cIKiNaYY6YSidfRLX950yyRlZcTouVI09UzeZ1wSvzFOWTwkNvn18NGz/tR37Kx77n10/tPDnlyw9YaYFOEnBG7Y3j4llY9+dmGn/YNJnBtcMJHW7YWvqOQzCfwzIO11fjLP8FxRbG4PnLnGc5jKslhE2hNEM9QuDZnDtWGcLw/x37LDMO/1FqmLjqQp0foQ1LsWI2xEE1HKaHUL28L+Eo86l30huTQiKChI7cVfGNT5K1pjtLfPL5ag/iFv7dCg7iPJDfElWp/u2rXrU5KPNy6Dfkxe2qEdgHrx5SDsv+xRJwzaLsJ6X4DPfeCTjwb7BjTY3wjm+WsRX6L1Hqme6ACaEq1d4i5u6xc8tIkyV9R1MBgu2IiLHLpHYrvvu8xdLK4zFBb9iLT27A/F67s21gvZnqlHcN8zMhv7wLnevrF+UUVPvwZ9SIb7KFaL8YS4KvmQaI3jtVq07qM50lOmtX0lriFeS3z+UIjF89DZLfK86sa/NmsGT9EaBXFZji0e567QWP8D5VbFxj9EtDPMvQLGz5TrHQkw7vTrdIduxYjoYE3lXdfl2N6+f3P10ugff+eyzae53BVhjeeMgrXGujR4vb3pRcS9EJJ9NFSudSwWwjX2ia87mCc8Xzbo82vnXOz/7ZldeXeP7Iq+TqHZkQDnkC7T2ExQd9opnldzIT5rbBZo2/Qv7yTOJdEan21FTlUUzHOf+/sAPh/yvCP4Ws6X5xxuVZoXwgtnXbQuf4atqXIXrVsfaY1BWhllhaK/VTboq/QgHIs0cGedjN8GN4qwrhOsDx1mGQfq101qJTExMYOjo+M2+BCuT0dFxTp/Rd0M0McjUhshWsN2plR1Vmhv0ToqKuoS6KMIz9HZX0x5+0Zax351borWwKWzS3pemmp+sHtqyUiGeWfnSob7SaZRYjvHI3pORFp3TtE67u9fvHPL5LTTMmlBxX7jlfzuR9J33P2o6kbJpY5n31wTfMfktFUYhY2pQzCFyIBIFb/rkdQvp8RnNsyRSxAt4JwXrWHMq1afQdGauDDAqHaVCRevPKvfjBPnDrVfyKfVrg3dV/ul4je/bSX4L5Uvk7roSJoSrVHYNHXt2vVWybeOwMDAp6D+hKe/y7p161b3c2ro42NvPpLhr8Lcv/C7Fvw/9OJXZ1Dvl2iNBnU/wfwbpfGBsseh/pinv8ug/hbJFfElWqOdxBQpkl8dcP6DYOxNXvyFQV2K5IrgPfA2l1rw8yWaoCD+i5c2aHdJPi6uhjKrhw9aLX7xIPkIYN4oVjT9qyPCL3yJ1ijkDsxz1B2j4OtVdJbq3Bc19GXYn6eQLATLFi7E6DKM/kaRGec1APZRVMZ5oOE+lrnPGYVnXFyyH5Sj8NxDY+N3gB8K8tgGBWmMEEdfrEMhHg3368aT+hJGojWO12rRGpFpKzF3cVndoolaeEbyamphm90aUbhxpHUNV2gcC0TEtoF3UeTYX4fnoBLFbMWmP5w+4rm3nQTbDm1zZBrrL/D8ne6hq+ZX50j3Gs8XU5aI/NGtE6xdKHKsYfL11s/g+TkpxHA4d3EtcS74TGntp2GOMAerQaa1WcVrE8rF/c3D+3wM/GEuOocR5jlR6rZZzinRGogw8Kvg2VigyD1ySrouksiPkfiOxGHcS7pConWcddG64l6WVX5KLECIOZ2zystZxsFWLSAoyCxfLs4hq4JL5/SGz18YnymWlY+AuZSxr2uc19hlOM/lFbvZstLbJM82ExUVdV10dJzhoYemCNEZhVM0FGdRuIa6ur+3voiOjh6HbdGwXVRUzD4oa/EXie1Fe4vWw4YN6xIdHbPBFU3uPMe4mTExMc2uAeMP0OcX56xo3So6sWg97OkFC/uOVwoRWjF8Jr8pTv171N8+/YtU3YjBU9SyfuPn/BIxZq7If917rJJfH5m4GcpbsCo0QTTk3BCtpVQgXuvOcKQ1cWHgXLzyN5Za/IRUQhBNwuNZF7444qLa7H7d/TX05+lDz8Q/Ak2K1pKdBFsVFBT0EZga7EePek9bJ/UtAH+fKTLQoB5zOq8CywE75Cr3ZeDvt2gtGYrrK8HP3/lrpa5dNCVaC4M+vwNLAJsBx1+D+RT0wU5L4nAdOC8vfsIX++zatetN4HYNWCgcTwH72YsvzmOj6LAhgVBu9uYPhotQZoN9Bj7fg+0C/3PnFzudGG+iNYq7mNrjrk3VQmTGYyEYtdCwnast9oP9NUoZgkJdK0Vr9+hr7N9dEHc/dh8P95tr56vOvZ2wTiBay7SV7yngvik2nOQhm07h+ekUBdYwyaN94TwwWG/9QJGLUb4w3kYYT2fPCdMeVkgeLQYXD4Tnb7lTsHXA9azBczgG17RFCzC6aCxaO+/P1ZnOlHDytaWXyDS2p+D5+lqmr3aK1xt+dwrBIpc2HAtRuEa0RTFZpODQOY7DPL+XaW1vY5oPMVgbEMK1zjEd+tsq01UdUxQ4xxVR1Chiu+Yiidn4WkAffJ3C9dkvz7F+Kl9vHSt15xdwHZ6Xa22/h3zL8VpXBWusDRdj74TI9faJcI0Oh2z6w3lfNp6E87dZ4fwfje8Mvxw9XzjrOa1t4Syj3CoiozPLuEjtkVXugLl8DsfJMDdVA1tekcYySv/HVh/2LjBmlL3Kso9DXwcxR7Rzm1G2BfpSs6yDygZ9tdaWV8yH/vyKWhaC9fJDldLCkPWGc8xCwXp//dpL7QQK11FRsRkomLoL11L09Kno6OgmhWunSIzRx5jv2SnqwrYG+vwStkkxMbGqtlp0dExKTEyMEsby+WtJF+0tWiPQx8co7OP5ucR5TBkCNg/OXeltzs1bnBLbQh8l0jwvING6k6YHCR89Ky10VCIPHTGbh42ay8NGztxzz6Nq33/Ip2QG3ThJub7/BJVIJdJrbDLvM2Z2fvDo2fX5ZgmihVB6EILwgsr8FFObTSzFOEIqIYhzGX9E65bYH+5R1hJXQrm3SN9WWVDLReuWGKb8QIHYnWZF65YYzHeO1K8710Jduaevh9nAfEaHS3af1F8DoHyph59Xg7ntlpoQbaSp9CD+RE/7MhSHI/QYvVwvGnvtzykq+i1aY+S0qz9/DIXmezZV8965bmk9mrCW9N0ZRGuFtvIvMP42mb7qR5mu6meF1q6UbajumJ/Cx/NAud7+HIz3nXM8x88KnS1Roatq9U+qBxsqLpNrbZ+I6yhFE8N92h+itUZKLi3Cu2htW3xNduUVkosgTHtUgeI13O/VMq3jV9g/5op6rjNMBaO1lci1jgJZju3tEL3tpmG4bkx7wXlQWO6RIXA9p8l19nyYt0U8V+5zQMNrorVXwvX+Aea0KERbFdma502ht0VDPxvkuVW/wjXJhWdllFTVacGFOOVa69fwvP0M92E7PuNwT9LDC2paHd1PeOFsi9ZIZvkKlnPSOT4azgVTheBcPE17GkXoGpaxL0Rq3ZAVh+RQv4utR20AhesKZwoOb3211vI4zqH5NV2W7XcK1jg+CvJ4bpgG5RvoY3lFrrj2HUh0dGyyD+G62YjryMjY/6Ko6xJfcTtx4mSRLqQ9DPvGbVRUXLOLRHaEaB0VFRUO/ex1Cdeua+M5z9aY65qhXRiiNS7c1UlF69ARM9LCRieiWM3DHpyLiysW3zw5zfubB9CvX3L32x5SawdEqrli+AweMSaJRGuizZBoTRBeUFlmMbX5e6Yu9r6gI0GcW7S3aP2S1G8DoHyah1+rrYNF679J3brTbqI1zHUT9ufstiFQfz/Y7+7+LTSfKYtg3OFe/BsZ+BVLTYg20pRo7WnugjFu3VNv4L57JDKm1LhlQxW/MR/Ta9SXN7IWiNbY/xDorxfmsXYrb85QPHePmG43O9uiNRC+0XF1T631xp562009cipuluts4ShmS9XtTvhG3mA8jBhuy3h43WQa6xdOgVlK/aCxf6nQHWiVEO6vaO0Cc1jLsg/fAc/bG3K9Ywncy8/wfsp19s+hXQI8cyNDtIf6M1wQvKPgPDA0p6JfcM7hEXKtY5ZzbJiDcx5LUKgO1tr/0jPbdlNojgN/ydIq8AuC4PXWISFw32T6ysF4raSqTsvgTN5NkVs1EJ81fO5wK8tte6Q74cHKskEss/ykiATGaGfNKfifuOzM5jDOKL+TrTh0gK3/ndflo/ZlKBpjZPbqvb5/5fHl3tvZ8ortIn80+qNo7N7HajCM6M6saFjur+E1yijz/MVbQ7LKxrPlh2qEGI9pT0RbO2fZQkzPZp97f19qb6KiopNQOHXlb0ZDYbU5MXXKlCndoH5WTEzc0UmTpgh/9z7aas6+0B66XxrSJxMmTJBFRcVU4hzQYP9UZGRko7R6LSUqKuqemJjYb7FP1zXxNte2mCSKt+rXQy2DRGuvDIpOmhf2YCIPHTmTh4yYw297KPXQC/Grb5eqG8HhQ83NcSpdv3EqkR4EI637jUvY3GNYPKUHIVpNvWgNf+S8isL+GvyhzjrajGjtmebD89hV5n7sbt7qSLQm2plkS3emNq9lKnM2S+j8/5QQhB80JVpj5O9pj7Km7D9Sn94IhPp1Hv4+Lch3vmas+5/UpwCOfYnWpV7KmjJf8/clWleB2T3KmrI86KvJv0VwLqPA76BHu2YN2n0odeET8Jnnra27gU+J5E60EX9FaxSl79hYxfvlOvM/R+gxh7Rz8UVX/uchhvoFDtEwsrlZcbmFojWO0wejpuEYzV0o92Xuc/DWxn3O3sxnfScQrc91QnT24XBPjK50HOK6aqzvtzaiWRKt1f6K1i5wvAjDnqvwPqJFrLJfJd9eeolUfcbA9CU4tmseLpOqCaJjyNjXj2WUFbPlh3DRwjK2ylbJMkqnSbVnjq92DWBZFekss6yQZZY75+LNlh+qgO1PbEWJz0WsBYv3XMUyD/4L+lwF/htYRvkB6NfVT2nXrPLKntl2HpBRVg7lpVK5f7bKdhiu0RJppMZkHrgF/CxsRSVey/p2yw8dZlnlq1jmmX1dR0ZG/z0mJm5vVFTswaiomDI0OK6Ijo6tgLI4yc0rKOxGR8fNBd/s6OgYo3sfbTHorxyjp6OiJt4hDeUTKd3JjzhfmPdBTL8xfvz4AVJ1mxg9evSlkZExT8KcFkK/Wzzn2VaLjZ14GPpvtK5M+0OitVfufDgtfWBkioiaVgz/mN86OZ0//OpXaVJ1Ix5+delDg6OTKlHgRtG6z7hkfkOcatngKfG0ECPRaijSmiA8UBdFMJVpG1NblFIJQZzr+BStg4KCMM/xONhvLp8z5kIeI/XXFF3BD3M3n/Lsw82Ogr3VtWvXW2FbBobCuae9LvUngD69itZQngiG+bQPeNa5G/hgPurRUnfe8CpaQ5vd0jw1nnUeVgn2LvTjb55QzFu9GNo0lRdbGPhtB/P75/7gOxPa+ewX6kslV6KNNCVao7jrEmxR7EXBGhcyxH3MTY0LE+I+GgrJLY2AFtYC0RoNBXNXmg+cAy7u6Dmm+7zdDf0wXQku0OieKmSgwbmgo+sY27qEbSzHelddAyPRus3IdJWvynKszoUk84/htdyhyLHeK1W3GCFaa+1qXLCwJaI1QVzQZGYGsS8PBrMv9yrY57/J2af7QlhmxdkLKswsvIytPuycizfDeS4p79miX3mgb2aFTKQOEX0cDI7c6OiTtb9mfBiOhXWe4zRlmJpklf0qqffGZOy7hmWU9/bazmA4K4uIjhs3rkdMTIxi7NiJcqeNlU+aNCliwoQpMsmlWaZMmXJlwz5abxMnTpRjBPULL/i1Nk4A+PfEsdEwXQjMpd1/AYMLNHqba1ssMjIyZPLkyWcgiIxEa6+Me+7TyTdNUh9VjJjFw0bM4CEjZ/OhU+edGPHM/P9gVLXkJnj0ja8mDXt6oS1i9FweMgx8R8zk10cl8vF//exRyYUgWgWJ1gTRkIjFe2Rhn+76QLG4pNPnKyQIP2kq0nqF5HN5YGDgU3D8RVBQ0Ldg38O+Bra48GBTYq9XunbtegO0fxdsLbTfhn3CfhbYv7p37+6+aAwuBIT/3LkbljX4Qh7a+xKt0yWXq2H+z0DZl1C2FQznnwPbOWAPSj5N4SvSugLqxGcy6GckWCKU5cEWheQNsP8pjgvVTUcs+aBbt279oY9/gWVJfRrBMAJdB1uce4uvPQL9DoA+/g2Gea710E8+bNfAdhZsH5DciDbiS7RG0RZFaYxs7qmx1ZW5C8QuYddbnTfzWt9C0dplKDqjSI7R3+7zQMH5eoOD35jvqJu3y9Cvb66DD93gjAjH+WDakDvdFojENnjOKGyjT6jOIeqxfaP5k2jdJiIMFTK4psvkudWnxXXUVx+X5Vg/wmhjyaXFTMnkQXKd4zG51lYhnh8SrQmCIIgLAhKtvfLAI4v63/5QyqHeYxN56LBZPHQ45raezQdFJZ687SFV1pCopPmDY5IX3jZF/dlNk5SVfcYlcQX44MKNKFrf82gaj31lSZM/RyCI5mgsWjeVnqMZ81e0znLbb9L8mAuMedVqEq2J9gO/NEzYsu9i2NLK6sT5gj+idacmyLdoPV9yaSu+ROuDUOd9hf2OocPy6RLtjy/RGgXa3nqHEIDdRWF/TAjCbm1c4vCfNteLw3X+rRSt0bAfz3zZLmEaI7Bd8xbR2VI9bnF+7m3c+8A2eM6uFCSe9Q2MROs2IdPYHpBrbbsV+ce5wnAMnhlbuUxrnSBVt5qwXEdfuHcbsF8RcU2iNUEQBHHe00i0LjpzonWCh2g91/i+VHPWiX7p8//eMintZOiIWTx0xEyR2zp0xAzYzuZ9xibz/hNUvH+kmvcejzms5/CQ4Vg3g4eBf8jwmXxInJqPeX7Rly/HZ569n58Q5zznfKR11lESrQmCIJqGROvm6SyiNXEO0VR6EG8Cb3OGoi8ultg718GDPeowD3ajBRFbKFq7IqQ9y9Fc5TgHl2CNZbgYZLjedztPwzFc7T2tQR8kWrceg6GLXOv4OzxzDsxnLXJaa2wGxfrDAyWPVhOuc/SB5yefRGuCIAjiwsFNtGabjBz2z7xonfIbF8J10s54qeasMuyJBe/eMin1VMToBKdQPWKmEKIxghr3MaIaj0OHzxL5q7Hclfsa04kIgRtsQJSa3/aQ+rPBU9QkXBOtomnR2s+oa4ycFuZLtD4Ode59efbb2uhubEfpQQiCIJqBROvmIdGaaDH+LsTobijouou3uO8SeTG9xk35VSLa2VO09ioat0C0RjFZLAbpFkXtMhTDMYrbvQwNx7yloIpHtEC09mWNxiDRutWEfH2ov1zryMMIa3ENNdZahdbRLv/jYqQ13JMCEq0JgiCICwcUrQ2/bBGi9QYUrXf8wfJ/PjOidZLpJrBKp2i9j7PEIg1L2HIGEnn7ZtIrX7xz59T00yEjEoQgjdHTEQ8m8BviUviQmBTed1wyD31wLg8bJRns9x6n5INi1PyOh9N5v/HJol0YCt0jZvEbJqZxTCEyMGYm/VNFtJhmI61RbHaJ0t7qhUmic7OR1ujnYULMRvPsz628bnyPclFH6UEIgiCagUTr5iHRmmgxKFrLNLb5IkVD/jER8SqiXlGQdYmzboZiMYrGmDoEU4CgEIyCsPvihk1FKjeyFojWOJb7YpCuchwPx79rY7XXVB7u6UHQ0B/Nvd6178vwfDBlyL2bquvbkmjdSniAXGf7Jzwvx/D64fMm09oOK3TWqZJDmyDRmiAIgrjwEJHWv2w7K6J1+q4rWZJJx1L3c6bazQNUxX8EJptekmrbnQ9TcsJem509+Nl3Vg7690ffDPDMiXr3I2nv3RSXejr8wQSR7gOjp8PHKPmQaOWB2x9KfWvkU5+8fefUtO9umKg0h42aZQwbOdM4ODrZdMeUeTvGP//prMn/+PxfDzw+/4eIMcnQVoq4HjGLD4xS8yExyZ/fG7OwwT9W0xLX93rpg3WDXnxz9eD4RIPvFVqJC5Yzmx7ETWyua+Nx3GKjSGuCIIhmING6eUi0JloMLnon19hmy7SOSpnWXinX2g/B9jCKsooCzDV8VOQbFgJy7hHeU+vgN288wgflV8N+FQ+GYxSSXYsbCjG3JdYC0RoNxWOXAO0t2tr92JthJDimLxlkcC4wiW1u3+jMtY312Le7wO2+j9ZgDBKtW0WItqo/XLMCcX8xuh+2Mp09o+eag8GSS5sg0ZogCIK48DAYurD8X+eyLWaR05oVnEHRGkk0v8PS9nOmLOYBKb/xrim7jgQmmV5ms3++VPJoM6/PWvfgc/9dlfzUW8sLJ//7q/JJ/1xa+sjry/Y+9kbGF+NeXPzsmGeX9Jv4r6/evWPqvNqQ4bPFoosYLd17bDIfOCG57KZJqrFSV2zYI+nXTfzHitCbJ6eF3ByZFjLxH5+Hjn3+c7lUzaJeWHr9TXHqHwZEpYoUImEivchsPigmld/557RFaRlb7nwnWTvtL28vT3n41WWWh/75VdlDr3xZPuXfX+aN++tnMx+dnvGE1BVB+BatvUVXNycwn42c1iRaEwRBNAeJ1s1DojXRcuJ5YIjedlPweuvDMq11ikxrnxSsc0zF6Gu5zv69XGP7Xq61bZPrbN/LNHYHCtg99Ud4MJjCFSWbWyPK8FiIuE4h1z9z+rZqIUbMm92UUI2Cs6eQjkJ3/zyn0O4SvVHEDpGitzGKuxdGkcM+tr1nU7Uz1YlHP8JItG4VcL3+Bdf3qByj+lGw1toPBmsdDzPO22URVxKtCYIgiAuTgh1T2YYizrYUn9lIa2Ru0ZCAZHMpm3eAs0QLZ+rfeKDScjow2ZwD23iWZH6fJZo/EJZs/CBIaflf12TLrIuSCsOlHnwS+8qqq0b+ZcF7w56cf+jmhxbwvuOTee+xicL6jEvmAyJT+A2xybzvuDl7B8Uk1YY/OLdOsO41LokPikwsu37crDFSd34zdJLy+hvjlNsxbYgrDzb2OzAyiY9/cXHliL8s5gOiVDCHJJgLGs4B5hOVwu99bOHJYY+nvyp1RVzgNBCtvYnS7uK1P6L16mZEa1d/nubejy/z5k/pQQiCIJojxIsY6zKt5NOpCQoKivUydxStl0oubQVFa7tn/2C/Qx0JNkSLCM1xXBOssd6AJtNWD+qpPXKjTGN7Waa1LZZsIW7lWluhTF91TKa1O00jtidQjHRFaAvLOyqlHHHA1s1aKVpjKhIUlHFxR1dakgb1YJjC5Ib8qkaCMx67l7mEbdwOMjijxntobKIMF3BEQdvl28BItPYN5wGhGfsuRosw7LkIt/Kcw9fDfXkNzOhMQeNwfumhsWUEa470lFq2GRKtCYIgiAuTDb8+3kC0LtjRYqG2TSQYH2XKXVUir3WSmTNVCQ9I2w+2jwdAGRoT+3t5wCeVPFBpLmEJhddIrb2C6TZGP7d42U0PzeMhI+ZwxTAUoz8W4jHuK3DxRCnvNOalxjQezkUVZ/BeY5L5gAmJZf3GzBgtdddieo2dORCF6wHRKTxEpAmZIRZplA2fzWUPfFy3sGPIcNyf4RTLcW4jZvNeoxN+vz4ySXn7pLl9pO6IC5RGkdYZHik8/BWV0Wd5M6K1e35sd3Pvw7X1rHMvb1BGojVBEEQzXISRymAxHoZC8B2ST2enJ87Xc/5du3a9WapvK4HQ34Me/aPhL+G6OF0Iog1wHnBNtuWKazcdvryHoeKyqzN3XSnXVd8n19r+jqbQ2P6m0Dv+Gqy1TwvW2PNlWvsumdZWLNPYLXKN/TcUekXebHchO/8ECszHZHrri9IofkdaNyVGo2iNOahvKmgsWjdl2M7dH4/d6xsYidY+CdYfGSHTOZLgWUiR6R3JcB2VMo11g0xfdVQI1nD9FBvg3udYK2V6+2SpWbtAojVBEARxYVLwy9Nsk5GzzWYwE++av+NjVsi7SbVnhoTCRwNUxVUB6eWcpezlTFnS2FS7nHUYdd0EY55dcM0Djy9cNiQmVcotDYbRzqNQEE7kvcckcsxbrRDCMS62OEssnIjCcsToBEwJsrffmDmtFqxd3BiTOPDGWNXWXmMTRX5rHMO1QCPmyw4dlcCxrtcYXNQxQQjnYp4j5/De41T8todTtj315vLrpe6IC5DGorWHKNwS8ylaH68XnL0Jz82ax+KLDYzSgxAEQRAEcf7gjKq1DZPrbfcrcqvulWsdY2Uaq1KutWeDfS3XWtfKNDadTGuvluscNWB1kdYKnfUeqCsO2XhSROIKkdMpDvs0FJox5QemDHFFXqPg7L7IIu63RMBu1ki09gnczzflOvspueGYM281Gt5HNLhuigL8ssJxTK6x/y9ilb1d1ywKL7D3hufNQKI1QRAEcWGRv+MOsDLMa822WHi3gh2/B23cMVyqPWMEJRujA5KL5wUkW/Z0Sd/PAzBlCOa7dtn8cs7UezhLskRJTbwy/oUl72M6kJBhs4VIjBHOKFT3GTPHfkNscumtk1Vlg2OTDw6JVfGwkbOFiOxcNHE27z9eye+Ymtpui0GGj5g98vooZU34qIQ6YVw+bAYfHK3it0xKqbx9SmrpLZPUZRGjZx/CtCWhMB+cC0aD3zBpAR/97KLPpK6IC5CHCw49cM0q+y624iRnGTWcZVa5CcLNmKcI3dac1i0Ws8GyjlKkNUEQBEEQ5zUoHIbqK0PCC2rkEYYKWbCmvLdca31OrrG/r9DZb5XcWJj28O0yjX2zLLfaKtfaDoFVyLT2KpFuRERqS4aR2vpqIYKKBSI3SAtEehGmcdHFWwqqeL88H/mp/bBGUdckWvtEprO9o8g7whWbTklR9Zi/Gu/fcXHNZPqqUlmO9f8iVu1p90X2gzVHbpBrbN+hMI6LPOL9IdGaIAiCOP8xGC4KyN+xMWDbbo5pQoK2FvOLNxa9L9WeeRLNgy5SW+K7qUuUTGlOrLNkSzJLMicwpcln9PHf4lcrHnhqgTlidJKIXMYUHH0nqPjQKerNDzyx8J4bJ6cOHBKXMijyn0tuiHrpc9Wdf17Aw0bNESk6ULweFKPmkX9dPHvYsPh2+bkpjjkgMvGIM5J6Bpc9MIPf+cgn/C9vrfjmXzO/uX3oI8rrb4X5DIlU3jwoSvnFwGg1D5Eiw0NGzeU3xCotcS99NkjqjrjAeCL/4D3hKw6XBGGkNaYGEcK1r6jmZowWYiQIgiAIgjhz4IL3bvQw8MsUOseDroUh5TpbrEzjeFmusa/HBSHlWvtWsC1yjW2nXGurxWhaXASyp77auUAkitkoJrtZsK6KX5/nqFtkUYjOLTBsc++mah6uc8uhTaK1T2T6qscVWvtGud6OC3hWwX06Jdc6fpbrHFvlOdbP5Tn2uMFwnyX39oPzAFzUUaaz2xQbfufy/GMcnpslJFoTBEEQ5z+cB3UxFKUHfr+Xs4JCHrDtN961oHDTMM7PuTyBY55f/NDNE9XHFMNnC/E3fHQiv+fR9O/j/vFpX8mljinxmd0e+0+G6vap80/JpZzXfcYp+ahnFv6AObElt1aTnLGhx/Pvrfi699jEWsxXjRHWQ2LU/Ln3Vn+Tua5QJrnVcfWDM64cEDl3ad9xiSIPNgrpuDjjTRNVGf3GJXeX3IgLiDd/PRL8zNemFVFf7+GDV1XwK5Y7OFtWLQnYKF63QMQm0ZogCIIgCKLTEby+vJdMXz1Ypq0cpNBVDZDrbPcpNNaPZTrbIpnGtkCus8+Taxwr5BrbIZnWfhzsKJpca6+Ra22ngw3HuSxPyqeNEbgoOLsvComGC0W6idXuhosyKtzLSLT2yTVbK69Q5FYNDDZYb1DobC8rNLZ3ZbrDd2DamH7ZZT0ktw5Bymn9gVxr/VQ8G7lVT/bLrqX/EQmCIIgLgPyiW1n+jr3sWwtnG008YKPp2CUFRf9hmZlBksc5wX2Pz08aEoe5rGcIu3nyPP7yBytnStWN2L699JK7H523wbkYI+aZnssHRyd+1x6i9ezFhuFTX1/2R9jIuWKRxZBRc/j9j8/fO+ezDQMkl0b0GT27Z69RM3dgZHbYyJk8/MEkHj5yVv7gYfHt/409cU5g2LTt9ozcrXM+Xv99/itrfjwcu3xn7a0r93NZViXvjulCMPraZwQ2phORLOsIv2JVdctFa/cUI65j93pXmVcfEq0JgiAIgiBaSoSBX3TtaufCkMGa8kt7GGpkCp11anBO5T9kGtvLMq31JZnG8aIzn7ajUKa1lUC5Bcws09oPuwTsOnPlz8a0I+7mHmFNonXL4DxgcGHhGV0HanAm74YLhqKx7byrVEwQBEEQFwD5O14Wea03FInc1l03Gv8Iyvs1Uqo9J7jj4ZS5A6PUPGT4LC67/2Me+/ev+EfzDXOkaq+Ejfh4VdiDiTxsxBweNiqJK4Z/vO3m2MVtFq1fTcgeNvzphTVhI2bz0OEzeL8JSh73j88L/xq/oqfk0pih8Zf0eXD2hl5jnNHWOK+QETN0waNnXyp5EBcotb9sDS3Zop+oz8+fnb5+k/atr783PrJyR9W9K/fw3ssr+KVZDu4Url0CNlhdRDYK10cp0pogCIIgCOI8AlOOhGgq78KFIeV51j/hYo/BevvTcp09Q6a1rwNbK9PYV8u0jh/kOsdJucZWi9HZdZZ7hDvzaDsXhqwTt0m0JgiCIAiiU7Gp8Jaggl+t7NtiHpBfyNm23bjdzvJ/7C95dHpunaROHBCpFvmpez7wMX/o1Uw+c0H+bKnaK4phH60MG42R1s7IZhStI2IT2yxav/LxugceeGJ+DS72iFHfAyJV/KFXvih6+fXMRqlBXMiHxl/Sb9ycDb3HJov5YAQ4idaEO7W1lu5HfzGEGr/bfG+2YdNL8/XbFv1f9vYtz6zZUTl6pYUPXlnOr1np4IHLJQHbFYktpQd5adUvK32K1g2ipaG9t6hqb+Y1yhr3a2ghRoIgCIIgiDOMbEN1j+vWH5L3MFTIeuoPBsu0jtvlOtt0udb+oVxn///27j3Ky7rOA/iPm5V5obISAVNDg7Sju+qmbMe4iJKgoWYRbpsdu1jppltb7ul0sN09KzcdLgm6ZF465SJ3VIhAh4HhMoCBMDBIglnrsZvimmm1q999Pr+Zp/P0awYGmGGY9vU653N+P5/L9/c88I++z8fP95u9lj1/S3wev/SFH/Ra9uLPe5U3htyTfZbrf2OjweOXPv+99thQEADggBxVu63qiMd/kkqrGsrzrUsbdqfSiq11pUe3nd50yWHt3I/cMaF/bGY4aFyKOdVnf/Tb6R/HP1zVdPrPTPpe9XHnXDX98d5Dbkt9howvjwc55eKJdV8aO/+g/wXttntrB1914wO/6z24caPHEy+8PX3w7/9jx8T7V7fYaf2BMdNPOePSqqfK40EGTyiH1n2Hjn902JfvF1rzZ1JKXdIzW97y1Ob1Z1SvXj961mNrJ9y2dMPC6xf+6OnhcxtePWvuf6V3zHk+HREB8qxX0pvnv5w+t+CJOSnd1UOnNQDA/yMpdS09mLqVK76n1O3tMSf5B3tGHd+0MWSvpb++PPuc2Gv5S+tOWPbCN965+XX/DQIAHCaWbTy2+4qt3+2yflcqrdzeGFyv25W61Tbs7r6y4R9Kh3hu1/66/Pr7h5xx2dQ90Wnde/C41HfIpPTxr8zaddt9Kz/YdMmf+MwtC246/+qZ6YRBE8qdze8aVpWGXHv3j6Z/b8tBB2zTZ9W+53O3LPjpuy6aXN7k8YRB49Ppl077/cjP3fsvETY2XfYnBoy8/d9PGzG1HKDHHOxTR9yRzrpi2qNjxy46sukSaFFK1d1f37L2nT9Zv3rgwyvWfn36krWLvvHQxu2fmP/E7wfO/1k6c9Gv0g2LNt0b1w6Yv2dU11kv/qE099VCyJzPwI4u7cp/ziu/Nqvoqi53ZFccz88JrQEAOpWYoR2bQp6y9DctjzQEAOgQ1fVHda+pv79bdFnXbkulmq2pS92u1HVl/eulFVvn96ipv/oNa+r7laqru5fS2K5Ndx0WvjJh3rsHffLbP48xH72HRLf1renMK+5Mn/znOc/cOrN6UEqpW6l0VbezP3tXjw9cPfPvBo6Z+eLJFzWOBjnhg+PS+y6/M435p1nzbrpt1pualjwon//mwlvOvGJ66hOheHRyD5mUzr5qRvrYTQ/csmjRxiPjWUqlsV1P//CkvqddcvvYUy6e9EqfoRNT3+x5+gyemM4YNW3PhdfOvCJbqtmQG1qSUv0Rr+9c+fYdG9b87eLlK742c+nqBeMWb9gwfen6L8b58xc8N+It//nL17rM/V05XP5jKF2egR2Bc4TVxc8DKaE1AAAAAG2luv6oLjVb7uu68elUWrur3HHdJUaGRNd19tmjZtuTPVZte+io2u2zeq7ZOaZUvXl4KTZtbM9auXVk6dEtl5SqdxzX9JR/ZvgNi99w5Y3f/7cBl05LJwyaWA6jj7/g1nTqJVPTeWNmPHvm5VMXDfjwlIWnXzb1kVM/VPVSjOyI0R0RKPcdWpXeP3rGq58ZO++ipuUO2hfGPnjUwI/fuezdl9zR+DsRRg+dlM64bMprZ46a9uiAkZOzZ5m8oP/Iqvp+H5qcYv517wjQB41Pp428Iw2+5u4ZTUvBAYvO/pe31/TauW7le+vq6t4Wx762bNeJ1z28tW7Egh+/1n/ec6nnnBdT93LHdKHK87Dj+4EG10JrAAAAANpSdf1R3VbUV3Vf1fDLLut3p9KaHzeOC6nd3vi9bnfqsWF36l5T7sD+fWlF/R+ye/4Qn13ao2rq/6e05qn4jSlNT9islFLXgVfPGHfK8KryXOs+g8eVN0I8YfCkdPLwqenUEd9KJ108NfUdOqlxDEd2PmZan37Z1Fcv+vR9n2laps2cP+bOC8668o6f9b2wKvUZ1Pg8vQdNSH2HVaVTL5lWrhOH3Z76RnAegfUF47Jzk9M5H53+q8u/+N2/bloG2ty29Sv+avGKNf8684er53394Q0NV8zd+tL5s3enE+f8Mh09e0/q8iejQZoLpfdRNmIEAAAAoD30eGzL2aUV26Z1Wbnt110ffyaV1uxsnHe9Kqv4XNmQSrUNqcuqHdlnVPZ99Y62r1h7409SqXrrE6XlW97Z9HjNumf+pp6XfeH+9e+74tvlQDpC4j5DshrUOCs6RoeUx3UMnphOvnhq6j9y6qsDx8xo88A696HrvjPk3I/d+bOYUR2d1OWO6/j96L7OnqdxHMiE7LkmpQGX3pmGXHPP81d+6YEYCwLtKqXUI+3YeFz9utVDHqpZc/29P1zzwDce2bj9UwufeGnYvB+nfvN+kY6ZvSd1nfXfjZ3Xf+zCbk2QrdMaAAAAgHbU7bHNFx9R++SSI1dt/3mPNU+mUs22xsB63e5Uqnsq+8yqblf71vpdqdumZ9ObarbffVV5PnXLbp64+NxPfG32wrOu+NZPTxk+LfW9cHI6cWhVOnFYVeo77Pby53tGTkvnffyu7e8fM+Oaptvazegvf3/IsGvvXf3eS6e8FpszxjiS6L5urNvTyRdPSadfOvn5j94069GvTlwisOaQy8eIPF5Xe87DK9Zcdd/ydVPGLan70Y0LH39pxNwdacCcZ1PPOXtSt/IYkd+m0qys9tqJHaH1y0JrAAAAANrR4sVveFtdwznH1jZc03VF/ZjSY/WfLVXXP1KqqV9bWlFf2/61rbbH6p0beq7aPv299emIpqdqUUqp+6jP3zfgtBGTJ/YdMnFt70HjV/cZPK42qzUnDZ2w6ozLJt88/NPf7dN0ebu79qZZbz139IzLT7rwtm/1GTx+XZ/y84yv7T14fN3JF028Z/A1dw1cs+anbbIJJByslMZ2fXlDTa8NtbUfXlRdM/7uH65c9NVFm3ZeOXfby+fN3pX6zP1VevOcF1Np9kuNndfF7uvy99+kngteEloDAAAAcIhVP/3G0rKNx5ZqG44+FPWW7Lf6HECw2+9vphzTb/jYY94zcPzR/YZPOeZt2WfTqQ5xyoXjjo3nieeI79mhLo1n4PD0+nOb3/F43eqhP6iuveE7y9d95+sPbdz0qQVbfj1s7pOv9Zv7i3Tsgy+krrPywPrlVJr923SsmdYAAAAAALS39OyO47Y8vu7smtrajz3w6Oo7b128sf6GRZv3jJj3ZOo/97n01jkvpC5zXklHL3glfWThtoVCawAAAAAADon07KIjn9u09qTVq9eNWli99papS9Yv+eqijbs+Mm/rKxcteiZd/8jWB9OujfF/EwAAAAAAwKH1+s6Vb3+yruaC5dXLb7xv2boH7lm+4bq0cWOPptMAAAAAANAxfvPU5nc0NNR26Px4AAAAAAAAAAAAAAAAAAAAAAAAAAAAAAAAAAAAAAAAAAAAAAAAAAAAAAAAAAAAAAAAAAAAAAAAAAAAAAAAAAAAAAAAqHBSVtdltSSr6kLNyGp0Vj2zAgAAAACAdndrVmkftSerqqzemBUAAAAAALS56K5em1VzIXVLtSmrzuSsrPLu8VFxAAAAAACAw8+grKJ7uhhI35PVNVlFmB2OzyquixEhr2aVX5ef7wzifYrvBwAAAADAYSg6pvMwNwLpmGe9NxFgR8dyXB/fOwuhNQAAAADAYS7GZORBbtTwrFqrf9NnZyG0BgAAAABoY7H5YYzpiGrtaI7iPT3jQJM4Xuyynp9VW4vfi9+9OavRWcVc6dY6L6u4t7KbO9aMsD3WjPP72hAyf/fiJpPRKZ4fz6s1G0u29fvE91jrlqxiveLfDwAAAADAYS86ofPgNUZ5tCZoja7i/J4IR3PFzuOo/Qlg9yUC2qezKq5frJiNvbdnj0A+vzbvio7O7pY2i4xrmluvspN8bxXhcUva430q//yjqrICAAAAAOg0IhgtbpoY3bl7U3l9cfxHMcyOMLitRPibr7u3ii7vlrrFK0PeCJ+LG0A2V/EOlcFxW4TW7fE+zQXW+TkAAAAAgE6lGDbva6RHsTP7uThQUBwNEp3CbaEYxkbIfGNWxSA3OpZbM5KkGPIWO5wbsoqgPsZsxLvF/fm5qMoQP0LsfPzHvsaDNDeaoz3eJ67PA/j4O4nu96i4N9YHAAAAAOhUImDNA9AIP/c2B7kYcFeOnsiPR+1tNEZrRUAcIWy+Zjxncyqvi27oSsWQN68Imis7qUMcz6+JQLglxQC6NR3N7f0+8axmWAMAAAAAfxGKIWmEsc2JMLU4GiS6gnOxAWB+PGpfY0ZaozhGY1+d29FRnF8boXOlypC3pcA6xCzu4rUt2d/Quj3fJ/7+KjeYBAAAAADotCpHXTSnOBokxmoUVYaoxUD7QBU3SdzXesXfr3y2UDwfAW9LgXWuOO867m3O/obW7fU+UcXZ4gAAAAAAnV7/rPIANALb5rp2i6NBYmZyUWWndVuEqMWu7taMvSj+fqViyBszrfelOPe6pYB5f0PrjnwfAAAAAIBOp7gB4HVxoKByNEhz3cfF85X3768IdfO1DqQqn+9gQuuWZk/vT2jd0e8DAAAAANDpFGcuV8eBguJokBhz0Zxi6B3jRg5GdDfna+1vxfiPSh0dWnf0+wAAAAAAdDqVIz6KI0KKo0Fa6qJ+IKv8mvh+MIrjSqIiOG5tNTfapKND645+HwAAAACATik6rPMw9MY4kCmOBmlp3nWIOdf5vXu7rrXytaJaMwN6bzo6tA75tVGH+n0AAAAAADqlYhCbjwEpjgZZEgdaEN3EEVbn11ZldTAassrXirUPRnuH1q3pLO/I9wEAAAAA6JSiA7gYPEc4WhwNMjqrvYmgOr821jkrq9aKa6OrOxcBeb7WwQbg7RFax59Ffk0E0vvSke8DAAAAANBpFWdTx8iPfDRIfBZD5ebESJBi6B3f9xV0xz15oBsbFuYiLC6uE0HtgWqP0Lr4fFH7+rPpyPcBAAAAAOi0RmVVDFfz762Z2xxio8b8nuK9MSM7gtvo5o7PGDtS7OKOqgyI52eVn4vQPJ6tOTFu4+asNmXV3DXtEVpH2J5fE1XcoDJ+r7mZ3h31PgAAAAAAnVZx48VitRTeNqe4KWNrKwLaym7lCG+fy6ry2tgwMq9iwBwVs6YrtUdoHYohdFT8ucV7xPf4M6jUUe8DAAAAANCpzciqGJxG0Lq/okM4D3D3VrF2dGG3NF4jOrMrO7Jbqgh9m+twbq/QuqUQOio6pZvTEe8DAAAAANCpRVAancJ5FWdN768IWGMUSKwTnckRxMZGhPu7bmzUGOH2rVnlXclREbDHaI74nZZEIB4hcvxmcYxHS2IOd/7uETLvTZyPtWMWeP5M8c/7uu9Qvg8AAAAAAAAAAAAAAAAAAAAAAAAAAAAAAAAAAAAAAAAAAAAAAAAAAAAAAAAAAAAAAAAAAAAAAAAAAAAAAAAAAAAAAAAAAAAAAAAAAAAAAAAAAAAAAAAAAAAAAAAAAAAAAAAAAAAAAAAAAAAAAAAAAAAAAAAAAAAAAAAAAAAAAAAAAAAAAAAAAAAAAAAAAAAAAAAAAAAAAAAAAAAAAAAAAAAAAAAAAAAAAAAAAAAAAAAAAAAAAAAAAAAAAAAAAAAA8JehVPo/8CVOeiz9m14AAAAASUVORK5CYII=;" vertex="1" parent="1">
          <mxGeometry x="480" y="533.33" width="610" height="104.95" as="geometry" />
        </mxCell>
        <mxCell id="8ruMCxL2oFIT7Z4K_4vt-62" value="" style="verticalLabelPosition=bottom;html=1;fillColor=#9933FF;strokeColor=#ffffff;verticalAlign=top;align=center;points=[[0,0.5,0],[0.125,0.25,0],[0.25,0,0],[0.5,0,0],[0.75,0,0],[0.875,0.25,0],[1,0.5,0],[0.875,0.75,0],[0.75,1,0],[0.5,1,0],[0.125,0.75,0]];pointerEvents=1;shape=mxgraph.cisco_safe.compositeIcon;bgIcon=mxgraph.cisco_safe.design.blank_device;resIcon=mxgraph.cisco_safe.design.automated_system;rounded=1;labelBackgroundColor=#3369FF;fontSize=20;" parent="1" vertex="1">
          <mxGeometry x="910" y="664" width="30" height="30" as="geometry" />
        </mxCell>
        <mxCell id="rPt5hNIXEh5W6GZC_jST-4" value="" style="shape=image;verticalLabelPosition=bottom;labelBackgroundColor=default;verticalAlign=top;aspect=fixed;imageAspect=0;image=data:image/png,iVBORw0KGgoAAAANSUhEUgAAAW8AAAA+CAYAAADkmZryAAAAAXNSR0IArs4c6QAAAARnQU1BAACxjwv8YQUAAAAJcEhZcwAAFxEAABcRAcom8z8AACoNSURBVHhe7V0HnFXVnQazySZZ1022ZGOSjRuEeWWQJEsklHfvuW8Al11ZUzEaE3U1cWNJVpM1dt8MVVeNRowGUKcgIqMxwBSKgKKisWAHe8GKBZQiCgy8/b5z//fxym2vDEzc+/1+/9+bufeU/znnf75T7in9IkSIECFChAgRIkSIECFChAgRIkSIUDtMmPCxOqX+Pm6aIwYOG3eAPI0QIUKECH0RSaX2j5vWWXHDWpQwrAcSprUxbqo/xQ11XcIwTHEWIUKECBH6CgYOG3ZAzLBurE+PzlKSVkM2qdL4u0H/n1DWpphpTUtOmPAJ8RIhQoQIEfYlDhw//tMxw2zTpA3CRo+7RDSZQxKGOlO8RYgQIUKEfYm4aR5L0k4qkLMLcTvCXnjCVM/XGcZXxGuECBEiRNhXiBvW1XpqxIWwi4W9b7g/VbxGiBAhQoR9BfSmryqLvE3rLPEaIUKECBH2Fcol72jeO0KECBH6AOKG+m055B0z1P+I1wgRIkSIsK+QVGpCQn+wdF9p4ojudZvqnZhS3xCvESJEiBBhX2FwQ8M/xk21qr5hTJYk7krceD6Y7w31O/EWIUKECBH2NWIj0zHuptRrvdHDzhcuEeRvzLA60Ev/vHiJECFChAh9AbGRI7+AnvX5IPEnEqZ6LW5a6/gLeTCWUj8/SKnPiNMIESJEiNDXEDeMA9HDHlifTh+cMM1BPKRKXkWIECFChAgRIkSIECFChAgR9mDChAkf65fJ7Kd/9wUYryP9+u1nP4zwkYPYmZTzPoVj831BFzdo/RzpY8hkwRXtEz7GX+fvCe3tfTIfP2roP/ibDf+YMM1/ixnq+IRhzYTwbOcO+Z2ZUOrH8ZQ6uk6p+JAhY/9K/NUM8dGj/y5hpv89aaZ/yI9niZTq1GKqzrip5iPuM6DHDxi/eKkU/Q9JpT7L+JKHHfa3xcLnX7U/0PW3ne8BK09yONwYxr8kVPrHScM6hhI3rOOQd18XZxpDx4z5G84Zu8VB4buhQ4d+WpzXBAPHjftLvziZtoGp1D8cpNQnxUs/6PBxPvfLD6a5Fo04j5VNjhrz5bhpfidupk9KmNZc5F037cz+NW/E3ycyT7mmPJns3WNoB6VSA2BzR0oZXim2LrqoVrw7IWaaR7BuiJeKEBs58q+9ysXJe6XUX4jzHOKHsk7k6uQMrZ+uF+lO1pGkUkfTFnmsr3jZayAxZxa0DGnsbDm6qavt1/jtaOxq7dS/lI6WzsaO1s6mzpbzJ3a0HDF52bwvznhwxsfFeygwT/xsk3k6ZGx1XDR8+PBPuZUN4+Tz/LpSLpITkp8Iqo+UiutWnZFugFHMhTwJ+UCfMqeXidnnOztLyJx1wHHTehmEegeMpzGeSg+VYCoGKuk/x1X6AoT7MML80Nk0kh+/1sGJ37BeYSWvM4wGCaIs8IMc0nl73FBPIKyHS8S0noAeS5OjRn1ZvPRj5Y0r9VOk+xa8fxTu3shfF13P/DGtVQNA2OKlH943QdYinkdK4oDA/Ro0SosT6fRB4qVqQLf/TSgLcZbGR0nqtFkrBo0ePUC89GODCV0elXSV+IH7x5Du+6rZoHMw8jxmWr9CXnQjzc/ht8etjOstKWeKYb0Nd13I9zNIshJU1Thw/NBPx1OWQppnIY4X8bsbeVZi83qZJPRAvuyAzmugx8VcVinBhAYrMOJA58ejXHTeq0frjfRh4qUfbULXCbyHju51UucT66N6E24eQDgZ1iUJotcwuaPli02drac0drbe2tTV+vrE7rbs5CVzstOW3+QqU5bemIW7HSDxZyEdTV3N38t0NodadhpPpZTkwWMFeSaSZB021XJ+XBcvZWHgwHF/iYaRjaJL2ahHpP6eLs7LBjoox6Jc1jCs0vClPoIDuFBAvIRD3QgVjytrDgLfqg0CxpGrOEJKBSLvHCNKwrih1HoknL2lHyDIkp6qH7huGOGeB3k6F2YZ8UPvLdQfBWdIkKEwSKmvQe+t3HjCNBfL4IaxTNeG2MgxX2BPFpl8KuQhxp3LJ4ijj/MchP/UgBEjPifR9CPZa/fip0TwnDqgkp4jXqpCPJ0eCr3f44Ybt/io8+DRTJs1J7+Xh3L4z8E+evId8z9uNowVL6FxiFJf0o28aT2fK2P8lmVn+LUJP30By0SCrgixkeobSP8CxLONaWPYTnwleoguDnEmoQvSsQ498anlHI3Lnhvqxz2HIO+L81aL5Dsq+nc54kukrHNRoUPXiYJ8UtYzGNX8sjdGLCTcTFfrL9G7fsIh68lL52QnLpqdJYGDoF2F7yYtnp2dctuN2anwg155T1N36+NNHS3nTlkwy3dEw1VPKPt1XnVV5x0E+XCyeCkL7JCQ/zy5gPXFVCuHjh9f/ggZvWl29sgnbmEn0VGR8K+F6/A976RlHYPCf84p9BKjCCmO4eDvXTFTtQxK7enR+aEupcbRoO1EVBZ/0nJIM/0uidJt2OmGulRqCOJ+2yte/dxQr3LIDHc322mUSu7inmL7sR7nlIRE02+gJi7rSabRzQ/F1t9awUZCvFUMGOE17Lm6xUOhjnCzgSQvXjQ4HeZHEPode38YoYmXUOB0A/LwwWptDGFo/wwH+t/HkYJEERrM35hK/xzhvV6NPnv0QE/KNEdI8L4Q8r5dl7VLmJLvu9GoXA93S/Xoo0L9dNqQX9BvPu1cVKgW/ScuaDmyqavlcZL21GVzNWG7EXUYIZFPXXaTHU53292ZhS25EYcb0Lue4pl3ENZN5N2dlUwd8aweO689bB/v2CFKpFLfFC+hwdEAyPtVr7K06xVnGtQY8RIM6cq/75ch5YqE9WpdqiHQYGCsP4bbzdqPB2GUI5L5O5Gm5gFjhuamLbwQRN4UhLUDv9voRmeyi5t80WEVkTeBcM7yi4fph5vtKMBvi5eKkDBHfz0oTVJGM8VLDrUmb87loVJcBr/v68YkRP6FEoTDhhAVdQsq1MXyXSIQyWTyEyDaq3VZ+pVFGWI3yOm3Y6b1C4nGE4Hk7QjSp/WrMr9YXk59ZNmKGhUhc3vzJ9FDvgpk/SF72tWQdrGwR84w8fd76M1Punj+tX8t0RaAU1yoI1u8LgxhevF+GzoLafESCgcOHfpp2NJtQeWi7cZQZ4u30IBOGd/6iHeI/+GwdsxhggWPm9llLw6sYrGNrYe9X4nGE+hx/wiNxxa/3mgl4hgsehw3BH1gCEPeFE1aLs/dRIflQt7sfYNonvEtRK23tWj48O9/SryVDYTzGz8jFAPfWGeOPlS85FBL8k4OH/63MMiF1KWc/CtHmJc6zwyrfcDQPd8Y3MDRGCr1dPqptT52fqd3Iv9+JtG5IjR511gkvs2s86JKWci0t38CxPr7qcvnZqcsnVNCvrUSTr1MWzGPf8++ZElbycdHfsxDHVrgl3+aCE1rkngJBY7g4Gd7kF1I2A/ww6N4DYQuc1Pd7aczbRLpmixe/MHI0SO6oxwjYsICE4fwUJFuDlq+FE+p8XC/KVTDIfHmi6u7PHHcxQzrvyRKV4Ql73JEh+VC3gTen+cXF3VGIW6PmQ1l9Rwc6JUzhnrE17jxDvmy1G1qqVbkzR4E7OsPWg+PsGomCF/bnbLaebiWqFAArmxBvlwRlrjpJl/CpEGmqV73G3HuK/KmUD90aO5mJ0LUCQVN3J3NV0+5bW520uIbSgi31jIJPXpOpTR2Nrf+qu2SEgIHeZ7iV4Z2Z1CtLmdVEPxdHqZMdLwGp4XTR4jXQMTNhu/4NQxC3BsS6XS9ePGHzgAmMsAoGSETZROO6oHiO/l37lmef2mVXh5kmgmJxhX646Sh9PxnflwlgrDtePX/Oxi3LaqHz/PeuQrfQ5+NfkOovU7eI9IH4d2LfvHpfDTUxeKlLHDEg3zb7VWuLE/IbuhwongpQK3IG2XUpG3EIxxX0brZ5aqHxWX4ZVzMN9jW90WFAqBDcZwTvpt/Rxi3VP5dSKfYGwTv7PD9ddI2bVj3upU9URPyZjqoi9anzHxqGMPfWaJOILicDyQ6fW8RtyN7CLzlOk7XiDoaQ8aO/RzKc63nNx1dzugEKXW0ePEFOxrgiYftcncJr0hYdoj/SvEehP7wM8uvvG2bUQs4pSd+vMEPNnQcZEBi6NsgSyC/SaTUt7nONJ6yMkmutTbVOmYSV5qIUffETfMUicYL/UFMl/JrPePwEicjkanLdcVjvEqNx9+HJ9Hq4d10SCDp6ow21Uqun5T4C1ANeTtEwzioryOyiuPZ/NUm+eB0jl/eM0w2guUuedJrzk11n31BsHvYkh/3ec2t1YK860zzSLjdJDYRKE4eMk7otgHP3uIv/fN5mDLG71sxjGrc1vlyOSjC0ytciv3mhHHZ7zfDzq6zbR1Dadic2N5RSDfXfOvOS4l/R/aE898SfQEqJW/mRWA+4bfYX7GImw+hA1eEBaKps+VSrgzZm8TtyOQlN+hlh5mulp+IOjmgflztSd4Q5gd45jpx7gtw1rHwo5erFofjJrr80XiEGcGwowo9nvKyGYlzt1enowRc/4kA1/kZobx7vd6wvseNG+K1ALF0OhZLpX+OhuAxm7DUnUErJZBRY5Hx7/tllB23Ps3uFL9F90mjYRji1MeXuoVDSVIQXlylzxBvBaiEvOnWHoJaG1CZH4qlzOnsaUKXyfhthJu5+Hsh53wlmgKAGMbAzTa/PBACmCZeQiGZUt+HH89eNyWpuJJBlVQGB9WStzQgj4YhJ4alywYNFeQa5OWp3GSCkdIh3DMAPU/juluE96p9HG2pTrqSmuk34nnroosBd9N89aEedrruqUtZo8VbCTj1Yn+nsTb42hzLDqMrpkO85lAJedu2qVhuT6DjdA3klPx8gpv/xnt0sOwRabH/YrHzzFoUtCJr8qLZh4NEt8va7LIk09mSvaDj+uz5C6/Twr/Ri3Z16ycyv/4WeuIFc/Vc3YP0ooPgnl7WH3agDjaMfxIvXuifNKz2csqDYo94VOCSRNjv8XDf41Wf7Hqungq97DWQvG1jxrAx3DVXjDhhmFfCmP5DHrmC600TyrrVL6N0a2pYDw9Kp78q3nwxAL1TGOJ9fkYrxvqwW++7XPKmO1Ze+JmhG49DXXv0/SUu17XurDQosFv88wH6GNaT5XwYgbFeH9QbQbyPfDmV+qx4KUG15A1/J/v5d0TnI3qxJKOBqYakeHcFSQp+LmcvUxo1LZwCQFmAuA1P4kY51MHfy/n+isXWRV3nNTorBtdgc3WJTqdLeBSxuZILmsshb4avwwEJIY3HsRcnwZSAOwNBKBMQ55qgUS2JB+4wUiltXBxMu2vOZ0G2q2UFSChphJy34NrsOfNn6f8vW9aeveqOP2anQy69bZ4mdL4jmRf79ZOL72jPZjpaOvO3138J6UW5rvQbZbJcuRlMvLhiiGF8BXnxctj674hdvuqWgN2QnGXo9i5rGaWhwyfugyHk/ZKXwjQavN9ab5olqxGqAQkZCd7oG69pbeGQVbyEgt37UO8EhLudw1/xkkNo8t5TkVYkUlbZ6zyLwU0uTKsXAejnKr0DBXykePEFdYIRvOfVE6GIEV0uXlxRDXkPTI37B7hZ7VehKMxrVpi6kEN3BxhZjEP+v8F0CBk/j8ZtnLx2Bez4NF22XunRuqg15X7E4/EMdtm5h2vrp1YXN75hyZth641AhpqHMEIfAcGPpcjbNb72zLAxigGxuU7tECDu/+JUCeee3Qi1WC5YeH32XBD3jLs6snc/93j2tXffyW75cFt2R8/O7PaeHdnNH7yffXnjm9k7nnkEZH6rJvELO5pdwyoW0WN7prv1BFFPI67UTzCS3OVVtrq+mmqx32wA7OlUdCh9R6tuYuevei2eGl0nQZUgaRjDUCd9eSlmWFsw2hslXoIRRN4UFO5uRHyReKkJEOfpbkNfR8Sg54rzsoCMvMovPXnEVdAbDkve2hBQ6ard1ZcDe99oCPwqsRjf8i8FLxvcD3l7nV9YOn1IJxqwgjNXilENecdVw1Han4dfiujxAVcbibeyUIcGGOGsB0Et4ly2PHZHBvliqvle+SLk+wF7rOIjNEjKJGevHj3DRtw9xasSQpE3/Ir/m3gOingNDYT/Ld1Z8SkHO351g3gpQOaPzZ8BeT/IZYFuZFosJO2Ll87NPrju6eyu3buyQdi+c0f2zmcfy07qnp09L2QvnCOAxo6Wtefk7cLUvWbfTqhumDd4jTB4JhPe3+03KvMTxhvz6TWDPy/1K2cpg1vCbijU0AfwGN67fbTQeLgBwrSursWZJVy3jIz2HELYFQmtqGmG6mkWY7C9eH+HhFMiLCC8v6+4MoQhbx0mK1zw/FlZ4JBOx+uhs6SlJ6j3XWeM/Qp7AX5pYL6zLMWLJ6oib8PybUAo1BF28FvxUhHQ+fiG3xSCg8SodD176l75op9zVVCFO1qRjslBlTOesi4R5xphyNue+lL3wW1FNxbpBQmm6vQjJTvt6jG3zkhjV+tPufMxTK/73PnXZqfffmv2rc3vCjWHx0sb1mvSP29BMIFTn4ldbTubOlu/JWpqoAzm+eWl2Jvr+mn03IfDzWYvzggSO161yu27HMsOtveAp26Ik/FCh8D9MAUYNmzYAajIK/0STWHgerupab0JRa7GMPdbXutog3BI6nCuP37Ct6fCOVBUbBjVz/B7Wlihe2TiVfTvVRC6EE21vr5oLj2IvLVeptpYiwasGDyABjoHbplH/s8WL65AGBj6+SwPtMN/ix+5xIsnKiXvATwd0LCe8U2LXQbPlTtFUSnipvkdxLvb1ybQiUH+noX0nlxsV36SSKmTYXOLveyGouuXYS3Kr9yhyFu/U7eIl4oAHc/2002n3bQ2DBqpviZeNC67Z96nQN4rp60Inuvm3DXnsjds3SR0XD44lTKpu01/0HSLIyfdrfosFJD3VaKqBvLyB3Fl7fCyV72wwLAeRoNWsl0evHG+n70GieYGQ21FRyIlQeagFyWwnnjqhXjRcaiIT7ktnhXeK/B8YUELieyAUT2KZ1dyCVVZH9N0K6feCYqP7ysVt/By4rxPqR+JShqB5K0zWb0a9pyWcoE4fh1UyZBvr3l91GMZwIAeCfpQCdIMRQaVknciZY2GHr471GzyLm/nWzWAPlf4kaQjtv3Yy13LFbfwHGHZgTheGTgyfbCoFJq8UV7z4bysw93yob+pGBaIxaMcbZsr+Wg5ubt5eFNX27tcoudKoiJ6NcnC67NPr39FaLhy/OnFtbmPnH4yZdncbGNn62NTuufl1tAPHDbuAF/7R/pB7tuR5wXfV0iayOM1QeQdVMZi0xdKsILMfng2O7CMw68VLwRai/2RoHt4gpZb4G6iDRbKaoV1L9m6H6R8+uAQZ5hIY+FJCgXiuCtH3MLJF3FTn1JHiUoaIcnb98NENdArdUzvdaAUGmZMqcvESwG4rt4vD8T4dnMtq3jxRaXkXW9Y/0qb8DJ2eb4pUeapj9UA8TWHIW/90dFJczniGtYeYZmiEr+c3/DvLfJmnLAr74OQ7Odv1hdtqGvsbD6R66uDzi0h2c59cIXQb3XYtXt39vd3LtQrVdzicoQfLid2t25v6ry+eOpksm/9sYmyXZxrwM6/jXoduLYb5fc+fncXP3dENxqGdS+XyErQeiMe4vPciKc/Fo8y3h44atRw8VI+QAg82+Q12XVVljDRJHFtoIZaH0tZ06m0BF0CfakC/YYw+l4RXeFYGOmTRCWNfU3eBAzkGr/KLLq9VlzRgP4wEp+lSGJcplo1cFy4U9YqJe+YaU3zykOK7uFgmOi19r03AAK81i9velt03TCtdfuCvGmvHLF52rVdvh/ER6W/K16I/ujZtvKEP05TuBEopbGrJXt+x/XZZ996Vei3ejzw0lOBve+Ji9r0eeCN3S0F66sP4Xp3Q23wTKsuB7WOHzjFCzs9VwfXOcVz7c/Cr/eGM/v57liqIbfJJmmaPyTXeHIdng9pGHP/vHn3VHx+kQYrIQJczWVJXokPEvqTjHgkZljfk6ALsM/JG6IrRUpPH+QqRV8gbzaiMD7PIS6Fu1jxO1W8aNQplYJhveflTz9X6d0I/3jxEoiKp024xtynMsjw9NGwa6lrgYi8Az5i2/rlprEymcx+IOZFQWu7OV1yxYo/6CWAtcLG9zdnpy6eE7h8cOptaFg6W2flr/nW59b4rCqiLedvTqtT4znV6LucUsL6jb6sw7AeCiovbiZj2PomKq2Ld9hwm73wfy97E8kOPPU0EPpmGH4oNK237J1s3hH7iZ3A9JaYYRwjQefQF8hbVybDLJhn6gvkrZe0BXw15zsYxX2c7tJ+JvT7GCpe4Lwafu/Nv9EnCFXMefuf36Dz0XqsnO8k1SIi72Dyhm3nlrpp8u5s6Qgib/aQb3pguc26NQKnTmbctTBw6aBc4HBXprnwvBPUC727WNunW1o1mao76FZ/yFZpz5Vp9nO11dm1i7p5hXQ+XEU3goZ6asiQIX/F0THKznPnJ+sV3L9/+XXXHYtkh790IQhxo+FfYGzXOGRGpbwS6CWyu2szwij4QBCGvBkXDbdXhLdj4DeRKjzTuE+QN8Br3FDo3r1v/Ty9M4Z8pHv5ALzJt3Iivfk9qzDoXfL2391Za4Qhb84/avvoBeGREbStg4fvWY/+USHvxWvut1m3hpiLBiFo6kTI+/Zi8o6NHPkF5Kvnyi3mA/J0A7+5hOn0oLe9At1ofSwIl6biuefmQqeugMBPQ724wC/PhR+na6V7A/FUiucl/BqJfBgGsIvzplQoLJGL8b2EjModrBRE3jYpqHeQAV0ohAUQXnZcM0FhdCEtncUfzPoKeYc6p9h+dzsX9aNszvL8wg6h3nDzZv2ocMcMOKh4zts+w2GXl41ofXgkQ9DGmhoC8fmvO9e6qqeTKTUfaVro2ErNRN9HaF0/JO+Asj5F3tRBpZvES1nkveyp1UK5tcPNq1dWTN4E6mmTX52gcAoE9aLgztkCwXOdZynzXAlWDvKzlvqVmdj96wh7g1/dwfttCSNtStC9B3s5DW/2tq6BMa2BArv08MMr4XkiCc0dPcker98kvu1eLZcNE/1hSfv1ihShr5A3AcM61a+y6cIHcUKf8+PKut+3YuJdrIIWvlLyrjcb0iBLz6GoDg8C8v5P8dLrgN36rjZhHsVTpr3My81WqhX73IsCm/uo9LyXrH1AKLd2uOnBFVWRN2wrhfrheeQEhfnh+x7vkPfvYSRZcAQGbPts+e7kKfTrF7Yuc8O6v5Jds1WBS9qShnUMEraSS6v8trlT2AIiwc85K1DQ4/06/K73MiZdkUz1/IC8W9r3BvoSecva0yeCeg/Q50PX5yK2ztbbdQ3BSziLUSl581Ye6L7B92wVlrFhdffGhbhugP2dpiuUiy5aH02ShTsgexsfFfJuX32HUG6tsDs76+6uwOWCXnPeRJgD34LEtlF159ChhZcMDzLHcC677AOs8sXmuL23z6EE/GAG8j5BG4ZPK8N3qKjbYkZ6JP2xtcH/92uD8XBPwuDpaTqivYS+RN4EiOaXmgAD8tbtuSPycaZgJ1pYVEre/OLP23n8Ko62CWXxliDf0yfDgJfA8mQ5+dcVuidmKs/jh1m2eP88jxcQL72OPk/eXa2Bq024s5KnBe7c1SPEWz02fbA1e9GSG4NXm3AZY2dra3veapN8cCmwn/36CvzA726v27eQV62VNgy2rZWuq98nQCU/OaG8z6mVCtOTTOWGyTwe8bf+RqsTuDzUjRI1Ql8jb3vLvFrr1cgFiX0Yj/V+fTknleWhUvIm8N53tyhFE5OhllUzdET8J0K/DfZxsu431hAgys+AwB60GzMPfaAvGsyiHXK9h75M3kRjZ+vFvHyhqbvNlTwp6PlqkuXZJLXCo68+rw+44rGybnFScuu8u5pPFXVLYN+yE2L06iKSVy/X5a0Hzwfrhq4XHnXDT2xuS88fetJJrncjVISEaf4bz6WQf0Mjeaj6PAzsBV/j0Aa6pweInvfhIBbvLdT28zC38fiCZ2ckUuav+QVaHnmir5E3gfj+R09LVWQkJEfrTo6QJLiyUA15c+oE5e27AobC97CdG9BzLnvDDtJ2HGxoK9Npl411zyCfj7Jwe4kfUYquL4c598UPIIzTEY7nEasO+jx5dzcfo3cyBuywPHv+zOytj9wp1Fs9mu9dpMnbLS5H7B2WbTuauppd95I4iIFz/PLXS3S+K70T0zXfZeek7wXibiJ8t5PfDyWo6iHna69HwI/WpfzPRS6GPrHNZw6bojPQUL8TL/YxmoZ6zC9jmVC0UFu4ekG8lYVEyhqNcFbXN+g4OpKH7dm26oa+SN4cWvnp5CViJDygqmA5ZDmohrx5IQDcdASNGhgG0wb7uZsblMS7L9AYfR5+efXdtly+IBzbltIvQifXOzm5Vhck9qHkjavo7zOmtcbv4mAvHDiUmziUXh5GiZnmefLKFX2dvCctaTFBlJu5Rb6YPPOFZ5tkOpuz62rQ+2avm3Pdfr1uih4RdLY+OXnR7ANFXVdwqhYk+65fmReLuN3hLMX1AtxMC7rsoliYz9BnbaWH+pVA7wQy1ILBUERIdhOMaiaX0gUNaekXSs30Mwx+1Ewoa1fxkYeocGeysnh9RKIwXCR2S8JIN3ndtVgMVm7EdQb8v16fHpOr2KiUf+SN6uKsBH2RvLlsEHHO8avgbmIPFUGI1UxJVEHeRJ1pHqorjq9tQKR8oO87IKprYyn1/UNGpmP5HzP1CAr2CFvJIMyHGKZbhbQbC/UhejaXFO/gJFnCBhbRzov95Yu2FXQsEiPDn70Cm/sa/HbQP/WydUvvQjhni5MS9HXyzrRftX9jZ8s9QfPeFBIuj4Pduv0DoeHy8ebmd/VcN3dtusWRk+7W7LQV87KNHa2BlyfThpB/y8upP3paAzY2zOX0wXwEnRboJpq8lbpAgqgeMDB+ic/NWVMZu4XgziLrrnjKujBmWP/K20t4Gzx36eGZ0ksHDTUPhb6rWMl8YXgMi5VZotTgHCUydlVQxupT3qgPCkGvER8x4iB+FONSQkdYEXgqGuI5He4e4VRDvrHqNDEeQ/0Bbl0bgb5I3oTO64BlT/ki7kAcVlUffKslbwI2crXfPHO+OGUEvXlD+2sIm2ukZ8YNs429YZ0HKAOv8nHEDmcMba6reLrMtlvL8+wLR/ge8b3Lrc60fTb6+TanP8rywzvCg5vL4Fbf6iN5nwsDvz14f6ZEX4C+Tt4EetS/CDN1QuHKk1mrurLvbdsqdBwe6zdtzF6+/ObA6RKKTJl8kFnYHOqWLdjBT5BGz1t2ikXKw/eWKYKdSeSrPk6kOAw3oW3QhrmpToKoDghoMIzZ9V4/pzJpQzbVdl2pDOtF/P0nkjHc7NIGEZApYoDL3eZeUbnHwk3g3Chljxv1FHS5DX8vp4DQl9l/00CFtN10kvTAL6+TKtma3VfJm+uEEf/csB9ebD2tF786vOGLEkJFqAV5c1kp8nutVIhQwnCZBvpxhP/r+Fzcu4lMf7wxGGUqquQQS5kTdR4FhKfjhED/DyD359uc/L0Kv74NijzviZnWLyT6HP4syHvxrIGNnc3r9TSFC5EWCwmcJLzm9ZeElv3B23YeWPeU7nGHIW7KRbrX3bLqt890h7o4gxenII2+3+QcsW2My28bSq5JdAP465dhwqVom1RWu9cl7mXhwPHjOUfne46GI7pCOZUK4vzv5jZfxM1u9J49r5dCBTg1bHiscFoHqdT5YmdiQIWE/8EN3KpceqFynyVvQM/fhxyiMS/iRvoK8VoxakHeBEdscP8W9SoOozeEerGsYNuniQoF0BfWGtbNekrNxX+xMDzafL6tORKmPHjUMuJ70m0ap6+Td79stn9jd+t5nPcOe4clzyQ5f+H12ZZ7F+vr0N7e8l72w507NFH3QLbt2J59Az3te19Ym515d4cm7cALGESow8TFs3syXS2uZesBrm4LNfWo3RjWUpaN+PUFO7/I27f88lYLbVJLjTamYTj3M0YaxgArFWZGzFRLeEecRFsC3suoGxEYeW/q4lRCDsGLd00RfZm8nSFakAFSR1T2N2lU4rVi1Iq8Cd5TmTDSb4epQNWItme7jK/k9IZEX4JEmteiqWcqOQK5HBFb2sb1wsU9rj8L8gYuvX3O3zd2NK8NM/ftCJcQkpQpUxbPyU5f+cfsrFWd2ZmQK++4VZPwOQtmhfo4mS8X3d7OXvfyn3eH63U7gP0dBZvw3vWrxW703Tp2XtBHWZjWosB6qd+rR/k9TrxWBwwffwGFt+iIfRNVmbBioIL8qT7v9hAv8GxnuL2UZNAbFZyFoiuCYbZ5rd3sy+RNIH9O96uAFN04VXkvpINakjfBq/Pg7wVNFL1hb7Qb+0ycczgnLdF6YpBhDEOP2P74GZCvlYjYMT+eFpwb7+DPhbyJid1tR0F6gm7VcYRz5Jxq4Uaaiei1Z7pbsxd2t2jh35PwjO/oJmyPfgrihg6bM12tZV9YzSlblLX3PZIQ2jNs571yl4rCD+fUPfe5UHS8HpeoVIr+CJBfTO+l4rWqVDosO5PuPbjMw4c4rEBL9hL9a3JwCb8cYRhJzhUraxPP90Dvp2Craz76OnkPGDHic9Dvca+5b9mUs5HHD4iXqlBr8iag2yCMCrqZhloRJsOxSc56AhX0cIkqFNgTYmOHcN63K1gNbA766LQp6wVWbImqBH9O5J3JZvdr7Gydxd63H9nycmBN2Iv0xp7nIUuaumafC8L9WePC5lMp+u/ulrMmdrd2N3W2PAtC1n74ITI/rHzhu6kgevTozxCVygbKQm7ZcS9j+zuJuqmsG9wB7nNB3j3tlb98znoZMwy9w7ymgBF9Jq7SP4Uh3c8DozRxUpFyDBlu6UcbIio0nl0+qMIPZvIR9WbItup00Zm2HYa7hMvMJHhPkLzhfoMe4jC+IuFzkMMb+4q8CeTNGUxbjlTzRFd0w7ot7HxdENBjPFbnvZP/RcJ3On9T1mjxEgpcbw//Z6Ki6EPwdRkzTLey9BC7Uc6R9ruwuZnJKs7CQVq/i3DvY7h79Amvk9aH/phXpvUiZGL+fZVuYDlhOL9ST90wPheR0etCOK+KvJFHb3jZNYVpBgHlThV0Q6a9fX8Q6WwS+ESQdDHB8l5J/O4GyS/LdDYfP+22OQMyT7R7joBmPDjj45lFzf/c2NF2DPx0N3W19Ogt70U7OtkQ2EsDW/5w5vxrK176mkw1JFEuduesKP3OMRScXhHn5aA/bPlavQS1KFzK4AZ76hg5WHIYXs3AFRgxM30CWx+QwCvaKKWCaIPG39pIRdhaO8+pJIkNRHlLuZt8XJHJ7MclWrwwAXq8wPB9dZHnugcBvZEG3gQ+m6tZBg4Ld+3XoFGjvgq/G3WvMC/s/Dhg4OtjI9Mx8bLX8WXDOBA6Pq7zIF8/O927gjYWlAPeNcr8LM5rRySvd5RL3g64dhuN0dmwm4d0Dx7hOeVYEmfROynjdagULbXq0XDqjt+BYDd3IfzNxed7++kDPzsgPG1zasIckzv+2A+avA3rTn7QLAg7T+Re2Q44r5i8aa+025I05IkmnpQ5Ubx44mKQJ3q/cy+6fZ495YEe8eSlc/Rc9MSu1tWQH16ypM3z+5YXjmtu/iRI+vimztYXeeAUw2QvfoqE3djZvODsW6dXdfOSXvMtRy0Xp5/P8O4lv+sb/YAR3ASUU0+J3epGgct2vUdgNUcsjQJPqR9BoctRSZaBlBfjbwwDefuyPsluM2QVFFuK/3+H58fJ7dM1b13QqMRRqY7X8di6oCfNbcyii56nsu7UuqSsy3niIfUX76ExdOjQv0HLezQzmtM3xcLn6MEfib8r2m5eK9Rz84tpnpSvG8jvROo+ZKz3h+FywW8DSO8J6IGekB9XQZwg+CEjxubOqK4E7ImzoY6Z1q9YuVCeS1HGz9nlq5fpcZnqs7RBlj9I8pLYKPOHnIKRIGoKZ/024jwVMg86LEWcK/GLHr76UPR6hfaGv7tgi+eh0Tyi7F1zmX52B6WoLPOF71Cv0uKjIiAcHiB3pJddU9CI/jTM5eFEpnv2AU0dzb+f2N22AWS7E73jrY1drQszC9qqPp89s7A53tTZ0t7U3boV0oM43m3qbGuZeltrTa7M45n29oFVpelPmuYR/AApTssCwtjfjTvk/wlBB6f1GthicR6ILTh7suxpJcwGg5t1arJmsQxQF8YZH8GpFehiWaO5BZaktbd1idALQOXR5ZtKYahvjk0aRgO/y6ACoKOu/iJ/1+VeQn/qQ/uindHeqBen9px6Ie7+3yHT1fqNTHfLYZMWtqbcjmWtFCfNmPHxTGfbyEkIG8T9TZ5wKK8iRIgQIUKECBEiRIgQIUKECBEiRChEv37/B47WU0l7JbWkAAAAAElFTkSuQmCC;" vertex="1" parent="1">
          <mxGeometry x="1630" y="568" width="367" height="62" as="geometry" />
        </mxCell>
      </root>
    </mxGraphModel>
  </diagram>
</mxfile>
